<svg width="115" height="105" viewBox="0 0 115 105" fill="none" xmlns="http://www.w3.org/2000/svg">
<path d="M77.4397 46.85L77.1396 46.7C75.7396 46.3333 74.2563 46.1 72.6896 46C71.123 45.9 69.523 45.6833 67.8896 45.35C69.4896 45.6833 71.0563 45.95 72.5896 46.15C74.123 46.3167 75.6396 46.65 77.1396 47.15C76.673 47.45 76.173 47.6 75.6397 47.6C75.0063 47.5333 74.373 47.4333 73.7396 47.3C73.1396 47.1667 72.4896 47.0667 71.7896 47C71.7896 46.8 71.8396 46.65 71.9396 46.55C70.973 46.55 70.0063 46.45 69.0396 46.25C68.1063 46.05 67.1896 45.8333 66.2896 45.6C65.3896 45.3333 64.5063 45.1 63.6396 44.9C62.8063 44.6667 62.023 44.55 61.2896 44.55C61.2896 44.65 61.273 44.7 61.2396 44.7C62.1063 44.8667 62.923 45.1 63.6896 45.4C64.4563 45.7 65.323 45.9333 66.2896 46.1C67.223 46.3333 68.123 46.5 68.9896 46.6C69.8896 46.7 70.773 46.8333 71.6396 47C70.2396 46.8667 68.8063 46.6667 67.3396 46.4C65.9063 46.1333 64.4896 45.8333 63.0896 45.5L60.7396 44.9C59.9063 47.0333 59.0563 49.1333 58.1896 51.2C57.3563 53.2333 56.5396 55.3 55.7396 57.4C55.673 57.2667 55.5563 57.1833 55.3896 57.15C55.2563 57.15 55.1063 57.15 54.9396 57.15C54.8063 57.15 54.673 57.1 54.5396 57C54.4063 56.9333 54.3396 56.7667 54.3396 56.5C54.3396 56.2333 54.4063 55.85 54.5396 55.35C54.673 54.8833 54.923 54.25 55.2896 53.45C55.223 53.3833 55.1063 53.35 54.9396 53.35C54.8063 53.3167 54.7063 53.3 54.6396 53.3C53.973 54.7 53.323 55.7667 52.6896 56.5C52.0896 57.2667 51.6063 57.65 51.2396 57.65C50.8396 57.65 50.6396 57.2667 50.6396 56.5C50.6396 55.8667 50.7563 55.0667 50.9896 54.1C51.223 53.1 51.5063 52.0333 51.8396 50.9C52.2063 49.7667 52.6063 48.6 53.0396 47.4C53.473 46.1667 53.8896 44.9667 54.2896 43.8C53.923 43.5667 53.523 43.4 53.0896 43.3C52.6896 43.2 52.2396 43.1167 51.7396 43.05C51.8396 42.9167 51.8896 42.75 51.8896 42.55C51.8896 42.35 51.9063 42.15 51.9396 41.95C51.973 41.75 52.0396 41.5833 52.1396 41.45C52.2396 41.3167 52.423 41.25 52.6896 41.25C52.7563 41.25 52.9563 41.2833 53.2896 41.35V40.9C52.7563 40.6333 52.3396 40.3167 52.0396 39.95C51.773 39.5833 51.6396 39.2167 51.6396 38.85C51.6396 38.05 52.4063 37.65 53.9396 37.65C54.373 37.65 54.8063 37.6833 55.2396 37.75C55.7063 37.7833 56.173 37.8333 56.6396 37.9L58.9396 32.65C59.4396 31.5167 59.973 30.35 60.5396 29.15C61.1396 27.95 61.8396 26.7667 62.6396 25.6C63.4396 24.4333 64.3396 23.3333 65.3396 22.3C66.373 21.2333 67.5563 20.2833 68.8896 19.45L69.6396 19.15C70.573 19.3833 71.323 19.5833 71.8896 19.75C72.4896 19.8833 72.973 19.9833 73.3397 20.05C73.673 20.1833 73.9396 20.2667 74.1396 20.3H74.0896L74.1396 20.45C74.1396 20.4833 74.123 20.5167 74.0896 20.55L74.6897 21.6C76.8563 25.2333 78.6896 29 80.1896 32.9C81.6896 36.8 82.973 40.6333 84.0396 44.4C84.3063 45.2333 84.623 46.1333 84.9896 47.1C85.3897 48.0333 85.7563 48.9333 86.0897 49.8C86.4563 50.6333 86.7563 51.4 86.9897 52.1C87.223 52.7667 87.3396 53.25 87.3396 53.55C87.3396 53.7833 87.2896 53.9333 87.1897 54C87.0897 54.0333 86.9563 54.05 86.7896 54.05C85.923 51.8833 85.1063 49.75 84.3396 47.65C83.573 45.5833 82.823 43.5 82.0897 41.4C82.7563 43.5 83.4563 45.5833 84.1897 47.65C84.9563 49.75 85.723 51.8833 86.4897 54.05H86.1396C85.9396 54.05 85.8063 54.15 85.7397 54.35C85.8063 54.4167 85.8897 54.6 85.9897 54.9C86.0897 55.1667 86.1896 55.45 86.2897 55.75C86.3897 56.0833 86.473 56.4167 86.5397 56.75C86.6063 57.0833 86.6396 57.3333 86.6396 57.5C86.6396 58.2333 86.423 58.6 85.9897 58.6C85.7563 58.6 85.573 58.55 85.4396 58.45C85.3063 58.35 85.1563 58.2167 84.9896 58.05L84.4896 57.55C84.2897 57.35 84.0397 57.15 83.7397 56.95L78.9396 43.15C79.6397 45.3167 80.323 47.4833 80.9897 49.65C81.6896 51.8167 82.4063 53.95 83.1396 56.05C82.6063 55.4167 82.1063 54.65 81.6397 53.75C81.2063 52.85 80.7896 51.9 80.3896 50.9C80.023 49.9 79.673 48.8833 79.3397 47.85C79.0063 46.7833 78.673 45.7833 78.3396 44.85C78.3396 44.9167 78.3396 44.9833 78.3396 45.05C78.373 45.0833 78.3897 45.1333 78.3897 45.2C78.3897 45.7333 78.223 46.1333 77.8896 46.4L77.4397 46.85ZM77.1396 41.65C77.2063 41.65 77.3063 41.6333 77.4397 41.6C77.573 41.5333 77.673 41.5 77.7397 41.5C76.6397 38.7333 75.5397 36.05 74.4396 33.45C73.373 30.85 72.1896 28.35 70.8896 25.95L70.5896 26.25L71.3396 27.6C72.5063 29.7333 73.5563 31.9333 74.4896 34.2C75.423 36.4667 76.3063 38.8 77.1396 41.2C76.173 38.6 75.123 36.0167 73.9896 33.45C72.8896 30.85 71.7063 28.5 70.4396 26.4L70.2396 26.5C69.1063 27.6667 68.0396 29.0667 67.0396 30.7C66.073 32.3333 65.1563 34 64.2896 35.7L62.9896 38.85L63.8396 39.05C64.3396 39.1833 64.823 39.3333 65.2896 39.5C65.7896 39.6333 66.223 39.7833 66.5896 39.95C67.323 40.3167 68.2896 40.6 69.4896 40.8C70.6896 41 71.8563 41.2 72.9896 41.4C74.1563 41.5667 75.1563 41.7667 75.9896 42C76.8563 42.2 77.2897 42.5 77.2897 42.9L71.1896 42.2C71.5563 42.2667 72.0063 42.35 72.5397 42.45C73.073 42.5167 73.6063 42.6 74.1396 42.7C74.7063 42.8 75.2563 42.9 75.7896 43C76.323 43.0667 76.773 43.1333 77.1396 43.2C77.1396 43.3 77.123 43.4 77.0896 43.5C77.0896 43.5667 77.0896 43.6333 77.0896 43.7C77.0896 43.7667 77.123 43.8167 77.1896 43.85C77.2896 43.85 77.3896 43.8667 77.4897 43.9C77.623 43.9 77.7397 43.9333 77.8396 44C77.9396 44.0333 78.0397 44.1333 78.1397 44.3L77.1396 41.65ZM66.2896 30.95C66.3563 30.95 66.373 31 66.3396 31.1C66.3396 31.1667 66.3563 31.2 66.3896 31.2C66.4563 31.2 66.6563 30.9667 66.9896 30.5C67.323 30.0333 67.7063 29.5 68.1396 28.9C68.573 28.3 68.9896 27.7333 69.3896 27.2C69.7896 26.6667 70.073 26.3167 70.2396 26.15L69.9896 25.8C69.2896 26.4667 68.6396 27.25 68.0396 28.15C67.4396 29.05 66.8563 29.9833 66.2896 30.95ZM71.3396 25.55C72.4063 27.35 73.3896 29.2333 74.2896 31.2C75.1563 33.1333 75.973 35.0667 76.7397 37C76.1063 35.0667 75.3396 33.1333 74.4396 31.2C73.5063 29.2333 72.4896 27.35 71.3897 25.55H71.3396ZM78.9896 33.05C80.023 35.7167 81.0396 38.4333 82.0396 41.2C81.1063 38.5 80.123 35.8333 79.0897 33.2C78.123 30.6 77.0063 27.9833 75.7396 25.35C76.9396 27.8833 78.023 30.45 78.9896 33.05ZM71.6396 24.45C72.073 24.55 72.373 24.65 72.5397 24.75C72.7063 24.85 72.823 24.9 72.8897 24.9L72.9396 24.75C72.973 24.75 72.9063 24.7333 72.7396 24.7C72.573 24.6667 72.4396 24.6333 72.3396 24.6L72.4396 24.4L71.8397 24.2L71.6396 24.45ZM69.1897 23.95L69.5896 25L69.5397 23.95C69.473 23.95 69.3896 23.9333 69.2896 23.9C69.223 23.8667 69.1563 23.85 69.0896 23.85L69.1897 23.95ZM70.4896 25.4L70.1396 25.65L70.4396 26.05L70.7396 25.75L70.4896 25.4ZM71.1896 25.3H71.2396L70.9896 24.95V25L71.1896 25.3Z" fill="#FF4343"/>
<path d="M13.3381 79.35V77.8L13.9881 77.4C13.8881 76.8333 13.8214 76.2833 13.7881 75.75C13.7548 75.1833 13.7381 74.6167 13.7381 74.05C13.7381 73.4167 13.7381 72.8 13.7381 72.2C13.7714 71.5667 13.7881 70.9167 13.7881 70.25C13.7881 69.55 13.7548 68.85 13.6881 68.15C13.6214 67.45 13.5048 66.75 13.3381 66.05H13.0381C13.0714 67.8167 13.1214 69.55 13.1881 71.25C13.2881 72.95 13.3381 74.6833 13.3381 76.45C13.1714 73.9167 12.9714 71.3833 12.7381 68.85C12.5381 66.3167 12.4381 63.75 12.4381 61.15C12.4381 60.3833 12.4714 59.6167 12.5381 58.85C12.6381 58.05 12.7381 57.2667 12.8381 56.5L9.53809 57.35L9.58809 57.2C9.52142 57.1 9.42142 56.9167 9.28809 56.65C9.18809 56.3833 9.13809 56.2167 9.13809 56.15C9.13809 55.9833 9.30475 55.8167 9.63809 55.65C10.0048 55.45 10.4048 55.2833 10.8381 55.15C11.3048 55.0167 11.7381 54.9 12.1381 54.8C12.5714 54.7 12.8714 54.6333 13.0381 54.6L12.8881 54C12.6214 54.0667 12.0714 54.15 11.2381 54.25C10.4381 54.3167 9.62142 54.35 8.78809 54.35C8.12142 54.35 7.53809 54.3 7.03809 54.2C6.53809 54.1 6.28809 53.8833 6.28809 53.55C6.28809 53.1833 6.62142 52.8167 7.28809 52.45C7.95475 52.0833 8.80475 51.75 9.83809 51.45C10.9048 51.1167 12.0714 50.8167 13.3381 50.55C14.6048 50.2833 15.8214 50.05 16.9881 49.85C18.1548 49.65 19.2048 49.5 20.1381 49.4C21.0714 49.3 21.7214 49.25 22.0881 49.25C23.7881 49.25 25.4048 49.4667 26.9381 49.9C28.5048 50.3 29.8714 50.95 31.0381 51.85C32.2048 52.7167 33.1214 53.8333 33.7881 55.2C34.4881 56.5667 34.8381 58.1833 34.8381 60.05C34.8381 60.8167 34.7214 61.6167 34.4881 62.45C34.2548 63.25 33.8881 64.0333 33.3881 64.8C32.9214 65.5333 32.3048 66.2 31.5381 66.8C30.8048 67.4 29.9214 67.8333 28.8881 68.1C30.6214 68.3333 32.1048 68.7333 33.3381 69.3C34.6048 69.8667 35.6214 70.55 36.3881 71.35C37.1881 72.15 37.7714 73.05 38.1381 74.05C38.5048 75.05 38.6881 76.1167 38.6881 77.25C38.6881 78.7167 38.3881 79.9667 37.7881 81C37.2214 82.0333 36.4548 82.9 35.4881 83.6C34.5214 84.3 33.4214 84.8333 32.1881 85.2C30.9548 85.6 29.6714 85.9 28.3381 86.1C27.0048 86.3 25.6881 86.4167 24.3881 86.45C23.0881 86.5167 21.9048 86.55 20.8381 86.55C20.5714 86.55 20.0548 86.5333 19.2881 86.5C18.5548 86.4667 17.7881 86.4 16.9881 86.3C16.1881 86.2 15.4714 86.05 14.8381 85.85C14.2381 85.6833 13.9381 85.45 13.9381 85.15L13.9881 84.9C15.3881 85.1333 16.7881 85.3167 18.1881 85.45C19.5881 85.6167 20.9881 85.7 22.3881 85.7C23.4548 85.7 24.5048 85.6333 25.5381 85.5C26.5714 85.3667 27.6048 85.2 28.6381 85C26.7714 85.3333 24.8214 85.5 22.7881 85.5C21.3548 85.5 19.9214 85.4333 18.4881 85.3C17.0881 85.1667 15.6881 84.9833 14.2881 84.75L14.5381 84.15L14.4381 83.8C14.3381 83.8333 14.1881 83.85 13.9881 83.85C13.6548 83.85 13.2714 83.7833 12.8381 83.65C12.4048 83.5167 11.9881 83.35 11.5881 83.15C11.2214 82.95 10.9048 82.7167 10.6381 82.45C10.3714 82.1833 10.2381 81.9167 10.2381 81.65C10.2381 81.4833 10.3714 81.35 10.6381 81.25C10.9048 81.15 11.2048 81.0833 11.5381 81.05C11.9048 80.9833 12.2548 80.9333 12.5881 80.9C12.9214 80.8667 13.1548 80.8333 13.2881 80.8L13.3381 79.35ZM18.3381 55.65C18.4048 55.85 18.4714 56.2833 18.5381 56.95C18.6381 57.5833 18.7214 58.3333 18.7881 59.2C18.8881 60.0667 18.9714 61 19.0381 62C19.1048 63 19.1548 63.9667 19.1881 64.9C19.2548 65.8 19.3048 66.6167 19.3381 67.35C19.3714 68.05 19.3881 68.55 19.3881 68.85C19.3881 70.6167 19.3214 72.3833 19.1881 74.15C19.0548 75.8833 18.9881 77.6333 18.9881 79.4C18.9881 80.0667 19.2048 80.4833 19.6381 80.65C20.1048 80.8167 20.6048 80.9 21.1381 80.9C22.7381 80.9 24.3214 80.85 25.8881 80.75C27.4548 80.6167 28.9881 80.2667 30.4881 79.7L30.6381 80.3C31.3048 79.9667 31.8881 79.5667 32.3881 79.1C32.9214 78.6 33.1881 77.95 33.1881 77.15C33.1881 76.25 32.9048 75.4833 32.3381 74.85C31.7714 74.1833 31.0714 73.65 30.2381 73.25C29.4381 72.85 28.5714 72.55 27.6381 72.35C26.7381 72.15 25.9381 72.05 25.2381 72.05C25.1714 72.05 25.0381 72.1 24.8381 72.2C24.6381 72.2667 24.4881 72.3167 24.3881 72.35C24.8548 72.3833 25.4381 72.4667 26.1381 72.6C26.8381 72.7333 27.5548 72.9167 28.2881 73.15C29.0214 73.35 29.7214 73.6167 30.3881 73.95C31.0548 74.2833 31.6048 74.65 32.0381 75.05C31.4048 74.55 30.5381 74.1333 29.4381 73.8C28.3048 73.4667 27.1381 73.2 25.9381 73C24.7714 72.8 23.6881 72.65 22.6881 72.55C21.6881 72.4167 21.0048 72.3167 20.6381 72.25L20.3881 66.7H20.4881C21.3548 66.7 22.2548 66.55 23.1881 66.25C24.1548 65.9167 25.0381 65.4667 25.8381 64.9C26.6381 64.3 27.3048 63.6 27.8381 62.8C28.3714 61.9667 28.6381 61.0667 28.6381 60.1C28.6381 59.1667 28.4381 58.4 28.0381 57.8C27.6381 57.2 27.1048 56.7333 26.4381 56.4C25.8048 56.0333 25.0881 55.8 24.2881 55.7C23.4881 55.5667 22.7048 55.5 21.9381 55.5C21.3381 55.5 20.7381 55.5333 20.1381 55.6C19.5381 55.6333 18.9381 55.65 18.3381 55.65ZM19.0381 81.95C19.6048 82.0167 20.1381 82.0667 20.6381 82.1C21.1714 82.1333 21.7214 82.15 22.2881 82.15C22.8214 82.15 23.4714 82.1333 24.2381 82.1C25.0381 82.0333 25.8714 81.9333 26.7381 81.8C27.6381 81.6667 28.5214 81.4833 29.3881 81.25C30.2881 81.0167 31.0881 80.7167 31.7881 80.35C32.4881 79.9833 33.0548 79.5333 33.4881 79C33.9548 78.4667 34.1881 77.8333 34.1881 77.1C34.1881 76.7 34.1214 76.3167 33.9881 75.95C33.8548 75.5833 33.6714 75.2333 33.4381 74.9C33.6048 75.1667 33.7381 75.4667 33.8381 75.8C33.9714 76.1 34.0381 76.4167 34.0381 76.75C34.0381 77.8833 33.6548 78.7833 32.8881 79.45C32.1214 80.1167 31.1881 80.6333 30.0881 81C29.0214 81.3333 27.9048 81.55 26.7381 81.65C25.5714 81.75 24.5714 81.8 23.7381 81.8C22.9714 81.8 22.1881 81.7833 21.3881 81.75C20.6214 81.6833 19.8548 81.6167 19.0881 81.55L19.0381 81.95ZM14.5381 81.15C14.6048 79.9833 14.6381 78.8 14.6381 77.6V74.05C14.6381 73.3833 14.6214 72.7333 14.5881 72.1C14.5548 71.5 14.5048 70.9 14.4381 70.3C14.4381 71.1667 14.4381 72.0333 14.4381 72.9C14.4714 73.8 14.4881 74.7 14.4881 75.6C14.4881 76.5333 14.4714 77.45 14.4381 78.35C14.4048 79.25 14.3214 80.15 14.1881 81.05L14.5381 81.15ZM23.9881 66.85C24.5881 66.4833 25.1548 66.1 25.6881 65.7C26.2548 65.3 26.7714 64.8333 27.2381 64.3C27.0714 64.3 26.9881 64.2333 26.9881 64.1C25.9548 65.2333 24.6714 66.1167 23.1381 66.75L23.9881 66.85ZM26.5881 71.5C27.5881 71.6667 28.6548 71.9833 29.7881 72.45C30.7548 72.85 31.6214 73.3167 32.3881 73.85C31.6548 73.25 30.7881 72.7333 29.7881 72.3C28.6881 71.7667 27.6381 71.5 26.6381 71.5H26.5881ZM15.1881 56.75L15.5381 55.95L14.7381 56.05C14.7381 56.1167 14.7381 56.1833 14.7381 56.25C14.7714 56.2833 14.7881 56.3333 14.7881 56.4C14.7881 56.4667 14.7714 56.5333 14.7381 56.6C14.7381 56.6333 14.7381 56.6833 14.7381 56.75H15.1881ZM37.1381 79.6C37.4714 78.7333 37.6381 77.9167 37.6381 77.15V76.6C37.6381 76.4 37.6214 76.2167 37.5881 76.05C37.5881 77.1167 37.4714 78.1167 37.2381 79.05C37.0381 79.95 36.5881 80.8 35.8881 81.6C36.4214 81.0667 36.8381 80.4 37.1381 79.6ZM18.3881 71.4C18.2548 72.0333 18.1714 72.6667 18.1381 73.3C18.1048 73.8333 18.0881 74.3833 18.0881 74.95C18.1214 74.4167 18.1714 73.8833 18.2381 73.35C18.3048 72.7167 18.3548 72.0667 18.3881 71.4ZM35.7881 81.7C35.1548 82.3667 34.4548 82.9 33.6881 83.3C32.9214 83.7 32.1214 84.0667 31.2881 84.4C32.1548 84.1 32.9714 83.75 33.7381 83.35C34.5048 82.95 35.1881 82.4 35.7881 81.7ZM34.2381 70.5C34.5381 70.7667 34.8214 71.0333 35.0881 71.3L35.7881 72C35.5881 71.7 35.3714 71.4333 35.1381 71.2C34.9048 70.9333 34.6048 70.7 34.2381 70.5ZM18.0881 80.6V79.1C18.0548 79.3667 18.0214 79.6167 17.9881 79.85C17.9881 80.0833 17.9881 80.3333 17.9881 80.6H18.0881ZM32.1381 75.15C32.6714 75.5833 32.9381 76.1 32.9381 76.7V76.8C32.8381 76.2 32.5714 75.65 32.1381 75.15ZM31.9881 78.85C31.6881 79.15 31.3214 79.3833 30.8881 79.55L31.9881 78.85ZM17.8881 81.8H18.0881V81.45H17.8881V81.8ZM32.5881 78C32.5548 78 32.5381 77.9667 32.5381 77.9C32.5381 77.8333 32.5548 77.75 32.5881 77.65C32.6548 77.5167 32.7214 77.4167 32.7881 77.35L32.5881 78ZM32.9381 77.1C32.9381 77.1333 32.9048 77.1833 32.8381 77.25L32.9381 77.05V77.1Z" fill="#3EB3FC"/>
<path d="M103.957 96.7C103.891 97.5333 103.557 98.2667 102.957 98.9C102.391 99.5 101.674 100.017 100.807 100.45C99.9741 100.85 99.0741 101.15 98.1074 101.35C97.1741 101.55 96.3241 101.65 95.5574 101.65C93.2908 101.65 91.2574 101.117 89.4574 100.05C87.6574 98.95 86.1241 97.55 84.8574 95.85C83.5908 94.1167 82.5908 92.2 81.8574 90.1C81.1574 88.0667 80.7574 86.0667 80.6574 84.1C80.7241 86.1333 81.1074 88.1833 81.8074 90.25C82.5408 92.3833 83.5408 94.3167 84.8074 96.05C86.0741 97.7833 87.6241 99.2 89.4574 100.3C91.2908 101.367 93.3574 101.9 95.6574 101.9C96.9241 101.9 98.1574 101.7 99.3574 101.3C100.557 100.9 101.674 100.35 102.707 99.65C101.941 100.817 100.924 101.65 99.6574 102.15C98.3908 102.65 97.0908 102.9 95.7574 102.9C94.2574 102.9 92.8741 102.683 91.6074 102.25C90.3408 101.85 89.1074 101.2 87.9074 100.3L87.7074 99.5C86.3408 98.6667 85.1574 97.6333 84.1574 96.4C83.1908 95.1667 82.3908 93.8333 81.7574 92.4C81.1574 90.9667 80.7074 89.4667 80.4074 87.9C80.1408 86.3333 80.0074 84.7667 80.0074 83.2C80.0074 81.5333 80.1574 79.8833 80.4574 78.25C80.7908 76.5833 81.2408 74.95 81.8074 73.35C81.6741 73.35 81.6074 73.3 81.6074 73.2C80.9074 74.7333 80.3908 76.3167 80.0574 77.95C79.7241 79.5833 79.5574 81.25 79.5574 82.95C79.5574 86.1833 80.1908 89.3 81.4574 92.3C82.7241 95.2667 84.6074 97.7833 87.1074 99.85C85.8074 98.85 84.6574 97.7 83.6574 96.4C82.6908 95.1 81.8908 93.7167 81.2574 92.25C80.6241 90.75 80.1408 89.2 79.8074 87.6C79.5074 86 79.3574 84.3833 79.3574 82.75C79.3574 80.55 79.6574 78.3167 80.2574 76.05C80.8908 73.75 81.8241 71.6667 83.0574 69.8C84.3241 67.9333 85.8908 66.4167 87.7574 65.25C89.6241 64.05 91.8074 63.45 94.3074 63.45C95.4408 63.45 96.5074 63.6333 97.5074 64C98.5408 64.3667 99.5074 64.85 100.407 65.45C101.307 66.05 102.141 66.7333 102.907 67.5C103.707 68.2667 104.457 69.05 105.157 69.85L104.107 70.75C103.641 70.5833 103.191 70.3333 102.757 70C102.357 69.6333 101.991 69.2667 101.657 68.9L101.357 69.25C101.791 69.75 102.191 70.3333 102.557 71C102.924 71.6333 103.107 72.3 103.107 73L102.557 73.9C102.124 73.8667 101.574 73.6167 100.907 73.15C100.274 72.65 99.5574 72.1333 98.7574 71.6C97.9908 71.0333 97.1908 70.5167 96.3574 70.05C95.5574 69.5833 94.7741 69.35 94.0074 69.35C93.0074 69.35 92.1074 69.6 91.3074 70.1C90.5408 70.6 89.8408 71.25 89.2074 72.05C88.5741 72.85 88.0241 73.7667 87.5574 74.8C87.1241 75.8333 86.7574 76.8833 86.4574 77.95C86.1908 79.0167 85.9741 80.0667 85.8074 81.1C85.6741 82.1 85.6074 82.9833 85.6074 83.75C85.6074 85.05 85.8074 86.4833 86.2074 88.05C86.6408 89.6167 87.2574 91.0833 88.0574 92.45C88.8908 93.7833 89.9074 94.9 91.1074 95.8C92.3074 96.7 93.6741 97.15 95.2074 97.15C95.9074 97.15 96.6241 97.0833 97.3574 96.95C98.1241 96.7833 98.8074 96.5167 99.4074 96.15L99.8074 96.6C98.5408 97.5667 97.0908 98.05 95.4574 98.05C93.8574 98.05 92.3908 97.6667 91.0574 96.9C91.6908 97.3333 92.3908 97.65 93.1574 97.85C93.9908 98.0833 94.8241 98.2 95.6574 98.2C97.1908 98.2 98.6241 97.7667 99.9574 96.9L100.407 97.55C100.741 97.1833 101.157 96.8333 101.657 96.5C102.157 96.1333 102.674 95.9167 103.207 95.85L103.957 96.7ZM84.8574 86.65C85.0241 88.5833 85.5908 90.4333 86.5574 92.2C87.5241 93.9333 88.7908 95.3333 90.3574 96.4C88.7908 95.3 87.5574 93.8833 86.6574 92.15C85.7241 90.3833 85.1241 88.55 84.8574 86.65Z" fill="#FD03E4"/>
</svg>
