<svg width="63" height="63" viewBox="0 0 63 63" fill="none" xmlns="http://www.w3.org/2000/svg">
<path d="M1.95592 23.6424C1.95592 23.6424 -2.896 33.9805 4.26994 45.3526C11.7344 57.2415 13.9736 60.6875 18.0791 60.9461C22.1845 61.2045 23.0131 59.5088 24.3524 59.5489C25.6917 59.5892 26.8124 60.903 29.9102 60.7738C33.008 60.6446 36.2922 58.9646 42.7863 48.1956C49.2804 37.4266 48.1606 28.0362 45.8468 22.4363C43.5327 16.8364 38.681 11.9257 29.9477 14.1658C24.4987 15.2857 20.0201 14.5103 16.5865 13.9074C13.1525 13.3041 6.13601 13.6488 1.95592 23.6424Z" fill="#EB203B"/>
<path d="M18.9052 61.07C18.644 61.07 18.3675 61.0612 18.0745 61.0428C14.0177 60.7872 11.85 57.5906 4.20188 45.4092C0.485016 39.5104 0.0513006 33.8957 0.342006 30.2238C0.653192 26.2942 1.83944 23.6884 1.88092 23.598C6.23283 13.1958 13.6232 13.288 16.599 13.8108C19.9198 14.3939 24.4675 15.1933 29.9327 14.0698C39.807 11.5373 44.1888 18.1982 45.9226 22.3942C46.8834 24.7194 47.9723 28.5133 47.7034 33.3835C47.428 38.3707 45.7971 43.3729 42.8553 48.2507C36.6328 58.5693 33.29 60.7295 29.9131 60.8705C27.9665 60.9508 26.798 60.4693 25.8602 60.0819C25.3132 59.8557 24.8408 59.6602 24.3501 59.6456C23.8921 59.6324 23.4874 59.8339 22.9763 60.0897C22.1349 60.5108 21.0168 61.07 18.9052 61.07ZM14.491 13.8234C10.9837 13.8234 5.52212 15.34 2.03174 23.6846L2.03001 23.6886C2.01803 23.7142 0.819632 26.3079 0.508967 30.2506C0.222427 33.8867 0.65406 39.4487 4.33813 45.2952C11.9489 57.4171 14.1039 60.5981 18.0837 60.8489C20.7056 61.0145 21.9792 60.3767 22.9093 59.9114C23.4397 59.6462 23.8586 59.4411 24.3545 59.4515C24.872 59.4671 25.3564 59.6672 25.9172 59.899C26.8414 60.2812 27.9924 60.7569 29.907 60.6764C33.232 60.5378 36.5346 58.3923 42.7172 48.1401C45.6409 43.2915 47.2619 38.3226 47.5354 33.3713C47.802 28.5427 46.723 24.7823 45.7707 22.4779C44.0586 18.3344 39.7298 11.7562 29.9659 14.2607C24.469 15.3903 19.9059 14.5886 16.5738 14.0033C16.0186 13.9057 15.3074 13.8234 14.491 13.8234Z" fill="#B50F46"/>
<path d="M44.808 43.9832C43.7394 45.9602 42.5712 47.8764 41.2321 49.6236C39.9512 51.2946 38.4061 52.7396 36.6653 53.7233C34.9999 54.6644 33.152 55.1502 31.2958 55.0047C29.4659 54.8615 27.648 54.1386 26.1536 52.9083C24.7023 51.7134 23.5535 50.0957 22.5577 48.4058C22.0471 47.5395 21.5726 46.6455 21.1081 45.7455C20.606 44.7728 20.1093 43.7973 19.6614 42.7895C18.7419 40.7219 17.9963 38.5495 17.4888 36.2992C16.9747 34.0192 16.708 31.67 16.6743 29.3149C16.6589 28.2354 16.7101 27.1622 16.7862 26.0867C16.8588 25.0627 16.9633 24.0385 17.1609 23.0355C17.5532 21.0452 18.3673 19.0655 20.0349 18.1359C21.6904 17.2129 23.5499 17.7182 25.2802 18.0029C26.9596 18.2791 28.7673 18.3402 30.3553 17.5462C31.8266 16.8104 32.9615 15.4641 34.171 14.2937C34.4139 14.0585 34.6698 13.8414 34.9356 13.6433C33.4344 13.5443 31.7771 13.6962 29.9473 14.1655C24.4984 15.2855 20.0196 14.51 16.586 13.9071C13.1523 13.304 6.13583 13.6487 1.95574 23.6423C1.95574 23.6423 -2.89618 33.9804 4.26976 45.3525C11.734 57.2414 13.9734 60.6874 18.0789 60.946C22.1843 61.2044 23.0127 59.5088 24.3522 59.5488C25.6916 59.5891 26.8122 60.9029 29.91 60.7737C33.0076 60.6445 36.292 58.9645 42.7861 48.1955C43.9885 46.2016 44.9293 44.2552 45.6505 42.371C45.3761 42.9127 45.0958 43.4505 44.808 43.9832Z" fill="#C10C2A"/>
<path d="M33.9484 58.7061C32.5317 58.9665 31.0787 58.8086 29.7213 58.278C28.9724 57.9851 28.2017 57.6083 27.5482 57.0887C26.9293 56.5968 26.4376 55.9247 25.821 55.429C25.0846 54.837 24.1809 54.6169 23.3235 54.9664C22.5064 55.2996 21.7961 55.9271 20.9351 56.1246C19.5645 56.4393 18.1033 56.1527 16.857 55.4488C15.5734 54.7239 14.4948 53.5843 13.5858 52.3263C12.6103 50.976 11.8043 49.4709 11.0863 47.9235C10.3905 46.4235 9.80528 44.8675 9.17909 43.3291C8.24675 41.0387 7.55878 38.6105 7.20646 36.1105C6.86733 33.7041 6.8439 31.2423 7.14485 28.8287C7.304 27.5523 7.55218 26.2914 7.88055 25.0588C8.15997 24.01 8.49494 22.9914 8.95052 22.0267C9.66071 20.5232 10.638 19.2009 11.8761 18.2464C13.0699 17.3262 14.4378 16.7721 15.8393 16.4508C17.2071 16.1371 18.6141 16.0061 20.0074 16.0204C21.1097 16.0316 22.2131 16.0254 23.3119 15.9132C24.4949 15.7924 25.7424 15.5779 26.8144 14.9553C27.0081 14.8427 27.1976 14.7145 27.3759 14.5687C23.075 15.0378 19.4637 14.4122 16.5865 13.9071C13.1528 13.3039 6.13632 13.6487 1.95623 23.6422C1.95623 23.6422 -2.8957 33.9803 4.27024 45.3525C11.7345 57.2414 13.9739 60.6873 18.0794 60.946C22.1848 61.2044 23.0132 59.5087 24.3527 59.5488C25.692 59.589 26.8127 60.9029 29.9105 60.7737C31.4866 60.708 33.1114 60.2398 35.1824 58.3779C34.7789 58.5158 34.3686 58.6287 33.9484 58.7061Z" fill="#C10C2A"/>
<path opacity="0.56" d="M21.306 15.1951C21.306 15.1951 23.1476 16.5235 26.5814 15.0623C25.8523 16.8557 21.9198 17.1878 21.306 15.1951Z" fill="#EB203B"/>
<path d="M35.9508 16.4423C35.9508 16.4423 43.3527 19.9664 43.5377 31.7129C43.4452 35.5573 48.4962 33.297 45.9434 24.8785C42.705 14.1998 33.0826 13.4523 35.9508 16.4423Z" fill="#F44563"/>
<path d="M37.4312 16.2684C37.4312 16.2684 41.5023 17.7635 43.2603 23.7436C44.093 26.9472 46.1482 24.5352 43.4453 20.4332C39.8459 14.9703 35.8887 15.3734 37.4312 16.2684Z" fill="white"/>
<path d="M25.477 15.2627C25.477 15.4963 24.6502 15.6858 23.6304 15.6858C22.6106 15.6858 21.7838 15.4965 21.7838 15.2627C21.7838 15.0291 22.6106 15.1373 23.6304 15.1373C24.6502 15.1373 25.477 15.0291 25.477 15.2627Z" fill="#C10C2A"/>
<path d="M26.6183 14.9426C25.7792 15.3925 24.8829 15.5067 23.9673 15.5307C23.0642 15.5545 22.0857 15.603 21.266 15.0914C21.2343 15.0716 21.1654 15.1657 21.1935 15.1876C21.9733 15.7939 22.9316 15.7761 23.8359 15.7763C24.7729 15.7767 25.7774 15.7583 26.5947 15.1601C26.6499 15.1199 26.7506 14.8717 26.6183 14.9426Z" fill="#C10C2A"/>
<path d="M24.6292 15.6446C24.6292 15.6446 24.2983 9.11182 27.4759 5.90282C28.7337 4.68031 29.3626 4.48941 29.6275 4.10722C29.8923 3.72522 28.6675 2.57904 27.5422 1.77679C26.4169 0.974536 25.6223 0.783439 25.6223 1.35653C25.6223 1.92962 25.0928 4.26006 24.7948 5.02405C24.4968 5.78804 23.0737 9.07355 23.4046 15.6444L24.6292 15.6446Z" fill="#D96F3E"/>
<path d="M24.6292 15.7417H23.3249L23.3203 15.6502C23.1085 11.4464 23.5651 7.89229 24.6775 5.08632L24.7177 4.98416C25.0166 4.21737 25.538 1.91198 25.538 1.35651C25.538 1.14538 25.6294 1.04202 25.706 0.992744C26.005 0.800044 26.6902 1.05544 27.5861 1.69404C28.3447 2.23488 29.6523 3.31056 29.7425 3.91309C29.7613 4.03749 29.7257 4.12022 29.6929 4.16769C29.569 4.34637 29.3824 4.47878 29.0998 4.67869C28.7359 4.93609 28.2374 5.28904 27.5299 5.97691C24.4216 9.116 24.7099 15.5737 24.7132 15.6386L24.7184 15.7413H24.6292V15.7417ZM23.4839 15.5474H24.5416C24.518 14.6973 24.4669 8.81233 27.4203 5.82988C28.1387 5.13139 28.6436 4.77404 29.0118 4.51343C29.2793 4.32413 29.456 4.19894 29.5615 4.0467C29.5723 4.03128 29.5854 4.00424 29.5768 3.94675C29.519 3.56054 28.6252 2.66355 27.4977 1.8599C26.5199 1.16261 25.9661 1.04863 25.788 1.16281C25.753 1.18544 25.7063 1.23011 25.7063 1.35691C25.7063 1.9276 25.1756 4.28367 24.8713 5.06429L24.8305 5.16745C23.738 7.92374 23.285 11.4158 23.4839 15.5474Z" fill="#B7481D"/>
<path opacity="0.6" d="M24.6303 14.4815C24.5206 14.5238 24.4109 14.4885 24.3154 14.3735C24.1789 14.2093 24.1542 13.9635 24.1376 13.7471C24.0827 13.0378 24.1238 12.3313 24.2391 11.6319C24.3665 10.8598 24.5891 10.1103 24.7033 9.33608C24.8092 8.61936 24.8262 7.88461 24.9949 7.18072C25.1129 6.68855 25.2988 6.2094 25.5428 5.78334C25.7763 5.37591 26.0868 4.9839 26.4882 4.79961C26.7069 4.69925 26.938 4.68904 27.1708 4.69104C27.4582 4.69344 27.7449 4.72289 28.0316 4.74432C28.2984 4.76435 28.5657 4.77457 28.8326 4.75534C29.2323 4.46589 29.4839 4.31365 29.6275 4.10673C29.8923 3.72473 28.6675 2.57855 27.5422 1.7763C26.4169 0.974048 25.6223 0.78295 25.6223 1.35604C25.6223 1.92914 25.0928 4.25957 24.7948 5.02356C24.4968 5.78755 23.0737 9.07307 23.4046 15.6439H24.6294C24.6292 15.6445 24.607 15.1966 24.6303 14.4815Z" fill="#D96F3E"/>
<path opacity="0.6" d="M23.881 15.0819C23.8005 14.9135 23.7759 14.7129 23.7663 14.5236C23.7503 14.2019 23.7632 13.878 23.7528 13.5557C23.7278 12.7801 23.6872 12.0081 23.7335 11.2323C23.7774 10.496 23.8791 9.76483 24.0213 9.04531C24.1669 8.30836 24.3522 7.58003 24.5556 6.86191C24.7431 6.20008 24.9253 5.51922 25.1784 4.88603C25.3847 4.36943 25.6976 3.80615 26.2162 3.67955C26.7291 3.55436 27.273 3.81296 27.7466 4.01427C28.1739 4.19596 28.6042 4.38064 29.0587 4.44715C29.1174 4.45576 29.1773 4.46197 29.2375 4.46618C29.4128 4.33818 29.5403 4.23261 29.6273 4.10722C29.8921 3.72522 28.6673 2.57904 27.542 1.77679C26.4167 0.974536 25.6221 0.783439 25.6221 1.35653C25.6221 1.92962 25.0926 4.26006 24.7946 5.02405C24.4966 5.78804 23.0735 9.07355 23.4044 15.6444H24.6292C24.6292 15.6444 24.6259 15.5767 24.6233 15.4543C24.338 15.4507 24.0313 15.3962 23.881 15.0819Z" fill="#D96F3E"/>
<path d="M27.542 1.77676C26.4605 1.00576 25.6868 0.801444 25.6278 1.29501C25.6649 1.49813 25.7785 1.75373 26.0112 2.07623C26.8627 3.25567 28.9032 4.35298 29.6312 4.09718C29.8711 3.70657 28.6586 2.5728 27.542 1.77676Z" fill="#F2A283"/>
<path d="M29.3815 4.23127C28.4667 4.23147 26.7094 3.19506 25.9468 2.13861C25.7242 1.83033 25.5893 1.5535 25.5457 1.31553L25.5428 1.2991L25.5447 1.28228C25.5614 1.14286 25.6256 1.0389 25.7306 0.981809C26.0395 0.814548 26.7152 1.07395 27.5862 1.69472C28.3356 2.22915 29.6323 3.29441 29.7387 3.89955C29.756 3.99831 29.7432 4.08384 29.7 4.15395L29.6833 4.18099L29.6557 4.19061C29.5767 4.21805 29.4844 4.23127 29.3815 4.23127ZM25.7136 1.29229C25.755 1.49541 25.8769 1.73819 26.0759 2.01382C26.9246 3.18925 28.883 4.20363 29.5738 4.01453C29.5781 3.99811 29.58 3.97347 29.5738 3.93761C29.5038 3.5412 28.6309 2.66724 27.4977 1.85938C26.5446 1.17972 25.997 1.05092 25.8024 1.15668C25.753 1.18392 25.7245 1.22719 25.7136 1.29229Z" fill="#B7481D"/>
<g opacity="0.6">
<path d="M27.575 2.03386C26.8394 1.50944 26.3132 1.37042 26.2731 1.70615C26.2985 1.84436 26.3755 2.01803 26.534 2.23737C27.1131 3.03942 28.5009 3.78579 28.996 3.61192C29.159 3.3463 28.3343 2.5753 27.575 2.03386Z" fill="#D96F3E"/>
</g>
<path d="M25.8815 3.36397C24.8032 5.48467 24.1192 7.92688 24.0435 10.3937C24.0407 10.4841 24.1735 10.3521 24.1778 10.2924C24.3576 7.85917 24.9111 5.50951 25.9318 3.36176C25.9571 3.30808 25.896 3.33532 25.8815 3.36397Z" fill="#B7481D"/>
<path d="M26.4344 3.88744C25.8658 5.12277 25.1263 6.26976 24.8519 7.65732C24.7021 8.4149 24.6799 9.19832 24.5534 9.96131C24.4225 10.7505 24.2309 11.5235 24.0626 12.3026C24.0419 12.3983 24.1592 12.2947 24.1719 12.2473C24.3713 11.5019 24.5508 10.7479 24.6828 9.98234C24.8121 9.23317 24.8436 8.46758 24.9737 7.71941C25.2155 6.32925 25.9402 5.12597 26.4817 3.87583C26.5038 3.82455 26.4458 3.8624 26.4344 3.88744Z" fill="#B7481D"/>
<path d="M26.7735 4.58971C26.1187 5.5468 25.3941 6.65252 25.4283 7.93672C25.4305 8.02286 25.55 7.89626 25.5524 7.84238C25.6105 6.60124 26.2162 5.59487 26.8145 4.61094C26.8459 4.55926 26.8013 4.54904 26.7735 4.58971Z" fill="#B7481D"/>
<path d="M28.3105 4.14547C27.928 4.64385 27.4509 5.02844 27.0099 5.4521C26.6107 5.8355 26.2181 6.27859 26.038 6.85349C26.0079 6.94924 26.1329 6.85269 26.149 6.81383C26.3852 6.24274 26.7711 5.81607 27.1933 5.42586C27.6118 5.03926 28.0451 4.68351 28.3527 4.1675C28.3851 4.11282 28.3402 4.10661 28.3105 4.14547Z" fill="#B7481D"/>
<path d="M23.8637 11.8261C23.8887 10.9203 23.9307 10.0155 24.0004 9.1127C24.0018 9.09407 23.9718 9.12352 23.9704 9.13634C23.8731 10.05 23.8043 10.9684 23.779 11.8886C23.7667 12.3371 23.7613 12.7858 23.7632 13.2343C23.7651 13.6956 23.7632 14.1612 23.8028 14.6207C23.8066 14.6652 23.8656 14.6003 23.8658 14.5728C23.8705 14.1059 23.8498 13.6388 23.8479 13.1718C23.846 12.7233 23.8512 12.2746 23.8637 11.8261Z" fill="#B7481D"/>
<path d="M24.4328 12.349C24.4368 12.3282 24.4111 12.3512 24.4088 12.362C24.2356 13.2039 24.1835 14.0837 24.2984 14.9408C24.3012 14.9617 24.3456 14.919 24.3437 14.9C24.2592 14.047 24.2745 13.1897 24.4328 12.349Z" fill="#B7481D"/>
<path d="M25.2492 7.54208C25.1709 8.24918 25.1261 8.9649 25.0288 9.66859C24.9345 10.3499 24.6907 10.9624 24.4623 11.5934C24.4383 11.6595 24.5086 11.6152 24.5228 11.5822C24.7908 10.9618 25.0209 10.3178 25.1124 9.62913C25.2051 8.93044 25.2403 8.21833 25.2851 7.51384C25.2865 7.4908 25.2509 7.52686 25.2492 7.54208Z" fill="#B7481D"/>
<path d="M27.5474 3.85723C27.2803 4.46377 26.9184 4.99981 26.4849 5.45953C26.4613 5.48456 26.4592 5.53584 26.4967 5.50019C26.9639 5.0585 27.3369 4.483 27.5856 3.84882C27.602 3.80695 27.5564 3.8366 27.5474 3.85723Z" fill="#B7481D"/>
<path d="M26.3823 3.07785C26.1244 3.70002 25.8542 4.31538 25.584 4.93033C25.5546 4.99704 25.632 4.95337 25.6482 4.91872C25.93 4.31578 26.1841 3.69701 26.4214 3.06923C26.4375 3.02637 26.3913 3.05601 26.3823 3.07785Z" fill="#B7481D"/>
<path d="M29.0139 3.66439C28.6988 3.58266 28.4023 3.4779 28.1123 3.31124C27.839 3.15419 27.5715 2.97832 27.3101 2.79624C27.0554 2.61896 26.8054 2.42365 26.6003 2.17286C26.3958 1.92287 26.2639 1.63443 26.1822 1.30611C26.1775 1.28748 26.1454 1.32755 26.147 1.34257C26.2242 2.03445 26.7652 2.54144 27.2461 2.88137C27.5165 3.07247 27.7937 3.25795 28.0776 3.42121C28.3546 3.58026 28.6538 3.73229 28.9667 3.74712C28.9912 3.74812 29.0476 3.6732 29.0139 3.66439Z" fill="#B7481D"/>
<path d="M28.3965 3.22181C28.2713 3.11564 28.12 3.04453 27.9823 2.9628C27.8418 2.87927 27.7005 2.79755 27.5592 2.71582C27.3305 2.58341 27.0903 2.45642 26.9275 2.21965C26.9214 2.21103 26.899 2.23888 26.9051 2.24949C27.0504 2.50709 27.2836 2.66033 27.5122 2.80296C27.6505 2.88929 27.7887 2.97542 27.9277 3.06016C28.0639 3.14309 28.1989 3.24204 28.3447 3.30053C28.3671 3.30934 28.4188 3.24084 28.3965 3.22181Z" fill="#B7481D"/>
<path d="M28.3844 2.7543C27.9372 2.45083 27.4764 2.17961 27.0045 1.93122C26.9896 1.92341 26.9561 1.97529 26.9698 1.9833C27.4321 2.25392 27.8879 2.54437 28.3322 2.85305C28.7159 3.11947 29.0552 3.41753 29.3228 3.83599C29.3395 3.86223 29.4004 3.78751 29.3876 3.76067C29.1712 3.30696 28.7607 3.0095 28.3844 2.7543Z" fill="#B7481D"/>
<path d="M27.4959 2.00208C27.3888 1.89631 27.2592 1.8268 27.1271 1.77212C26.99 1.71543 26.8463 1.68658 26.7012 1.67677C26.6882 1.67597 26.6623 1.71603 26.6769 1.71843C26.8126 1.74027 26.9447 1.78334 27.0726 1.84002C27.2052 1.89872 27.3265 1.98285 27.4494 2.06397C27.4693 2.07719 27.5139 2.0199 27.4959 2.00208Z" fill="#B7481D"/>
<path d="M28.0712 5.09106C27.0682 5.87589 26.1489 6.85101 25.5579 8.08533C25.2796 8.66683 25.0631 9.28219 24.8858 9.91338C24.7143 10.5237 24.5079 11.2058 24.4927 11.8524C24.4899 11.9722 24.6391 11.8169 24.653 11.7767C24.8516 11.2018 24.9423 10.5736 25.097 9.98148C25.266 9.33468 25.4755 8.69608 25.7561 8.10216C26.3273 6.89367 27.2192 6.0744 28.0768 5.15416C28.0972 5.13193 28.1215 5.0516 28.0712 5.09106Z" fill="#D96F3E"/>
<path d="M24.5299 13.0558C24.5405 12.7449 24.5654 12.4342 24.5994 12.1257C24.6032 12.0909 24.57 12.1019 24.5549 12.1091C24.5272 12.1223 24.505 12.161 24.4958 12.1922C24.3974 12.5225 24.3364 12.8615 24.3153 13.21C24.2951 13.5399 24.2915 13.8795 24.3609 14.2022C24.3732 14.259 24.4459 14.214 24.4668 14.1965C24.5072 14.1625 24.5511 14.1002 24.5501 14.0391C24.545 13.711 24.5187 13.3843 24.5299 13.0558Z" fill="#D96F3E"/>
<path d="M45.6902 27.4139C45.7839 28.2433 45.4627 28.9757 44.9725 29.0494C44.4824 29.1231 44.0091 28.5106 43.9154 27.6809C43.8217 26.8514 44.1429 26.119 44.6331 26.0453C45.1232 25.9716 45.5965 26.5844 45.6902 27.4139Z" fill="white"/>
<path d="M26.7144 59.1386C23.152 56.8322 22.7176 60.0412 17.9388 60.0412C14.6848 60.0412 9.33927 53.1781 6.48029 48.8618C12.2307 57.937 14.4097 60.7151 18.079 60.946C22.1845 61.2044 23.013 59.5088 24.3524 59.5489C25.6917 59.5891 26.8123 60.903 29.9101 60.7738C32.0752 60.6834 34.3316 59.8347 37.7113 55.6556C34.1794 59.4515 29.9025 61.2028 26.7144 59.1386Z" fill="#C10C2A"/>
<path d="M24.9411 15.7414C24.5339 15.8371 24.1271 15.9255 23.7101 15.9275C23.2763 15.9295 22.8468 15.8519 22.4266 15.733C22.3752 15.7183 22.2713 15.8646 22.3336 15.8956C23.108 16.2814 24.0858 16.3255 24.873 15.9637C24.9201 15.9421 24.9666 15.8852 24.981 15.8289C24.9899 15.7929 24.9918 15.7296 24.9411 15.7414Z" fill="#F44563"/>
<path d="M29.1225 38.8717C29.1225 38.8717 25.6025 45.3747 30.8013 52.5281C36.2167 60.0067 37.8412 62.1743 40.8197 62.3369C43.7982 62.4995 44.3993 61.4329 45.371 61.4581C46.3426 61.4834 47.1556 62.3099 49.4031 62.2286C51.6505 62.1473 54.0331 61.0905 58.7445 54.3165C63.456 47.5425 62.6436 41.6356 60.9649 38.113C59.2861 34.5905 55.7662 31.5015 49.4303 32.9106C45.4771 33.6151 42.2279 33.1274 39.7369 32.7481C37.2455 32.3686 32.1551 32.5854 29.1225 38.8717Z" fill="#EB203B"/>
<path d="M41.4191 62.415C41.2296 62.415 41.029 62.4095 40.8164 62.3979C37.8732 62.2371 36.3006 60.2264 30.752 52.5639C28.0554 48.8534 27.7408 45.3215 27.9517 43.0117C28.1774 40.54 29.038 38.9008 29.0681 38.844C32.2254 32.3006 37.587 32.3586 39.7459 32.6875C42.1551 33.0543 45.4544 33.5571 49.4194 32.8504C56.5831 31.2573 59.7621 35.4473 61.0199 38.0867C61.717 39.5493 62.507 41.9358 62.3119 44.9993C62.1121 48.1364 60.9289 51.2829 58.7947 54.3512C54.2803 60.842 51.8551 62.2008 49.4052 62.2895C47.993 62.3401 47.1452 62.0372 46.4649 61.7935C46.068 61.6512 45.7253 61.5282 45.3693 61.519C45.037 61.5107 44.7434 61.6375 44.3726 61.7984C43.7622 62.0632 42.951 62.415 41.4191 62.415ZM38.2166 32.6954C35.6721 32.6954 31.7098 33.6494 29.1776 38.8984L29.1763 38.9009C29.1676 38.917 28.2982 40.5485 28.0728 43.0286C27.8649 45.3158 28.1781 48.8146 30.8508 52.4922C36.3723 60.1173 37.9358 62.1182 40.8231 62.2759C42.7253 62.3801 43.6492 61.9789 44.324 61.6862C44.7088 61.5194 45.0127 61.3904 45.3725 61.3969C45.7479 61.4068 46.0994 61.5326 46.5062 61.6784C47.1767 61.9188 48.0117 62.2181 49.4008 62.1674C51.813 62.0803 54.209 60.7306 58.6944 54.2817C60.8156 51.2318 61.9916 48.1062 62.19 44.9916C62.3834 41.9543 61.6006 39.5889 60.9098 38.1393C59.6676 35.533 56.5271 31.395 49.4435 32.9705C45.4556 33.681 42.1451 33.1767 39.7277 32.8085C39.3249 32.7472 38.8089 32.6954 38.2166 32.6954Z" fill="#B50F46"/>
<path d="M60.2113 51.6668C59.4361 52.9105 58.5885 54.1158 57.617 55.2148C56.6878 56.2659 55.5668 57.1749 54.3039 57.7937C53.0956 58.3857 51.755 58.6912 50.4084 58.5998C49.0807 58.5097 47.7619 58.0549 46.6777 57.281C45.6248 56.5294 44.7914 55.5118 44.0689 54.4488C43.6985 53.9039 43.3542 53.3415 43.0173 52.7754C42.653 52.1635 42.2926 51.5499 41.9677 50.916C41.3006 49.6154 40.7597 48.2489 40.3915 46.8334C40.0185 45.3992 39.825 43.9214 39.8006 42.44C39.7894 41.761 39.8265 41.0859 39.8818 40.4094C39.9344 39.7652 40.0102 39.121 40.1536 38.4901C40.4382 37.2381 41.0289 35.9928 42.2386 35.4081C43.4397 34.8274 44.7887 35.1453 46.0441 35.3244C47.2624 35.4982 48.5739 35.5366 49.726 35.0371C50.7934 34.5743 51.6167 33.7274 52.4942 32.9912C52.6705 32.8433 52.8561 32.7067 53.049 32.5821C51.9599 32.5198 50.7575 32.6153 49.43 32.9106C45.4769 33.615 42.2275 33.1273 39.7365 32.748C37.2454 32.3686 32.155 32.5855 29.1224 38.8718C29.1224 38.8718 25.6024 45.3748 30.8012 52.5282C36.2165 60.0067 37.8411 62.1743 40.8196 62.337C43.7981 62.4995 44.399 61.4329 45.3708 61.4581C46.3425 61.4835 47.1555 62.3099 49.4029 62.2286C51.6502 62.1474 54.033 61.0906 58.7444 54.3165C59.6168 53.0623 60.2993 51.8379 60.8225 50.6528C60.6234 50.9935 60.4201 51.3318 60.2113 51.6668Z" fill="#C10C2A"/>
<path d="M52.3328 60.9279C51.305 61.0917 50.2508 60.9924 49.2661 60.6586C48.7228 60.4744 48.1636 60.2374 47.6895 59.9106C47.2405 59.6011 46.8838 59.1784 46.4364 58.8665C45.9022 58.4942 45.2466 58.3557 44.6245 58.5756C44.0317 58.7851 43.5164 59.1799 42.8917 59.3041C41.8974 59.5021 40.8373 59.3217 39.9331 58.879C39.0019 58.423 38.2193 57.7061 37.5599 56.9148C36.8522 56.0655 36.2674 55.1187 35.7465 54.1453C35.2418 53.2018 34.8172 52.223 34.3629 51.2553C33.6865 49.8146 33.1874 48.2872 32.9318 46.7145C32.6857 45.2009 32.6687 43.6523 32.8871 42.1341C33.0025 41.3312 33.1826 40.538 33.4208 39.7627C33.6235 39.103 33.8665 38.4622 34.1971 37.8554C34.7123 36.9096 35.4213 36.0779 36.3196 35.4775C37.1856 34.8986 38.178 34.5501 39.1948 34.348C40.1871 34.1507 41.2079 34.0683 42.2187 34.0772C43.0184 34.0843 43.8189 34.0804 44.6161 34.0098C45.4743 33.9338 46.3794 33.7989 47.1572 33.4073C47.2977 33.3364 47.4352 33.2558 47.5645 33.1641C44.4442 33.4592 41.8242 33.0657 39.7369 32.7479C37.2458 32.3685 32.1554 32.5853 29.1228 38.8716C29.1228 38.8716 25.6027 45.3746 30.8016 52.5281C36.2168 60.0066 37.8415 62.1742 40.82 62.3369C43.7984 62.4994 44.3994 61.4328 45.3712 61.458C46.3429 61.4833 47.1559 62.3098 49.4033 62.2285C50.5467 62.1872 51.7255 61.8927 53.228 60.7215C52.9353 60.8082 52.6376 60.8793 52.3328 60.9279Z" fill="#C10C2A"/>
<path opacity="0.56" d="M43.1608 33.5581C43.1608 33.5581 44.4969 34.3938 46.9881 33.4746C46.4591 34.6027 43.6062 34.8116 43.1608 33.5581Z" fill="#EB203B"/>
<path d="M53.7854 34.3428C53.7854 34.3428 59.1555 36.5595 59.2897 43.9485C59.2226 46.3667 62.8871 44.9449 61.035 39.6494C58.6856 32.9322 51.7046 32.4619 53.7854 34.3428Z" fill="#F44563"/>
<path d="M54.8595 34.2333C54.8595 34.2333 57.8131 35.1737 59.0884 38.9354C59.6926 40.9506 61.1836 39.4334 59.2227 36.8531C56.6114 33.4168 53.7404 33.6703 54.8595 34.2333Z" fill="white"/>
<path d="M46.1869 33.6007C46.1869 33.7476 45.587 33.8668 44.8472 33.8668C44.1073 33.8668 43.5074 33.7478 43.5074 33.6007C43.5074 33.4538 44.1073 33.5218 44.8472 33.5218C45.587 33.5218 46.1869 33.4538 46.1869 33.6007Z" fill="#C10C2A"/>
<path d="M47.0149 33.3993C46.4061 33.6823 45.7559 33.7541 45.0916 33.7693C44.4365 33.7843 43.7266 33.8148 43.1319 33.4929C43.1088 33.4805 43.0589 33.5397 43.0792 33.5534C43.645 33.9348 44.3403 33.9236 44.9963 33.9237C45.6761 33.924 46.4049 33.9124 46.9978 33.5362C47.0378 33.5108 47.1109 33.3547 47.0149 33.3993Z" fill="#C10C2A"/>
<path d="M45.5718 33.8411C45.5718 33.8411 45.3317 29.7317 47.637 27.7132C48.5495 26.9442 49.0058 26.8241 49.198 26.5837C49.3901 26.3434 48.5016 25.6224 47.6851 25.1178C46.8687 24.6131 46.2923 24.4929 46.2923 24.8534C46.2923 25.2139 45.9081 26.6798 45.6919 27.1604C45.4757 27.641 44.4433 29.7077 44.6834 33.8409L45.5718 33.8411Z" fill="#D96F3E"/>
<path d="M45.5718 33.9021H44.6256L44.6222 33.8445C44.4686 31.2002 44.7998 28.9645 45.6068 27.1995L45.636 27.1352C45.8528 26.6529 46.2311 25.2027 46.2311 24.8533C46.2311 24.7205 46.2974 24.6555 46.353 24.6245C46.5699 24.5033 47.067 24.6639 47.717 25.0656C48.2673 25.4058 49.216 26.0825 49.2814 26.4615C49.295 26.5397 49.2692 26.5918 49.2454 26.6216C49.1555 26.734 49.0202 26.8173 48.8152 26.943C48.5512 27.105 48.1895 27.327 47.6762 27.7597C45.4212 29.7343 45.6304 33.7963 45.6327 33.8372L45.6365 33.9018H45.5718V33.9021ZM44.7409 33.7798H45.5082C45.4911 33.2451 45.4541 29.5432 47.5967 27.6672C48.1179 27.2278 48.4842 27.003 48.7514 26.8391C48.9454 26.72 49.0736 26.6413 49.1501 26.5455C49.1579 26.5358 49.1675 26.5188 49.1612 26.4826C49.1193 26.2397 48.4708 25.6755 47.6529 25.1699C46.9435 24.7313 46.5417 24.6596 46.4125 24.7314C46.3871 24.7457 46.3532 24.7738 46.3532 24.8535C46.3532 25.2125 45.9682 26.6946 45.7475 27.1856L45.7179 27.2505C44.9252 28.9843 44.5966 31.1809 44.7409 33.7798Z" fill="#B7481D"/>
<path opacity="0.6" d="M45.5726 33.1093C45.493 33.1358 45.4134 33.1137 45.3442 33.0413C45.2451 32.938 45.2272 32.7834 45.2151 32.6473C45.1753 32.2011 45.2052 31.7567 45.2888 31.3167C45.3812 30.8311 45.5427 30.3596 45.6256 29.8726C45.7024 29.4218 45.7147 28.9596 45.8371 28.5168C45.9227 28.2072 46.0576 27.9058 46.2346 27.6378C46.404 27.3815 46.6292 27.135 46.9205 27.019C47.0791 26.9559 47.2468 26.9495 47.4157 26.9507C47.6242 26.9523 47.8322 26.9708 48.0402 26.9843C48.2337 26.9969 48.4276 27.0033 48.6213 26.9912C48.9113 26.8091 49.0939 26.7134 49.198 26.5832C49.3901 26.3429 48.5016 25.6219 47.6851 25.1173C46.8687 24.6126 46.2923 24.4924 46.2923 24.8529C46.2923 25.2134 45.9081 26.6793 45.6919 27.1599C45.4757 27.6405 44.4433 29.7072 44.6834 33.8404H45.5719C45.5718 33.8408 45.5557 33.5591 45.5726 33.1093Z" fill="#D96F3E"/>
<path opacity="0.6" d="M45.029 33.4871C44.9706 33.3812 44.9527 33.255 44.9458 33.1359C44.9342 32.9336 44.9435 32.7298 44.936 32.5271C44.9178 32.0392 44.8884 31.5536 44.922 31.0656C44.9538 30.6024 45.0276 30.1425 45.1307 29.6899C45.2364 29.2263 45.3709 28.7682 45.5184 28.3165C45.6544 27.9002 45.7866 27.4719 45.9702 27.0736C46.1199 26.7486 46.3469 26.3943 46.7232 26.3147C47.0952 26.2359 47.4899 26.3986 47.8335 26.5252C48.1435 26.6395 48.4556 26.7557 48.7854 26.7975C48.8279 26.8029 48.8714 26.8068 48.9151 26.8095C49.0422 26.729 49.1348 26.6626 49.1979 26.5837C49.39 26.3434 48.5014 25.6224 47.685 25.1178C46.8686 24.6131 46.2922 24.4929 46.2922 24.8534C46.2922 25.2139 45.908 26.6798 45.6918 27.1604C45.4756 27.641 44.4431 29.7077 44.6833 33.8409H45.5718C45.5718 33.8409 45.5694 33.7983 45.5675 33.7214C45.3605 33.7191 45.1381 33.6848 45.029 33.4871Z" fill="#D96F3E"/>
<path d="M47.685 25.1176C46.9005 24.6326 46.3391 24.5041 46.2963 24.8145C46.3233 24.9423 46.4056 25.1031 46.5745 25.3059C47.1922 26.0478 48.6726 26.7381 49.2008 26.5772C49.3748 26.3315 48.4951 25.6183 47.685 25.1176Z" fill="#F2A283"/>
<path d="M49.0196 26.6617C48.3559 26.6618 47.081 26.0099 46.5277 25.3453C46.3662 25.1514 46.2684 24.9773 46.2368 24.8276L46.2346 24.8173L46.236 24.8067C46.2481 24.719 46.2947 24.6536 46.3709 24.6177C46.595 24.5125 47.0852 24.6756 47.7171 25.0661C48.2608 25.4023 49.2015 26.0724 49.2787 26.453C49.2913 26.5152 49.282 26.569 49.2506 26.6131L49.2385 26.6301L49.2185 26.6361C49.1612 26.6534 49.0942 26.6617 49.0196 26.6617ZM46.3585 24.813C46.3886 24.9407 46.477 25.0935 46.6214 25.2668C47.2371 26.0062 48.6579 26.6443 49.1591 26.5254C49.1622 26.515 49.1636 26.4995 49.1591 26.477C49.1083 26.2276 48.475 25.6779 47.6529 25.1697C46.9614 24.7422 46.5641 24.6611 46.423 24.7277C46.3871 24.7448 46.3665 24.772 46.3585 24.813Z" fill="#B7481D"/>
<g opacity="0.6">
<path d="M47.7089 25.2795C47.1753 24.9496 46.7936 24.8622 46.7645 25.0734C46.7828 25.1603 46.8388 25.2695 46.9537 25.4075C47.3739 25.912 48.3807 26.3815 48.7399 26.2722C48.8581 26.1051 48.2598 25.6201 47.7089 25.2795Z" fill="#D96F3E"/>
</g>
<path d="M46.4803 26.1162C45.698 27.4502 45.2018 28.9864 45.1469 30.5381C45.1449 30.5949 45.2412 30.5119 45.2443 30.4743C45.3748 28.9438 45.7763 27.4658 46.5168 26.1148C46.5352 26.081 46.4909 26.0981 46.4803 26.1162Z" fill="#B7481D"/>
<path d="M46.8814 26.4455C46.4689 27.2225 45.9324 27.944 45.7334 28.8168C45.6247 29.2934 45.6086 29.7862 45.5168 30.2661C45.4218 30.7626 45.2828 31.2488 45.1607 31.7388C45.1457 31.7991 45.2308 31.7339 45.24 31.7041C45.3847 31.2352 45.5149 30.7609 45.6107 30.2793C45.7045 29.8081 45.7273 29.3265 45.8217 28.8559C45.9971 27.9814 46.523 27.2245 46.9158 26.4381C46.9318 26.4059 46.8897 26.4297 46.8814 26.4455Z" fill="#B7481D"/>
<path d="M47.1275 26.8871C46.6524 27.4891 46.1267 28.1846 46.1515 28.9925C46.1532 29.0466 46.2398 28.967 46.2416 28.9331C46.2837 28.1524 46.7232 27.5194 47.1572 26.9004C47.18 26.8679 47.1476 26.8615 47.1275 26.8871Z" fill="#B7481D"/>
<path d="M48.2426 26.6077C47.9651 26.9212 47.6189 27.1631 47.299 27.4296C47.0094 27.6708 46.7246 27.9495 46.5939 28.3111C46.5721 28.3713 46.6628 28.3106 46.6745 28.2862C46.8458 27.9269 47.1257 27.6585 47.4321 27.4131C47.7357 27.1699 48.0501 26.9461 48.2732 26.6215C48.2967 26.5871 48.2641 26.5832 48.2426 26.6077Z" fill="#B7481D"/>
<path d="M45.0164 31.4391C45.0345 30.8693 45.065 30.3002 45.1156 29.7323C45.1166 29.7206 45.0949 29.7391 45.0938 29.7472C45.0232 30.3219 44.9734 30.8996 44.955 31.4784C44.946 31.7606 44.9421 32.0428 44.9435 32.3249C44.9449 32.6151 44.9435 32.9079 44.9722 33.197C44.975 33.225 45.0178 33.1841 45.0179 33.1669C45.0213 32.8732 45.0063 32.5793 45.005 32.2856C45.0036 32.0035 45.0073 31.7213 45.0164 31.4391Z" fill="#B7481D"/>
<path d="M45.4293 31.768C45.4322 31.7549 45.4136 31.7694 45.4119 31.7762C45.2863 32.3058 45.2485 32.8592 45.3318 33.3983C45.3338 33.4114 45.3661 33.3846 45.3647 33.3726C45.3034 32.8361 45.3145 32.2968 45.4293 31.768Z" fill="#B7481D"/>
<path d="M46.0216 28.7442C45.9648 29.1889 45.9323 29.6392 45.8616 30.0818C45.7933 30.5103 45.6164 30.8957 45.4507 31.2926C45.4333 31.3341 45.4843 31.3063 45.4946 31.2855C45.689 30.8953 45.856 30.4902 45.9223 30.057C45.9896 29.6175 46.0151 29.1695 46.0476 28.7264C46.0486 28.7119 46.0228 28.7346 46.0216 28.7442Z" fill="#B7481D"/>
<path d="M47.6889 26.4263C47.4951 26.8079 47.2326 27.145 46.9181 27.4342C46.901 27.45 46.8994 27.4822 46.9266 27.4598C47.2656 27.182 47.5362 26.82 47.7166 26.421C47.7286 26.3947 47.6955 26.4134 47.6889 26.4263Z" fill="#B7481D"/>
<path d="M46.8437 25.9362C46.6566 26.3275 46.4605 26.7146 46.2645 27.1014C46.2432 27.1434 46.2994 27.1159 46.3111 27.0941C46.5155 26.7149 46.6999 26.3256 46.872 25.9307C46.8837 25.9038 46.8502 25.9224 46.8437 25.9362Z" fill="#B7481D"/>
<path d="M48.7529 26.3051C48.5243 26.2537 48.3092 26.1878 48.0988 26.0829C47.9005 25.9842 47.7064 25.8735 47.5168 25.759C47.332 25.6475 47.1507 25.5246 47.0018 25.3669C46.8535 25.2096 46.7578 25.0282 46.6985 24.8217C46.6951 24.8099 46.6718 24.8351 46.673 24.8446C46.729 25.2798 47.1215 25.5987 47.4704 25.8125C47.6665 25.9327 47.8676 26.0494 48.0736 26.1521C48.2746 26.2522 48.4916 26.3478 48.7187 26.3571C48.7364 26.3578 48.7773 26.3106 48.7529 26.3051Z" fill="#B7481D"/>
<path d="M48.3049 26.0267C48.2141 25.9599 48.1043 25.9152 48.0045 25.8638C47.9025 25.8112 47.8 25.7598 47.6975 25.7084C47.5315 25.6251 47.3573 25.5452 47.2392 25.3963C47.2348 25.3909 47.2185 25.4084 47.2229 25.4151C47.3283 25.5771 47.4975 25.6735 47.6634 25.7632C47.7637 25.8175 47.8639 25.8717 47.9648 25.925C48.0636 25.9772 48.1616 26.0394 48.2674 26.0762C48.2836 26.0817 48.3211 26.0387 48.3049 26.0267Z" fill="#B7481D"/>
<path d="M48.2962 25.7326C47.9717 25.5417 47.6374 25.3711 47.295 25.2149C47.2842 25.2099 47.2599 25.2426 47.2699 25.2476C47.6053 25.4178 47.9359 25.6006 48.2583 25.7947C48.5367 25.9623 48.7828 26.1498 48.977 26.413C48.9891 26.4295 49.0333 26.3825 49.024 26.3656C48.8669 26.0802 48.5692 25.8931 48.2962 25.7326Z" fill="#B7481D"/>
<path d="M47.6515 25.2596C47.5738 25.193 47.4798 25.1493 47.384 25.1149C47.2845 25.0793 47.1802 25.0611 47.075 25.0549C47.0655 25.0544 47.0468 25.0796 47.0573 25.0811C47.1558 25.0949 47.2516 25.122 47.3444 25.1576C47.4406 25.1946 47.5286 25.2475 47.6178 25.2985C47.6323 25.3068 47.6646 25.2708 47.6515 25.2596Z" fill="#B7481D"/>
<path d="M48.0689 27.2026C47.3412 27.6962 46.6743 28.3096 46.2455 29.086C46.0436 29.4518 45.8866 29.8389 45.7579 30.2359C45.6335 30.6199 45.4838 31.0489 45.4727 31.4557C45.4707 31.531 45.579 31.4334 45.589 31.408C45.7331 31.0464 45.7989 30.6513 45.9111 30.2788C46.0338 29.8719 46.1857 29.4702 46.3893 29.0966C46.8037 28.3365 47.4508 27.8211 48.0729 27.2422C48.0878 27.2283 48.1054 27.1777 48.0689 27.2026Z" fill="#D96F3E"/>
<path d="M45.4998 32.2128C45.5074 32.0172 45.5254 31.8218 45.5501 31.6277C45.5529 31.6058 45.5288 31.6128 45.5179 31.6173C45.4977 31.6256 45.4816 31.6499 45.4749 31.6696C45.4036 31.8774 45.3594 32.0906 45.344 32.3098C45.3294 32.5173 45.3267 32.7309 45.3771 32.9339C45.3861 32.9697 45.4388 32.9413 45.4539 32.9304C45.4833 32.9089 45.5151 32.8698 45.5144 32.8313C45.5107 32.6249 45.4916 32.4194 45.4998 32.2128Z" fill="#D96F3E"/>
<path d="M60.8513 41.2443C60.9193 41.766 60.6862 42.2267 60.3307 42.2731C59.9751 42.3195 59.6317 41.9341 59.5637 41.4122C59.4957 40.8905 59.7288 40.4298 60.0844 40.3834C60.44 40.3371 60.7833 40.7225 60.8513 41.2443Z" fill="white"/>
<path d="M47.0847 61.2C44.5002 59.7492 44.185 61.7678 40.718 61.7678C38.3573 61.7678 34.4791 57.4507 32.405 54.7356C36.5768 60.4442 38.1577 62.1917 40.8197 62.337C43.7982 62.4995 44.3993 61.4329 45.371 61.4581C46.3426 61.4834 47.1557 62.3099 49.4031 62.2286C50.9739 62.1718 52.6108 61.6379 55.0627 59.0091C52.5004 61.3969 49.3975 62.4985 47.0847 61.2Z" fill="#C10C2A"/>
<path d="M45.7981 33.9017C45.5027 33.9619 45.2075 34.0175 44.905 34.0187C44.5903 34.02 44.2787 33.9712 43.9738 33.8964C43.9366 33.8872 43.8611 33.9792 43.9063 33.9987C44.4682 34.2414 45.1776 34.2691 45.7487 34.0416C45.7828 34.0279 45.8166 33.9922 45.827 33.9568C45.8334 33.9341 45.8348 33.8943 45.7981 33.9017Z" fill="#F44563"/>
<path d="M16.4088 41.9651C16.4088 41.9651 13.3645 47.6344 17.8607 53.8707C22.5443 60.3904 23.9493 62.2802 26.5253 62.422C29.1013 62.5637 29.6211 61.6338 30.4615 61.6558C31.3019 61.6779 32.005 62.3984 33.9487 62.3275C35.8924 62.2567 37.9531 61.3354 42.0278 55.4298C46.1026 49.5242 45.4 44.3746 43.9481 41.3037C42.4962 38.2328 39.452 35.5398 33.9722 36.7683C30.5533 37.3824 27.7432 36.9572 25.5888 36.6266C23.4341 36.2957 19.0316 36.4848 16.4088 41.9651Z" fill="#EB203B"/>
<path d="M27.0437 62.4901C26.8798 62.4901 26.7063 62.4852 26.5225 62.4751C23.977 62.335 22.6169 60.582 17.8181 53.9019C15.4859 50.6671 15.2138 47.588 15.3962 45.5744C15.5914 43.4195 16.3358 41.9904 16.3618 41.9409C19.0924 36.2365 23.7295 36.287 25.5966 36.5737C27.6803 36.8935 30.5337 37.3319 33.9629 36.7157C40.1585 35.3269 42.9079 38.9797 43.9958 41.2807C44.5986 42.5558 45.2818 44.6364 45.1132 47.3071C44.9403 50.042 43.917 52.7852 42.0712 55.4601C38.1669 61.1187 36.0694 62.3033 33.9506 62.3806C32.7292 62.4247 31.996 62.1606 31.4076 61.9482C31.0644 61.8242 30.768 61.7169 30.4601 61.7089C30.1727 61.7017 29.9188 61.8122 29.5981 61.9525C29.0701 62.1834 28.3686 62.4901 27.0437 62.4901ZM24.274 36.5806C22.0734 36.5806 18.6465 37.4123 16.4564 41.9884L16.4553 41.9906C16.4478 42.0046 15.6959 43.4269 15.5009 45.5891C15.3212 47.5831 15.592 50.6332 17.9036 53.8394C22.6789 60.4869 24.0311 62.2313 26.5282 62.3688C28.1734 62.4596 28.9725 62.1099 29.556 61.8547C29.8888 61.7093 30.1517 61.5968 30.4628 61.6025C30.7876 61.611 31.0915 61.7208 31.4433 61.8479C32.0232 62.0575 32.7454 62.3184 33.9468 62.2742C36.0331 62.1982 38.1053 61.0216 41.9845 55.3994C43.819 52.7406 44.8361 50.0157 45.0077 47.3004C45.175 44.6525 44.498 42.5903 43.9005 41.3266C42.8262 39.0544 40.1101 35.447 33.9837 36.8204C30.5347 37.4399 27.6716 37.0002 25.5808 36.6793C25.2325 36.6258 24.7862 36.5806 24.274 36.5806Z" fill="#B50F46"/>
<path d="M43.2964 53.1198C42.626 54.2041 41.893 55.2549 41.0527 56.213C40.249 57.1293 39.2795 57.9218 38.1873 58.4612C37.1423 58.9773 35.9829 59.2437 34.8182 59.1639C33.67 59.0854 32.5294 58.6889 31.5917 58.0143C30.6811 57.359 29.9603 56.4719 29.3354 55.5452C29.0151 55.0701 28.7173 54.5798 28.4259 54.0863C28.1109 53.5529 27.7992 53.0179 27.5182 52.4653C26.9412 51.3314 26.4734 50.1401 26.155 48.9061C25.8324 47.6558 25.665 46.3675 25.6439 45.076C25.6342 44.484 25.6663 43.8954 25.7142 43.3056C25.7597 42.7441 25.8252 42.1824 25.9493 41.6324C26.1954 40.541 26.7062 39.4553 27.7525 38.9455C28.7913 38.4394 29.958 38.7165 31.0437 38.8726C32.0974 39.0241 33.2317 39.0576 34.2281 38.6221C35.1512 38.2187 35.8633 37.4804 36.6222 36.8385C36.7747 36.7096 36.9352 36.5905 37.102 36.4819C36.1601 36.4276 35.1202 36.5109 33.9721 36.7682C30.5531 37.3824 27.7429 36.9572 25.5885 36.6265C23.4341 36.2958 19.0315 36.4848 16.4087 41.9652C16.4087 41.9652 13.3644 47.6344 17.8607 53.8708C22.5441 60.3905 23.9492 62.2802 26.5252 62.422C29.1012 62.5637 29.621 61.6339 30.4614 61.6558C31.3018 61.6779 32.005 62.3984 33.9487 62.3276C35.8923 62.2567 37.9531 61.3354 42.0278 55.4299C42.7822 54.3364 43.3726 53.269 43.825 52.2358C43.6529 52.5328 43.477 52.8278 43.2964 53.1198Z" fill="#C10C2A"/>
<path d="M36.4826 61.1936C35.5937 61.3364 34.682 61.2499 33.8303 60.9589C33.3604 60.7983 32.8768 60.5917 32.4668 60.3067C32.0784 60.0369 31.7699 59.6684 31.383 59.3965C30.921 59.0719 30.3539 58.9512 29.816 59.1429C29.3033 59.3256 28.8576 59.6697 28.3173 59.778C27.4574 59.9506 26.5406 59.7934 25.7586 59.4074C24.9532 59.0098 24.2764 58.3849 23.7061 57.6951C23.0939 56.9546 22.5882 56.1292 22.1377 55.2806C21.7011 54.4581 21.3339 53.6047 20.941 52.7611C20.356 51.5051 19.9244 50.1735 19.7033 48.8025C19.4905 47.4829 19.4758 46.1328 19.6646 44.8093C19.7645 44.1093 19.9202 43.4178 20.1263 42.7419C20.3016 42.1668 20.5118 41.6082 20.7976 41.0792C21.2432 40.2546 21.8564 39.5295 22.6333 39.0061C23.3823 38.5014 24.2406 38.1976 25.12 38.0214C25.9782 37.8494 26.861 37.7775 27.7353 37.7853C28.4269 37.7915 29.1193 37.7881 29.8087 37.7266C30.5509 37.6603 31.3337 37.5427 32.0063 37.2013C32.1279 37.1395 32.2468 37.0692 32.3586 36.9893C29.66 37.2465 27.3941 36.9035 25.5888 36.6264C23.4344 36.2957 19.0318 36.4847 16.409 41.9651C16.409 41.9651 13.3647 47.6344 17.861 53.8707C22.5444 60.3904 23.9496 62.2802 26.5255 62.422C29.1015 62.5637 29.6213 61.6338 30.4617 61.6558C31.3021 61.6779 32.0053 62.3983 33.949 62.3275C34.9379 62.2915 35.9574 62.0347 37.2568 61.0137C37.0037 61.0893 36.7462 61.1512 36.4826 61.1936Z" fill="#C10C2A"/>
<path opacity="0.56" d="M28.55 37.3328C28.55 37.3328 29.7056 38.0614 31.8601 37.26C31.4026 38.2435 28.9352 38.4256 28.55 37.3328Z" fill="#EB203B"/>
<path d="M37.739 38.0169C37.739 38.0169 42.3833 39.9494 42.4994 46.3911C42.4414 48.4993 45.6106 47.2597 44.0089 42.6431C41.9769 36.7871 35.9393 36.3771 37.739 38.0169Z" fill="#F44563"/>
<path d="M38.6678 37.9213C38.6678 37.9213 41.2223 38.7412 42.3253 42.0206C42.8478 43.7774 44.1373 42.4547 42.4414 40.2053C40.1829 37.2095 37.7 37.4305 38.6678 37.9213Z" fill="white"/>
<path d="M31.1672 37.3701C31.1672 37.4982 30.6484 37.6021 30.0085 37.6021C29.3686 37.6021 28.8499 37.4983 28.8499 37.3701C28.8499 37.242 29.3686 37.3013 30.0085 37.3013C30.6484 37.3013 31.1672 37.242 31.1672 37.3701Z" fill="#C10C2A"/>
<path d="M31.8833 37.1942C31.3568 37.4409 30.7944 37.5035 30.2199 37.5167C29.6533 37.5298 29.0393 37.5564 28.525 37.2758C28.5051 37.2649 28.4618 37.3166 28.4795 37.3285C28.9688 37.6611 29.5701 37.6513 30.1374 37.6514C30.7254 37.6516 31.3557 37.6415 31.8685 37.3135C31.9031 37.2914 31.9663 37.1553 31.8833 37.1942Z" fill="#C10C2A"/>
<path d="M30.6352 37.5793C30.6352 37.5793 30.4275 33.9969 32.4213 32.2371C33.2105 31.5667 33.6052 31.462 33.7713 31.2524C33.9375 31.0429 33.169 30.4144 32.4629 29.9744C31.7568 29.5345 31.2583 29.4297 31.2583 29.744C31.2583 30.0582 30.9261 31.3362 30.7391 31.7552C30.5521 32.1741 29.6591 33.9759 29.8668 37.5792L30.6352 37.5793Z" fill="#D96F3E"/>
<path d="M30.6352 37.6326H29.8168L29.8139 37.5824C29.681 35.2771 29.9675 33.3281 30.6655 31.7893L30.6907 31.7333C30.8783 31.3128 31.2054 30.0486 31.2054 29.7439C31.2054 29.6282 31.2628 29.5715 31.3108 29.5445C31.4984 29.4388 31.9284 29.5788 32.4905 29.929C32.9665 30.2256 33.7869 30.8155 33.8435 31.1459C33.8553 31.2142 33.833 31.2595 33.8124 31.2856C33.7346 31.3835 33.6176 31.4562 33.4403 31.5658C33.2119 31.7069 32.8992 31.9005 32.4552 32.2777C30.505 33.9991 30.6858 37.5404 30.6879 37.576L30.6912 37.6324H30.6352V37.6326ZM29.9166 37.5261H30.5802C30.5654 37.0599 30.5334 33.8326 32.3865 32.1971C32.8372 31.814 33.154 31.6181 33.3851 31.4752C33.5529 31.3713 33.6637 31.3027 33.73 31.2192C33.7367 31.2107 33.745 31.1959 33.7395 31.1644C33.7033 30.9526 33.1425 30.4607 32.4351 30.02C31.8215 29.6376 31.474 29.5751 31.3623 29.6377C31.3403 29.6501 31.311 29.6746 31.311 29.7442C31.311 30.0571 30.978 31.3492 30.7871 31.7772L30.7615 31.8338C30.076 33.3453 29.7918 35.2603 29.9166 37.5261Z" fill="#B7481D"/>
<path opacity="0.6" d="M30.6358 36.9415C30.567 36.9647 30.4982 36.9454 30.4383 36.8823C30.3526 36.7923 30.3371 36.6575 30.3267 36.5388C30.2923 36.1499 30.3181 35.7624 30.3904 35.3788C30.4703 34.9555 30.61 34.5444 30.6817 34.1199C30.7481 33.7268 30.7588 33.3239 30.8646 32.9379C30.9387 32.668 31.0553 32.4052 31.2084 32.1716C31.3549 31.9482 31.5497 31.7332 31.8016 31.6321C31.9388 31.5771 32.0839 31.5715 32.2299 31.5726C32.4102 31.5739 32.5901 31.59 32.77 31.6018C32.9374 31.6128 33.1051 31.6184 33.2726 31.6078C33.5234 31.4491 33.6813 31.3656 33.7713 31.2522C33.9375 31.0427 33.169 30.4141 32.4629 29.9742C31.7568 29.5342 31.2583 29.4294 31.2583 29.7437C31.2583 30.058 30.9261 31.336 30.7391 31.7549C30.5521 32.1739 29.6591 33.9756 29.8668 37.579H30.6353C30.6352 37.5793 30.6212 37.3337 30.6358 36.9415Z" fill="#D96F3E"/>
<path opacity="0.6" d="M30.1657 37.2708C30.1152 37.1784 30.0997 37.0684 30.0937 36.9646C30.0837 36.7882 30.0918 36.6106 30.0852 36.4338C30.0696 36.0085 30.0441 35.5852 30.0732 35.1597C30.1007 34.7559 30.1645 34.355 30.2537 33.9604C30.3451 33.5563 30.4614 33.1568 30.589 32.763C30.7066 32.4001 30.821 32.0267 30.9797 31.6795C31.1092 31.3962 31.3056 31.0873 31.6309 31.0179C31.9527 30.9492 32.294 31.091 32.5912 31.2014C32.8593 31.3011 33.1293 31.4023 33.4145 31.4388C33.4513 31.4435 33.4888 31.4469 33.5266 31.4492C33.6366 31.3791 33.7167 31.3212 33.7712 31.2524C33.9374 31.0429 33.1689 30.4144 32.4628 29.9744C31.7567 29.5345 31.2582 29.4297 31.2582 29.744C31.2582 30.0582 30.9259 31.3362 30.739 31.7552C30.552 32.1741 29.659 33.9759 29.8667 37.5792H30.6352C30.6352 37.5792 30.6331 37.5421 30.6315 37.475C30.4524 37.473 30.26 37.4431 30.1657 37.2708Z" fill="#D96F3E"/>
<path d="M32.4628 29.9746C31.7843 29.5518 31.2988 29.4397 31.2618 29.7104C31.2851 29.8218 31.3563 29.9619 31.5023 30.1388C32.0366 30.7856 33.3169 31.3873 33.7737 31.2471C33.9242 31.0329 33.1635 30.4111 32.4628 29.9746Z" fill="#F2A283"/>
<path d="M33.617 31.3204C33.043 31.3205 31.9404 30.7522 31.4619 30.1728C31.3222 30.0038 31.2376 29.852 31.2103 29.7215L31.2084 29.7125L31.2096 29.7032C31.2201 29.6268 31.2604 29.5698 31.3263 29.5385C31.5201 29.4468 31.944 29.589 32.4906 29.9294C32.9608 30.2225 33.7744 30.8067 33.8411 31.1385C33.852 31.1927 33.844 31.2396 33.8169 31.278L33.8064 31.2929L33.7891 31.2981C33.7395 31.3132 33.6816 31.3204 33.617 31.3204ZM31.3156 29.7087C31.3416 29.8201 31.4181 29.9533 31.543 30.1044C32.0755 30.749 33.3043 31.3053 33.7377 31.2016C33.7404 31.1926 33.7416 31.1791 33.7377 31.1594C33.6938 30.942 33.1461 30.4627 32.4351 30.0197C31.837 29.647 31.4934 29.5764 31.3713 29.6344C31.3403 29.6493 31.3225 29.673 31.3156 29.7087Z" fill="#B7481D"/>
<g opacity="0.6">
<path d="M32.4835 30.1153C32.022 29.8277 31.6918 29.7515 31.6667 29.9356C31.6826 30.0114 31.7309 30.1067 31.8304 30.2269C32.1938 30.6668 33.0645 31.0761 33.3752 30.9807C33.4774 30.8351 32.96 30.4123 32.4835 30.1153Z" fill="#D96F3E"/>
</g>
<path d="M31.4209 30.8447C30.7443 32.0077 30.3151 33.3469 30.2677 34.6997C30.2659 34.7493 30.3492 34.6769 30.352 34.6442C30.4648 33.3098 30.812 32.0213 31.4525 30.8435C31.4684 30.8141 31.43 30.829 31.4209 30.8447Z" fill="#B7481D"/>
<path d="M31.7679 31.1319C31.4111 31.8094 30.9471 32.4383 30.7749 33.1993C30.681 33.6147 30.667 34.0443 30.5876 34.4627C30.5055 34.8956 30.3853 35.3195 30.2797 35.7467C30.2667 35.7992 30.3403 35.7424 30.3483 35.7163C30.4734 35.3076 30.586 34.8941 30.6689 34.4743C30.75 34.0634 30.7697 33.6436 30.8514 33.2333C31.0031 32.471 31.4578 31.8111 31.7976 31.1255C31.8114 31.0974 31.775 31.1182 31.7679 31.1319Z" fill="#B7481D"/>
<path d="M31.9806 31.5169C31.5697 32.0417 31.1151 32.6481 31.1365 33.3523C31.1379 33.3996 31.2129 33.3302 31.2144 33.3006C31.2509 32.62 31.6309 32.0681 32.0063 31.5285C32.026 31.5002 31.998 31.4946 31.9806 31.5169Z" fill="#B7481D"/>
<path d="M32.945 31.2734C32.705 31.5467 32.4056 31.7576 32.1289 31.9899C31.8784 32.2002 31.6321 32.4432 31.5191 32.7584C31.5002 32.811 31.5787 32.758 31.5888 32.7367C31.737 32.4235 31.9791 32.1895 32.244 31.9756C32.5066 31.7635 32.7785 31.5685 32.9715 31.2855C32.9918 31.2555 32.9636 31.2521 32.945 31.2734Z" fill="#B7481D"/>
<path d="M30.1548 35.4852C30.1705 34.9885 30.1969 34.4923 30.2407 33.9972C30.2415 33.987 30.2227 34.0031 30.2218 34.0102C30.1607 34.5112 30.1176 35.0148 30.1017 35.5195C30.094 35.7654 30.0906 36.0115 30.0918 36.2574C30.093 36.5104 30.0918 36.7657 30.1166 37.0177C30.119 37.0421 30.156 37.0065 30.1561 36.9914C30.1591 36.7354 30.1461 36.4792 30.1449 36.2232C30.1437 35.9772 30.147 35.7312 30.1548 35.4852Z" fill="#B7481D"/>
<path d="M30.5119 35.7722C30.5144 35.7608 30.4983 35.7734 30.4969 35.7793C30.3882 36.241 30.3555 36.7235 30.4276 37.1935C30.4294 37.205 30.4572 37.1816 30.4561 37.1711C30.403 36.7034 30.4126 36.2332 30.5119 35.7722Z" fill="#B7481D"/>
<path d="M31.0242 33.1361C30.9751 33.5238 30.947 33.9163 30.8859 34.3022C30.8268 34.6758 30.6737 35.0117 30.5304 35.3577C30.5154 35.394 30.5595 35.3697 30.5684 35.3516C30.7366 35.0114 30.881 34.6582 30.9384 34.2806C30.9965 33.8974 31.0186 33.5069 31.0467 33.1206C31.0476 33.1079 31.0253 33.1277 31.0242 33.1361Z" fill="#B7481D"/>
<path d="M32.4662 31.1153C32.2986 31.448 32.0715 31.7419 31.7995 31.994C31.7847 32.0078 31.7834 32.0359 31.8069 32.0163C32.1001 31.7741 32.3341 31.4585 32.4901 31.1107C32.5005 31.0878 32.4719 31.104 32.4662 31.1153Z" fill="#B7481D"/>
<path d="M31.7352 30.6879C31.5733 31.029 31.4038 31.3665 31.2342 31.7037C31.2158 31.7403 31.2644 31.7164 31.2745 31.6974C31.4514 31.3667 31.6108 31.0274 31.7597 30.6831C31.7698 30.6596 31.7408 30.6759 31.7352 30.6879Z" fill="#B7481D"/>
<path d="M33.3864 31.0095C33.1886 30.9647 33.0026 30.9073 32.8207 30.8159C32.6491 30.7297 32.4813 30.6333 32.3173 30.5334C32.1575 30.4362 32.0007 30.3291 31.8719 30.1916C31.7437 30.0545 31.6609 29.8963 31.6096 29.7163C31.6067 29.7061 31.5865 29.728 31.5875 29.7363C31.636 30.1157 31.9754 30.3937 32.2771 30.5801C32.4468 30.6849 32.6207 30.7866 32.7989 30.8762C32.9727 30.9634 33.1604 31.0468 33.3568 31.0549C33.3721 31.0554 33.4075 31.0144 33.3864 31.0095Z" fill="#B7481D"/>
<path d="M32.9989 30.7668C32.9204 30.7086 32.8254 30.6696 32.7391 30.6247C32.6509 30.5789 32.5622 30.5341 32.4736 30.4893C32.3301 30.4167 32.1793 30.347 32.0772 30.2172C32.0734 30.2125 32.0593 30.2277 32.0631 30.2336C32.1543 30.3748 32.3007 30.4589 32.4441 30.5371C32.5309 30.5844 32.6175 30.6317 32.7048 30.6781C32.7903 30.7236 32.875 30.7779 32.9665 30.8099C32.9805 30.8148 33.013 30.7772 32.9989 30.7668Z" fill="#B7481D"/>
<path d="M32.9914 30.5104C32.7108 30.344 32.4216 30.1952 32.1256 30.059C32.1162 30.0547 32.0952 30.0832 32.1038 30.0876C32.3939 30.236 32.6798 30.3953 32.9586 30.5646C33.1994 30.7107 33.4123 30.8741 33.5802 31.1036C33.5907 31.118 33.6289 31.077 33.6208 31.0623C33.485 30.8135 33.2275 30.6503 32.9914 30.5104Z" fill="#B7481D"/>
<path d="M32.4338 30.0981C32.3666 30.0401 32.2853 30.002 32.2024 29.972C32.1164 29.9409 32.0262 29.9251 31.9352 29.9197C31.927 29.9192 31.9108 29.9412 31.92 29.9425C32.0051 29.9545 32.088 29.9781 32.1682 30.0092C32.2514 30.0414 32.3276 30.0875 32.4047 30.132C32.4172 30.1393 32.4452 30.1079 32.4338 30.0981Z" fill="#B7481D"/>
<path d="M32.7949 31.792C32.1656 32.2224 31.5887 32.7572 31.2179 33.434C31.0433 33.7529 30.9075 34.0904 30.7962 34.4365C30.6886 34.7712 30.5591 35.1453 30.5495 35.4999C30.5478 35.5655 30.6414 35.4804 30.6501 35.4583C30.7747 35.1431 30.8317 34.7986 30.9287 34.4739C31.0348 34.1192 31.1662 33.769 31.3423 33.4433C31.7007 32.7806 32.2603 32.3313 32.7984 31.8266C32.8112 31.8144 32.8265 31.7704 32.7949 31.792Z" fill="#D96F3E"/>
<path d="M30.5729 36.1598C30.5796 35.9893 30.5951 35.8189 30.6165 35.6497C30.6189 35.6306 30.5981 35.6367 30.5886 35.6406C30.5712 35.6479 30.5572 35.6691 30.5515 35.6862C30.4897 35.8673 30.4515 36.0532 30.4382 36.2443C30.4256 36.4253 30.4233 36.6114 30.4669 36.7884C30.4746 36.8196 30.5202 36.7949 30.5333 36.7853C30.5587 36.7667 30.5862 36.7325 30.5856 36.699C30.5824 36.5191 30.5658 36.3399 30.5729 36.1598Z" fill="#D96F3E"/>
<path d="M43.85 44.0336C43.9088 44.4885 43.7072 44.8901 43.3997 44.9305C43.0922 44.9709 42.7952 44.635 42.7364 44.18C42.6776 43.7251 42.8792 43.3235 43.1867 43.2831C43.4942 43.2427 43.7912 43.5787 43.85 44.0336Z" fill="white"/>
<path d="M31.9436 61.4308C29.7084 60.166 29.4358 61.9258 26.4373 61.9258C24.3956 61.9258 21.0416 58.1622 19.2477 55.7952C22.8558 60.7719 24.223 62.2953 26.5253 62.422C29.1013 62.5637 29.6212 61.6338 30.4615 61.6558C31.3019 61.6779 32.005 62.3984 33.9488 62.3275C35.3073 62.278 36.723 61.8126 38.8436 59.5208C36.6275 61.6024 33.944 62.5628 31.9436 61.4308Z" fill="#C10C2A"/>
<path d="M30.8309 37.6324C30.5755 37.6849 30.3202 37.7333 30.0585 37.7344C29.7864 37.7355 29.5169 37.693 29.2532 37.6278C29.221 37.6197 29.1558 37.6999 29.1949 37.717C29.6808 37.9285 30.2943 37.9527 30.7882 37.7543C30.8178 37.7424 30.8469 37.7112 30.856 37.6804C30.8615 37.6606 30.8627 37.6259 30.8309 37.6324Z" fill="#F44563"/>
</svg>
