<svg width="82" height="58" viewBox="0 0 82 58" fill="none" xmlns="http://www.w3.org/2000/svg">
<path d="M80.6137 47.3549L80.6646 42.2279L80.6679 41.8883L80.6865 40.0146L80.6993 38.7294L81.2306 38.5905V37.5036L69.8149 34.7061C71.6487 34.0942 72.9496 33.6601 73.3397 33.5299C77.1724 31.8463 77.5642 22.6625 73.3397 21.5407L69.4046 20.7978L65.6138 20.0823L66.1011 19.9896L66.8242 19.852L69.6655 19.3115C69.7026 19.3042 69.7405 19.2962 69.7791 19.2873C69.793 19.2841 69.8075 19.2802 69.8215 19.2768C69.8466 19.2707 69.8716 19.2648 69.8974 19.258C69.9144 19.2535 69.932 19.2482 69.9492 19.2434C69.9726 19.2368 69.9958 19.2305 70.0196 19.2234C70.0386 19.2176 70.0581 19.2111 70.0774 19.205C70.0999 19.1978 70.1222 19.1909 70.145 19.1832C70.1655 19.1762 70.1863 19.1684 70.207 19.161C70.2291 19.153 70.2511 19.1453 70.2735 19.1368C70.2951 19.1286 70.317 19.1195 70.3388 19.1108C70.3604 19.102 70.382 19.0936 70.4039 19.0843C70.4267 19.0746 70.4497 19.064 70.4727 19.0537C70.4939 19.0442 70.5149 19.0349 70.5362 19.0249C70.5596 19.0139 70.5831 19.002 70.6066 18.9903C70.6276 18.9798 70.6486 18.9696 70.6697 18.9585C70.6938 18.946 70.7179 18.9325 70.7421 18.9192C70.7626 18.9079 70.7831 18.8967 70.8037 18.8848C70.8283 18.8706 70.853 18.8556 70.8776 18.8405C70.8977 18.8283 70.9178 18.8161 70.9379 18.8034C70.9626 18.7876 70.9873 18.7711 71.0119 18.7545C71.032 18.741 71.0519 18.7277 71.0719 18.7137C71.0967 18.6962 71.1215 18.678 71.1461 18.6597C71.1656 18.6452 71.1851 18.6308 71.2045 18.6158C71.2294 18.5965 71.2542 18.5764 71.2789 18.5562C71.2978 18.5407 71.3168 18.5252 71.3355 18.5092C71.3604 18.4879 71.3851 18.466 71.4097 18.4437C71.428 18.4272 71.4463 18.4106 71.4644 18.3934C71.4892 18.3702 71.5136 18.3462 71.538 18.3218C71.5557 18.3043 71.5732 18.2865 71.5907 18.2683C71.6151 18.2429 71.6392 18.217 71.6632 18.1905C71.6802 18.1717 71.6971 18.1527 71.7139 18.1334C71.7378 18.1059 71.7614 18.0778 71.7848 18.0491C71.8011 18.0292 71.8172 18.009 71.8333 17.9884C71.8566 17.9586 71.8796 17.9282 71.9024 17.8971C71.9177 17.8762 71.9329 17.8548 71.9481 17.8333C71.9707 17.801 71.9931 17.7682 72.0151 17.7346C72.0297 17.7124 72.0441 17.6896 72.0584 17.6667C72.0801 17.6323 72.1014 17.5974 72.1224 17.5615C72.1362 17.5379 72.1497 17.5137 72.1633 17.4893C72.1839 17.4523 72.2043 17.4148 72.2242 17.3764C72.237 17.3516 72.2495 17.3261 72.262 17.3007C72.2816 17.261 72.3009 17.221 72.3196 17.1798C72.3314 17.1538 72.3427 17.1272 72.3541 17.1007C72.3725 17.058 72.3907 17.015 72.4082 16.9707C72.4189 16.9438 72.429 16.916 72.4393 16.8885C72.4563 16.8428 72.4732 16.7969 72.4893 16.7496C72.4988 16.7216 72.5078 16.6926 72.5169 16.664C72.5325 16.6152 72.548 16.5662 72.5624 16.5157C72.5707 16.4867 72.5784 16.4566 72.5863 16.4271C72.6003 16.3748 72.6142 16.3225 72.627 16.2684C72.634 16.2388 72.6403 16.208 72.6469 16.1778C72.6592 16.1219 72.6715 16.0658 72.6825 16.0079C72.6882 15.9777 72.6931 15.9463 72.6985 15.9157C72.7089 15.8556 72.7194 15.7956 72.7284 15.7335C72.7328 15.7035 72.7362 15.6722 72.7402 15.6416C72.7487 15.5768 72.7572 15.5119 72.7641 15.4448C72.767 15.4159 72.7691 15.3856 72.7717 15.3562C72.7781 15.2856 72.7845 15.2149 72.789 15.1419C72.7907 15.1155 72.7913 15.0878 72.7928 15.061C72.7968 14.983 72.8008 14.9047 72.8027 14.8239C72.8032 14.8045 72.8028 14.7842 72.8031 14.7647C72.8065 14.5695 72.8047 14.3677 72.7948 14.1559C72.7639 13.4906 72.6762 12.8925 72.5484 12.3585C72.5484 12.3584 72.5483 12.3583 72.5483 12.3583C72.5071 12.1865 72.4617 12.0218 72.4126 11.8634C72.4115 11.8597 72.4103 11.8558 72.4091 11.8521C72.3605 11.6964 72.3085 11.5473 72.2531 11.4046C72.251 11.3993 72.249 11.394 72.2469 11.3888C72.1916 11.2471 72.1334 11.1117 72.0723 10.9828C72.0704 10.9786 72.0683 10.9745 72.0663 10.9703C72.0043 10.8401 71.9398 10.7162 71.8729 10.599C71.8729 10.599 71.8728 10.5989 71.8728 10.5988C71.1906 9.40432 70.2814 8.88486 69.6654 9.00206L63.6843 6.75121C63.6843 6.75121 63.6843 6.75121 63.6842 6.75121L47.0072 0.475098L19.5821 5.69198C19.5821 5.69198 19.5821 5.69198 19.5821 5.69194L11.5539 7.21912V8.11049V16.4568V17.5287L13.1649 18.1349L7.85405 18.8386L0.829783 19.7694H0.829739V21.2841L1.75897 21.5406V29.2617L0.829739 29.1613V30.6691L3.94051 31.4951L3.03971 31.611C2.97969 31.6203 2.92131 31.6332 2.86381 31.6479C2.8464 31.6524 2.82952 31.6579 2.81238 31.6628C2.77193 31.6745 2.73193 31.6872 2.69268 31.7015C2.6747 31.7081 2.65694 31.715 2.63922 31.7221C2.59992 31.7379 2.5613 31.7551 2.52333 31.7735C2.50872 31.7806 2.49401 31.7873 2.47961 31.7948C2.43102 31.8199 2.38335 31.8469 2.33693 31.8763C2.3344 31.8779 2.33175 31.8792 2.32922 31.8809C2.27646 31.9146 2.22516 31.9511 2.1752 31.99C2.17475 31.9903 2.17427 31.9908 2.17382 31.9912C2.12643 32.0282 2.08049 32.0681 2.03553 32.1097C2.02897 32.1157 2.02255 32.1221 2.01599 32.1283C1.97603 32.1662 1.93705 32.2059 1.89904 32.2472C1.89337 32.2534 1.8877 32.2596 1.88203 32.2658C0.613831 33.6762 0.468003 37.0073 1.11781 39.5579C1.11914 39.563 1.12042 39.5681 1.12171 39.5732C1.21597 39.9409 1.32672 40.2918 1.4531 40.6186C1.45691 40.6284 1.46063 40.6382 1.46448 40.648C1.50475 40.7509 1.54652 40.8514 1.58989 40.9491C1.59392 40.9582 1.59809 40.9671 1.60216 40.9762C1.69049 41.1729 1.78502 41.3581 1.88558 41.53C1.89151 41.5401 1.89736 41.5505 1.90334 41.5606C1.9514 41.6414 2.00088 41.7189 2.05156 41.7934C2.05993 41.8057 2.06839 41.8178 2.07686 41.8299C2.12824 41.9037 2.18065 41.9746 2.23465 42.0414C2.24009 42.0481 2.24568 42.0544 2.25117 42.0611C2.30406 42.1254 2.35815 42.1864 2.41343 42.2438C2.41919 42.2497 2.42473 42.2561 2.43053 42.262C2.48683 42.3193 2.54455 42.3719 2.60329 42.4215C2.61428 42.4308 2.62522 42.4401 2.63629 42.4491C2.69455 42.4964 2.75382 42.54 2.81437 42.5793C2.82465 42.586 2.83506 42.592 2.84538 42.5984C2.90908 42.638 2.97362 42.6745 3.03971 42.7048C3.08618 42.7207 3.24951 42.7783 3.51693 42.8729C3.59335 42.8998 3.67822 42.9299 3.77134 42.9629C3.86445 42.9959 3.96576 43.0318 4.07495 43.0705C4.29334 43.1478 4.54336 43.2365 4.82261 43.3355C4.89243 43.3603 4.96406 43.3857 5.03746 43.4118C5.478 43.5681 5.98291 43.7473 6.54425 43.9465C6.63776 43.9797 6.73291 44.0135 6.82953 44.0478C7.0228 44.1165 7.22223 44.1873 7.42741 44.2601C7.53001 44.2966 7.63406 44.3335 7.73958 44.371C7.95053 44.4459 8.16714 44.5228 8.38912 44.6017C8.50009 44.6411 8.61242 44.681 8.72609 44.7213C11.9079 45.8515 16.1123 47.3456 20.5211 48.9128C20.6786 48.9687 20.8363 49.0248 20.9943 49.0809C31.8818 52.951 43.831 57.2003 44.6345 57.486C44.6531 57.493 44.6639 57.4964 44.664 57.4965C44.664 57.4965 44.6642 57.4965 44.6642 57.4965L81.2306 49.3253V48.2395L80.6037 48.3759L80.6117 47.5656L80.6137 47.3549Z" fill="#EA5B0C"/>
<path d="M80.6121 47.5473L80.6271 46.0357L80.6295 45.7984L80.6312 45.622L80.6463 44.1009L80.6503 43.6944L80.6868 40.0146L80.6996 38.7294L81.2309 38.5904V37.5036L69.8152 34.7061C69.6494 34.7614 69.4798 34.818 69.3055 34.8762C63.4089 36.8438 52.823 40.3761 48.2217 41.9114C46.8297 42.3759 45.9832 42.6583 45.9832 42.6583L3.94084 31.4951L3.85552 31.5061L3.04005 31.6109L3.04 31.611C2.97998 31.6204 2.92159 31.6331 2.86409 31.6479C2.84669 31.6524 2.82981 31.6579 2.81266 31.6629C2.77222 31.6746 2.73222 31.6872 2.69297 31.7015C2.67499 31.7081 2.65722 31.715 2.6395 31.7222C2.60021 31.738 2.56158 31.7551 2.52362 31.7735C2.509 31.7806 2.4943 31.7874 2.4799 31.7948C2.43126 31.82 2.3836 31.8469 2.33722 31.8763C2.33469 31.8779 2.33203 31.8793 2.32951 31.8809C2.27679 31.9146 2.22545 31.951 2.17549 31.99C2.17504 31.9904 2.1746 31.9908 2.17411 31.9912C2.12671 32.0283 2.08073 32.068 2.03586 32.1097C2.02926 32.1158 2.02283 32.1221 2.01628 32.1283C1.97632 32.1662 1.9373 32.2058 1.89938 32.2473C1.89371 32.2534 1.88799 32.2596 1.88237 32.2658C1.84019 32.3128 1.79904 32.3615 1.75931 32.4125C1.76134 32.4133 1.76343 32.414 1.76546 32.4148C0.842961 33.5971 0.580276 35.8651 0.831444 37.989C0.831046 37.9886 0.83047 37.9883 0.830115 37.9879C0.831134 37.9968 0.832994 38.0053 0.834058 38.0143C0.862497 38.2505 0.898467 38.4841 0.939353 38.7149C0.948612 38.7672 0.958446 38.8187 0.968369 38.8707C1.0128 39.1041 1.06126 39.3347 1.11814 39.558C1.11942 39.5631 1.12075 39.5681 1.12204 39.5732C1.2163 39.9409 1.32705 40.2919 1.45343 40.6186C1.45724 40.6285 1.46101 40.6383 1.46482 40.648C1.50508 40.751 1.54685 40.8514 1.59022 40.9491C1.59425 40.9583 1.59842 40.9672 1.60249 40.9763C1.69078 41.173 1.7854 41.3581 1.88591 41.53C1.89185 41.5402 1.89769 41.5506 1.90367 41.5606C1.95174 41.6415 2.00122 41.719 2.05189 41.7934C2.06027 41.8058 2.06873 41.8178 2.07719 41.83C2.12857 41.9037 2.18102 41.9747 2.23502 42.0415C2.24047 42.0482 2.24605 42.0544 2.25154 42.0611C2.30444 42.1255 2.35852 42.1865 2.41385 42.2438C2.41961 42.2498 2.42515 42.2561 2.43095 42.262C2.48725 42.3193 2.54502 42.372 2.60371 42.4216C2.6147 42.4308 2.62564 42.4402 2.63671 42.4492C2.69492 42.4964 2.75424 42.5401 2.81475 42.5794C2.82502 42.5861 2.83543 42.5921 2.84576 42.5985C2.90946 42.6381 2.974 42.6746 3.04009 42.7049C3.08656 42.7208 3.24988 42.7784 3.51731 42.873C3.59372 42.9 3.6786 42.93 3.77171 42.963C3.86478 42.996 3.96609 43.0319 4.07529 43.0706C4.18452 43.1093 4.3016 43.1508 4.42635 43.195C4.55104 43.2392 4.68336 43.2861 4.82295 43.3356C4.89276 43.3604 4.96439 43.3858 5.03783 43.4119C5.33148 43.516 5.65384 43.6304 6.00237 43.7542C6.17664 43.816 6.35747 43.8802 6.54458 43.9466C6.63814 43.9798 6.73324 44.0136 6.82986 44.0479C7.02313 44.1166 7.22256 44.1874 7.42775 44.2602C7.53034 44.2967 7.6344 44.3336 7.73987 44.3711C7.95082 44.446 8.16743 44.5229 8.38941 44.6018C8.50037 44.6412 8.61271 44.6811 8.72638 44.7215C9.29455 44.9232 9.89536 45.1367 10.5241 45.3601C10.9642 45.5164 11.418 45.6776 11.8839 45.8432C12.3498 46.0087 12.8278 46.1786 13.3163 46.3521C14.7121 46.8481 16.1935 47.3746 17.7234 47.9184C18.6413 48.2446 19.5767 48.5771 20.5215 48.9129C20.679 48.9688 20.8367 49.0249 20.9946 49.0811C21.6264 49.3056 22.2618 49.5315 22.8983 49.7577C23.2166 49.8709 23.5351 49.9841 23.8537 50.0974C27.8358 51.513 31.8179 52.9287 35.2175 54.1375C35.5726 54.2637 35.9207 54.3875 36.2624 54.5089C36.6126 54.6335 36.9548 54.7552 37.2896 54.8742C37.4537 54.9326 37.6158 54.9902 37.7761 55.0472C37.9577 55.1118 38.1367 55.1754 38.313 55.2381C38.3762 55.2606 38.4399 55.2832 38.5024 55.3054C38.7381 55.3892 38.968 55.471 39.1933 55.5511C39.2967 55.5878 39.3986 55.6241 39.4996 55.66C39.6555 55.7154 39.8086 55.7699 39.9588 55.8233C40.045 55.8539 40.1303 55.8842 40.2146 55.9142C40.325 55.9534 40.434 55.9923 40.541 56.0303C40.8491 56.1398 41.1427 56.2443 41.4215 56.3434C41.4742 56.3621 41.5266 56.3807 41.5781 56.3991C41.71 56.4459 41.8376 56.4913 41.9621 56.5356C42.0051 56.5509 42.0485 56.5663 42.0905 56.5813C42.2221 56.628 42.3476 56.6727 42.4703 56.7163C42.5466 56.7434 42.6214 56.77 42.6942 56.7959C43.7736 57.1798 44.4624 57.4247 44.6349 57.486C44.6534 57.4931 44.6642 57.4964 44.6644 57.4965C44.6645 57.4965 44.6645 57.4965 44.6645 57.4965L81.231 49.3253V48.2395L80.6041 48.3759L80.6121 47.572L80.6121 47.5473Z" fill="#7AB929"/>
<path d="M44.6643 57.4965C44.6642 57.4965 44.6641 57.4964 44.664 57.4963C44.5883 57.4513 44.5151 57.3992 44.4433 57.3439C44.4223 57.3278 44.4018 57.3108 44.3812 57.2939C44.3268 57.2493 44.2737 57.2017 44.2216 57.1515C44.2038 57.1343 44.1856 57.1181 44.168 57.1002C44.1036 57.0348 44.0409 56.9653 43.9801 56.8917C43.9613 56.869 43.9434 56.8444 43.925 56.8209C43.8823 56.7665 43.8404 56.7103 43.7996 56.652C43.7766 56.619 43.7536 56.5858 43.7312 56.5516C43.6934 56.4943 43.6569 56.4346 43.6209 56.374C43.5887 56.3198 43.5571 56.2645 43.5262 56.2078C43.4938 56.1483 43.4618 56.0882 43.4309 56.0262C43.4042 55.9727 43.3786 55.9177 43.3531 55.8623C43.3339 55.8206 43.3151 55.7781 43.2965 55.7353C43.2692 55.6726 43.242 55.6099 43.2162 55.5451C43.2142 55.5403 43.2125 55.5352 43.2105 55.5303C43.1466 55.3687 43.0872 55.2009 43.0321 55.0282C43.0264 55.0105 43.0205 54.993 43.015 54.9751C42.9873 54.8866 42.9606 54.7969 42.9353 54.7059C42.9341 54.7016 42.933 54.6973 42.9318 54.6931C42.8512 54.4018 42.7823 54.0989 42.7257 53.7883C42.3057 51.4846 42.5555 48.7656 43.5673 47.315C29.6814 41.9843 15.6288 37.4615 1.76534 32.4148C0.842839 33.5972 0.580154 35.8651 0.831322 37.9891C0.830924 37.9887 0.830348 37.9883 0.829993 37.9879C0.831012 37.9968 0.832872 38.0054 0.833935 38.0143C0.862375 38.2505 0.898344 38.4842 0.939231 38.7149C0.94849 38.7673 0.958324 38.8188 0.968246 38.8707C1.01268 39.1041 1.06114 39.3348 1.11802 39.558C1.1193 39.5631 1.12063 39.5682 1.12192 39.5733C1.21618 39.941 1.32693 40.2919 1.45331 40.6187C1.45712 40.6285 1.46088 40.6383 1.46469 40.6481C1.50496 40.751 1.54673 40.8515 1.5901 40.9492C1.59413 40.9583 1.59829 40.9672 1.60237 40.9763C1.69066 41.173 1.78528 41.3582 1.88579 41.5301C1.89172 41.5402 1.89757 41.5506 1.90355 41.5607C1.95161 41.6415 2.00109 41.719 2.05177 41.7935C2.06014 41.8058 2.0686 41.8179 2.07707 41.83C2.12845 41.9037 2.1809 41.9747 2.2349 42.0415C2.24035 42.0482 2.24593 42.0544 2.25142 42.0612C2.30431 42.1255 2.3584 42.1865 2.41373 42.2438C2.41949 42.2498 2.42503 42.2562 2.43083 42.262C2.48713 42.3194 2.5449 42.372 2.60359 42.4216C2.61458 42.4309 2.62552 42.4402 2.63659 42.4492C2.6948 42.4965 2.75411 42.5401 2.81462 42.5794C2.8249 42.5861 2.83531 42.5921 2.84563 42.5985C2.90933 42.6381 2.97388 42.6746 3.03997 42.7049C3.08644 42.7208 3.24976 42.7784 3.51719 42.873C3.5936 42.9 3.67848 42.9301 3.77159 42.963C3.86466 42.996 3.96597 43.0319 4.07516 43.0706C4.1844 43.1093 4.30148 43.1508 4.42622 43.195C4.55092 43.2392 4.68324 43.2861 4.82282 43.3357C4.89264 43.3604 4.96427 43.3859 5.03771 43.4119C5.33136 43.5161 5.65372 43.6304 6.00225 43.7542C6.17652 43.816 6.35734 43.8803 6.54446 43.9467C6.63801 43.9799 6.73312 44.0136 6.82974 44.048C7.02301 44.1166 7.22244 44.1874 7.42762 44.2603C7.53022 44.2967 7.63427 44.3337 7.73975 44.3711C7.95069 44.446 8.16731 44.523 8.38929 44.6018C8.50025 44.6412 8.61259 44.6811 8.72626 44.7215C9.29442 44.9233 9.89523 45.1367 10.524 45.3601C10.9641 45.5164 11.4179 45.6777 11.8838 45.8432C12.3497 46.0087 12.8277 46.1786 13.3162 46.3522C14.712 46.8482 16.1934 47.3746 17.7233 47.9184C18.6412 48.2446 19.5766 48.5771 20.5214 48.9129C20.6788 48.9689 20.8365 49.0249 20.9945 49.0811C21.6263 49.3057 22.2616 49.5315 22.8982 49.7578C23.2165 49.8709 23.535 49.9842 23.8536 50.0974C27.8357 51.513 31.8177 52.9287 35.2174 54.1375C35.5724 54.2637 35.9206 54.3875 36.2622 54.509C36.6125 54.6335 36.9547 54.7552 37.2895 54.8742C37.4536 54.9326 37.6157 54.9903 37.7759 55.0472C37.9576 55.1118 38.1366 55.1754 38.3129 55.2381C38.376 55.2606 38.4398 55.2833 38.5023 55.3055C38.738 55.3893 38.9679 55.471 39.1932 55.5511C39.2965 55.5879 39.3984 55.6241 39.4995 55.66C39.6554 55.7155 39.8085 55.7699 39.9587 55.8233C40.0449 55.8539 40.1301 55.8843 40.2144 55.9142C40.3248 55.9535 40.4338 55.9923 40.5409 56.0303C40.849 56.1399 41.1426 56.2443 41.4214 56.3434C41.4741 56.3622 41.5265 56.3808 41.578 56.3991C41.7098 56.446 41.8375 56.4914 41.962 56.5356C42.005 56.5509 42.0484 56.5663 42.0904 56.5813C42.2219 56.628 42.3475 56.6727 42.4702 56.7163C42.5465 56.7434 42.6213 56.7701 42.6941 56.7959C43.7735 57.1798 44.4622 57.4248 44.6347 57.486C44.6471 57.4904 44.6573 57.494 44.6643 57.4965Z" fill="#739B2F"/>
<path d="M46.2359 47.7423C46.2359 47.7423 44.059 48.2518 44.3529 51.9961C44.6338 55.5741 45.9485 55.9142 45.9485 55.9142L47.7833 55.5151L80.6039 48.3761L80.6118 47.5722L80.6121 47.5474L80.6271 46.0359L80.6294 45.7985L80.6312 45.6221L80.6463 44.101L80.6503 43.6945L80.6868 40.0147L80.6996 38.7295L46.2359 47.7423Z" fill="#DBDBDB"/>
<path d="M80.1108 42.016C74.3968 43.3125 68.7125 44.7742 63.097 46.4028C68.8065 45.2237 74.4867 43.8851 80.1072 42.3765L80.0929 43.8074C76.7891 44.4744 73.4943 45.2646 70.262 46.183C73.5579 45.6573 76.8477 45.0077 80.0887 44.2337L80.0741 45.7121C78.1635 46.0279 76.2715 46.4617 74.4245 47.0164C76.3243 46.8439 78.2115 46.5645 80.0696 46.1598L80.0568 47.4542C73.6402 48.5784 67.2804 49.9559 60.9744 51.5377C67.3891 50.481 73.7462 49.2173 80.0543 47.7042L80.0504 48.0965L47.5631 55.2435C47.3416 54.9481 47.1622 54.6318 47.0236 54.3028C50.8705 53.6867 54.6662 52.7974 58.3693 51.6437C54.514 52.2337 50.7082 53.0984 46.9928 54.2278C46.7998 53.7453 46.6943 53.2372 46.6763 52.7276C48.1825 52.5178 49.6493 52.0786 51.0072 51.4317C49.5133 51.5688 48.0467 51.9301 46.6744 52.4975C46.6863 51.7767 46.8726 51.0618 47.2325 50.4217C51.3911 49.6462 55.4928 48.6081 59.502 47.315C55.3732 48.0489 51.2983 49.0426 47.3113 50.2862C47.7196 49.6185 48.3223 49.0413 49.1195 48.6394C54.2391 47.0674 73.9515 41.6602 80.1294 40.1492L80.1108 42.016Z" fill="white"/>
<path d="M71.5714 24.1026C70.5571 24.41 45.9832 32.5485 45.9832 32.5485V32.5701L44.6644 32.2412L1.75922 21.5408V29.2619L45.9831 41.024C45.9831 41.024 70.0311 32.9974 71.8826 32.3795C72.0753 32.3058 72.2559 32.2091 72.4278 32.0979C73.8918 29.2795 73.728 24.8401 71.5714 24.1026Z" fill="#F2F2F2"/>
<path d="M71.5715 24.1025C70.5571 24.4099 45.9832 32.5484 45.9832 32.5484V32.57V41.0238C45.9832 41.0238 70.0312 32.9972 71.8827 32.3794C72.0754 32.3057 72.256 32.2089 72.4279 32.0977C73.8918 29.2794 73.7281 24.84 71.5715 24.1025Z" fill="#DBDBDB"/>
<path d="M12.4315 42.2602L32.9722 49.2657V46.1648L12.4315 38.9155V42.2602Z" fill="#DBDBDB"/>
<path d="M66.9773 47.5C62.3347 48.3006 57.7518 49.4 53.2724 50.7954C57.9156 49.9971 62.4973 48.893 66.9773 47.5Z" fill="#DBDBDB"/>
<path d="M29.743 24.3737L13.1651 18.135L7.85425 18.8388C8.5926 19.2819 9.3936 19.6144 10.1967 19.8292C16.8158 21.5431 23.2516 23.1682 29.743 24.3737Z" fill="#ED7004"/>
<path d="M45.3631 23.9345L45.0995 23.9846L40.9085 24.7819L40.8449 24.794L37.0081 25.5238C38.0712 25.6607 39.1372 25.7865 40.209 25.8932C49.5609 26.669 61.3549 24.9772 69.4047 20.7978L65.614 20.0823L45.9429 23.8242L45.3631 23.9345Z" fill="#ED7004"/>
<path d="M45.9831 32.57V32.5484C45.9831 32.5484 70.5571 24.4099 71.5714 24.1026C73.728 24.84 73.8918 29.2795 72.4278 32.0978C75.3747 30.1906 75.242 23.1059 71.5714 22.2233C70.5571 22.5307 45.9831 30.6692 45.9831 30.6692L35.9724 28.2527L33.6008 27.6802L0.830017 19.7695V21.2841L1.75921 21.5407L44.6643 32.2411L45.9831 32.57Z" fill="#C34109"/>
<path d="M45.9832 42.6584V41.0239L1.75925 29.2618L0.830017 29.1614V30.6692L3.94079 31.4952L45.9832 42.6584Z" fill="#C34109"/>
<path d="M72.8042 14.4919C72.8031 14.3823 72.8005 14.2708 72.7952 14.1558C72.7642 13.4902 72.6765 12.8923 72.5483 12.3585L72.5487 12.3584C72.5075 12.1865 72.462 12.0216 72.4129 11.8631C72.4118 11.8594 72.4106 11.8557 72.4095 11.852C72.361 11.6963 72.3087 11.5471 72.2534 11.4043C72.2514 11.3991 72.2494 11.3939 72.2473 11.3888C72.1921 11.2471 72.1337 11.1117 72.0727 10.9827C72.0707 10.9785 72.0687 10.9744 72.0667 10.9702C72.0047 10.84 71.9401 10.716 71.8732 10.5989C71.8732 10.5988 71.8732 10.5987 71.8732 10.5987C71.191 9.4042 70.2818 8.88474 69.6657 9.00193L63.6847 6.75109L47.0075 0.475098L19.5824 5.69202C19.5824 5.69202 19.5824 5.69202 19.5824 5.69198L11.5543 7.21917V8.11057V9.66952V16.457V17.5288L13.1652 18.135L29.743 24.3737L34.2125 26.0556L37.0081 25.5239L40.845 24.794L40.9085 24.7819L45.0996 23.9847L45.3632 23.9345L45.943 23.8242L65.6141 20.0823L66.0887 19.992L66.8244 19.8521L69.6657 19.3116C69.7027 19.3043 69.7406 19.2962 69.7792 19.2874C69.7936 19.284 69.8086 19.28 69.8231 19.2765C69.8411 19.2721 69.8592 19.2676 69.8773 19.2631C69.8782 19.2628 69.879 19.2626 69.8799 19.2624C69.8858 19.2609 69.8915 19.2596 69.8975 19.258C69.9146 19.2535 69.9321 19.2483 69.9494 19.2434C69.9727 19.2369 69.9959 19.2306 70.0197 19.2234C70.0387 19.2176 70.0582 19.2111 70.0775 19.205C70.1 19.1978 70.1223 19.1909 70.1451 19.1832C70.1657 19.1762 70.1866 19.1684 70.2075 19.1609C70.2294 19.153 70.2513 19.1454 70.2735 19.1369C70.2953 19.1286 70.3174 19.1194 70.3393 19.1106C70.3609 19.1019 70.3823 19.0935 70.404 19.0843C70.4268 19.0746 70.4498 19.0641 70.4728 19.0538C70.494 19.0443 70.5151 19.035 70.5364 19.0249C70.5598 19.0139 70.5834 19.002 70.6069 18.9902C70.6279 18.9798 70.6489 18.9695 70.6699 18.9585C70.6939 18.946 70.7179 18.9327 70.7419 18.9194C70.7626 18.908 70.7833 18.8967 70.8041 18.8848C70.8286 18.8707 70.853 18.8557 70.8775 18.8408C70.8977 18.8284 70.9179 18.8163 70.9381 18.8034C70.963 18.7876 70.9877 18.771 71.0125 18.7543C71.0323 18.741 71.0521 18.7277 71.0719 18.7139C71.0969 18.6963 71.1219 18.6779 71.1468 18.6594C71.166 18.6451 71.1853 18.6308 71.2045 18.616C71.2295 18.5966 71.2544 18.5764 71.2793 18.5561C71.2982 18.5406 71.317 18.5252 71.3358 18.5092C71.3607 18.488 71.3853 18.466 71.4099 18.4437C71.4283 18.4272 71.4465 18.4106 71.4647 18.3935C71.4895 18.3702 71.514 18.3461 71.5385 18.3217C71.556 18.3042 71.5735 18.2866 71.5908 18.2685C71.6153 18.2431 71.6394 18.217 71.6635 18.1904C71.6805 18.1717 71.6973 18.1527 71.7141 18.1334C71.738 18.1058 71.7617 18.0776 71.7852 18.0489C71.8013 18.0291 71.8174 18.009 71.8333 17.9886C71.8567 17.9587 71.8798 17.9282 71.9027 17.897C71.9181 17.8761 71.9332 17.8548 71.9483 17.8332C71.971 17.801 71.9934 17.7681 72.0154 17.7346C72.03 17.7124 72.0444 17.6896 72.0587 17.6668C72.0803 17.6322 72.1018 17.5972 72.1228 17.5612C72.1365 17.5377 72.1499 17.5137 72.1633 17.4897C72.184 17.4525 72.2045 17.4149 72.2245 17.3763C72.2373 17.3515 72.2498 17.3261 72.2623 17.3007C72.2818 17.261 72.3012 17.2209 72.3199 17.1797C72.3316 17.1539 72.3429 17.1273 72.3543 17.1008C72.3728 17.058 72.3911 17.0148 72.4086 16.9704C72.4191 16.9437 72.4291 16.9163 72.4393 16.8891C72.4564 16.8432 72.4734 16.7971 72.4896 16.7495C72.499 16.7216 72.5079 16.6927 72.517 16.6642C72.5327 16.6152 72.5482 16.566 72.5627 16.5153C72.5709 16.4867 72.5785 16.4571 72.5863 16.4279C72.6004 16.3754 72.6144 16.3227 72.6273 16.2684C72.6343 16.2388 72.6405 16.208 72.6472 16.1778C72.6595 16.1219 72.6718 16.0658 72.6827 16.0079C72.6885 15.9779 72.6933 15.9467 72.6986 15.9161C72.7091 15.8558 72.7196 15.7955 72.7287 15.7331C72.733 15.7037 72.7363 15.673 72.7402 15.6431C72.7488 15.5777 72.7574 15.5124 72.7643 15.4448C72.7673 15.4159 72.7693 15.3855 72.772 15.3561C72.7783 15.2856 72.7847 15.2149 72.7893 15.1419C72.7909 15.1154 72.7916 15.0877 72.793 15.061C72.7971 14.9829 72.801 14.9047 72.8029 14.8238C72.8034 14.8045 72.8031 14.7842 72.8034 14.7646C72.8049 14.6748 72.8059 14.5843 72.8047 14.4909C72.8046 14.4912 72.8044 14.4915 72.8042 14.4919Z" fill="#BD1365"/>
<path d="M34.2124 26.0557C35.3817 25.8332 36.5033 25.1276 36.7849 22.7945C36.8495 22.2587 36.87 21.6373 36.8365 20.9161C36.7937 19.9968 36.6605 19.2354 36.4721 18.6048C36.2493 17.8588 35.949 17.297 35.6293 16.8741C35.1307 16.2145 34.5852 15.8934 34.2124 15.746L11.5542 7.21924V8.11064L32.6106 15.8887C33.2943 16.1589 35.4147 17.3451 35.5593 20.4557C35.7101 23.6998 35.0206 24.8866 33.9431 24.8866L11.5542 16.457V17.5288L13.1651 18.1351L29.743 24.3737L34.2124 26.0557Z" fill="#660D37"/>
<path d="M63.6847 6.75109C63.6846 6.75109 63.6846 6.75109 63.6847 6.75109C62.6256 6.95632 61.5562 7.16625 60.479 7.37617L61.8924 7.86494L53.9583 9.25594L52.6708 8.81067C41.301 10.6916 29.5612 11.3732 19.5824 5.69194C19.5824 5.69194 19.5824 5.69194 19.5824 5.69189L11.5543 7.21908L34.2125 15.7459L38.9088 14.8526L39.9062 14.6628L42.1823 14.2298L42.6515 14.1406L64.7692 9.93331L65.0138 9.88674L67.2563 9.46018L67.9971 9.31922L69.6657 9.00185L63.6847 6.75109Z" fill="#9F1C5A"/>
<path d="M35.5593 20.4556C35.4147 17.345 33.2944 16.1588 32.6107 15.8886L11.5542 8.1106V9.66955V16.457L33.9432 24.8865C35.0206 24.8865 35.7102 23.6997 35.5593 20.4556Z" fill="#F2F2F2"/>
<path d="M72.8041 14.492C72.8031 14.3823 72.8005 14.2708 72.7951 14.1559C72.7642 13.4902 72.6764 12.8923 72.5482 12.3585L72.5487 12.3584C72.5075 12.1865 72.462 12.0216 72.4128 11.8632C72.4117 11.8595 72.4106 11.8558 72.4095 11.8521C72.3609 11.6963 72.3087 11.5471 72.2534 11.4044C72.2514 11.3992 72.2493 11.394 72.2473 11.3888C72.192 11.2471 72.1337 11.1117 72.0726 10.9827C72.0707 10.9785 72.0687 10.9744 72.0667 10.9703C72.0047 10.8401 71.9401 10.7161 71.8732 10.5989C71.8732 10.5988 71.8732 10.5988 71.8731 10.5987C71.1909 9.40425 70.2817 8.88479 69.6657 9.00199L67.9972 9.31936L67.2563 9.46032L65.0138 9.88688L64.7692 9.93345L42.6516 14.1407L42.1823 14.23L39.9063 14.6629L38.9088 14.8527L34.2125 15.7461C34.5853 15.8934 35.1309 16.2146 35.6294 16.8741C35.9491 17.297 36.2494 17.8588 36.4722 18.6049C36.6606 19.2354 36.7938 19.9968 36.8366 20.9162C36.8701 21.6374 36.8497 22.2588 36.785 22.7945C36.5034 25.1276 35.3819 25.8333 34.2125 26.0557L37.0082 25.5239L40.845 24.7941L40.9086 24.7819L45.0996 23.9847L45.3632 23.9346L45.943 23.8243L65.6141 20.0824L66.0887 19.9921L66.8245 19.8521L69.6658 19.3116C69.7028 19.3043 69.7407 19.2962 69.7793 19.2874C69.7936 19.2841 69.8086 19.2801 69.8232 19.2765C69.8411 19.2722 69.8592 19.2677 69.8773 19.2631C69.8782 19.2629 69.8791 19.2627 69.8799 19.2625C69.8859 19.261 69.8916 19.2597 69.8976 19.2581C69.9146 19.2536 69.9322 19.2483 69.9494 19.2435C69.9728 19.2369 69.996 19.2306 70.0197 19.2235C70.0388 19.2177 70.0583 19.2112 70.0776 19.2051C70.1 19.1979 70.1223 19.191 70.1452 19.1833C70.1658 19.1763 70.1867 19.1684 70.2075 19.161C70.2295 19.153 70.2513 19.1454 70.2736 19.137C70.2954 19.1286 70.3174 19.1195 70.3394 19.1107C70.3609 19.102 70.3824 19.0936 70.4041 19.0843C70.4268 19.0747 70.4499 19.0641 70.4728 19.0538C70.494 19.0443 70.5152 19.035 70.5364 19.025C70.5599 19.0139 70.5834 19.002 70.607 18.9903C70.628 18.9798 70.649 18.9696 70.67 18.9586C70.694 18.9461 70.718 18.9327 70.742 18.9195C70.7627 18.9081 70.7834 18.8968 70.8041 18.8849C70.8286 18.8707 70.8531 18.8558 70.8776 18.8408C70.8978 18.8285 70.918 18.8163 70.9382 18.8035C70.963 18.7877 70.9878 18.771 71.0125 18.7544C71.0324 18.741 71.0522 18.7278 71.072 18.7139C71.097 18.6963 71.1219 18.6779 71.1468 18.6595C71.1661 18.6452 71.1854 18.6309 71.2045 18.616C71.2296 18.5966 71.2545 18.5765 71.2793 18.5562C71.2982 18.5407 71.3171 18.5253 71.3358 18.5093C71.3607 18.488 71.3854 18.466 71.41 18.4438C71.4283 18.4273 71.4466 18.4106 71.4647 18.3936C71.4895 18.3702 71.5141 18.3462 71.5386 18.3217C71.5561 18.3042 71.5735 18.2866 71.5909 18.2686C71.6153 18.2432 71.6395 18.2171 71.6635 18.1905C71.6805 18.1717 71.6974 18.1527 71.7142 18.1335C71.7381 18.1059 71.7618 18.0777 71.7852 18.0489C71.8014 18.0292 71.8174 18.0091 71.8334 17.9887C71.8568 17.9587 71.8799 17.9282 71.9028 17.897C71.9181 17.8761 71.9333 17.8548 71.9484 17.8333C71.971 17.801 71.9934 17.7682 72.0154 17.7346C72.03 17.7124 72.0444 17.6897 72.0587 17.6668C72.0804 17.6323 72.1018 17.5972 72.1229 17.5612C72.1366 17.5378 72.15 17.5138 72.1634 17.4898C72.1841 17.4526 72.2046 17.4149 72.2246 17.3763C72.2374 17.3515 72.2498 17.3262 72.2623 17.3007C72.2819 17.2611 72.3012 17.221 72.3199 17.1798C72.3317 17.1539 72.343 17.1273 72.3544 17.1009C72.3728 17.058 72.3911 17.0148 72.4087 16.9704C72.4192 16.9438 72.4292 16.9164 72.4393 16.8891C72.4565 16.8433 72.4735 16.7971 72.4896 16.7496C72.4991 16.7217 72.508 16.6928 72.5171 16.6643C72.5327 16.6153 72.5482 16.5661 72.5628 16.5154C72.571 16.4868 72.5785 16.4571 72.5864 16.4279C72.6004 16.3754 72.6144 16.3228 72.6273 16.2684C72.6343 16.2388 72.6406 16.2081 72.6472 16.1779C72.6595 16.1219 72.6718 16.0659 72.6828 16.008C72.6885 15.9779 72.6933 15.9467 72.6987 15.9161C72.7092 15.8559 72.7197 15.7956 72.7287 15.7332C72.733 15.7038 72.7364 15.673 72.7403 15.6431C72.7489 15.5778 72.7575 15.5125 72.7644 15.4449C72.7674 15.4159 72.7694 15.3856 72.772 15.3562C72.7784 15.2856 72.7848 15.215 72.7893 15.1419C72.791 15.1155 72.7916 15.0878 72.7931 15.061C72.7971 14.983 72.8011 14.9047 72.803 14.8239C72.8034 14.8046 72.8031 14.7842 72.8034 14.7647C72.805 14.6748 72.806 14.5843 72.8048 14.4909C72.8046 14.4912 72.8044 14.4916 72.8041 14.492Z" fill="#86144A"/>
<path d="M61.8923 7.86504L60.479 7.37627L46.0993 2.40332L38.1652 3.79432L52.6708 8.81081L53.9583 9.25604L61.8923 7.86504H61.8923H61.8923Z" fill="#660D37"/>
<path d="M16.6413 7.64823L24.74 10.4491L26.0009 10.1917L17.9021 7.39087L16.6413 7.64823Z" fill="#660D37"/>
<path d="M18.7731 7.19755L26.8719 9.99837L28.1326 9.74101L20.0338 6.94019L18.7731 7.19755Z" fill="#660D37"/>
<path d="M42.3407 21.7383C42.3407 21.7381 42.3407 21.7378 42.3407 21.7375C42.3293 21.5176 42.3139 21.2979 42.2918 21.0794C42.1771 19.9486 41.9518 18.8096 41.577 17.7209C41.577 17.7209 41.577 17.7208 41.5769 17.7208C41.5144 17.5391 41.4473 17.359 41.376 17.1805C41.3484 17.1106 41.321 17.0407 41.292 16.9713C41.2643 16.9056 41.2358 16.8404 41.2068 16.7753C41.1374 16.6181 41.0657 16.4618 40.9881 16.3081C40.9318 16.1964 40.8707 16.0867 40.8094 15.9771C40.5509 15.5152 40.2506 15.0729 39.9063 14.6628L38.9088 14.8526L38.6939 14.8935C39.0765 15.2865 39.404 15.7164 39.6852 16.1718C39.6865 16.1739 39.6876 16.1761 39.6888 16.1781C40.0245 16.7228 40.2916 17.3048 40.505 17.9053C40.5052 17.9057 40.5053 17.906 40.5055 17.9064C40.5791 18.1135 40.6485 18.322 40.7095 18.5329C41.0266 19.6295 41.2496 20.7878 41.285 21.9384C41.291 22.1342 41.2914 22.3298 41.2863 22.5248C41.2861 22.531 41.2864 22.5373 41.2862 22.5436C41.2806 22.744 41.2687 22.9438 41.2497 23.1426C41.1955 23.7097 41.0663 24.2679 40.845 24.794L40.9086 24.7818L42.0592 24.563C42.0972 24.4349 42.13 24.3056 42.16 24.1756C42.1706 24.1296 42.1795 24.0832 42.1892 24.0369C42.2066 23.9537 42.2232 23.8703 42.2376 23.7865C42.2476 23.7287 42.2567 23.6709 42.2653 23.6129C42.2757 23.5425 42.2849 23.472 42.2934 23.4012C42.3015 23.3344 42.3096 23.2677 42.316 23.2006C42.3209 23.148 42.3245 23.0952 42.3285 23.0424C42.3522 22.7291 42.3606 22.414 42.354 22.0985C42.354 22.0973 42.354 22.096 42.3539 22.0947C42.3513 21.9758 42.3468 21.8571 42.3407 21.7383Z" fill="#F9B233"/>
<path d="M46.1296 21.6792C46.127 21.5846 46.1234 21.49 46.1184 21.3955C46.1175 21.3775 46.1163 21.3596 46.1153 21.3416C46.1093 21.2355 46.1023 21.1295 46.0936 21.0236C46.0861 20.932 46.0788 20.8404 46.0696 20.7492C45.9442 19.5125 45.69 18.2648 45.2482 17.0852C45.1777 16.897 45.1029 16.7105 45.0226 16.5261C44.9423 16.3411 44.8569 16.1582 44.7659 15.9778C44.6968 15.8407 44.6216 15.7063 44.5442 15.573C44.5015 15.4994 44.4589 15.4257 44.4144 15.3529C44.1203 14.8723 43.7802 14.4158 43.3896 14.0002L42.6515 14.1406L42.1823 14.2299C42.207 14.2789 42.2396 14.3274 42.2881 14.3736C42.6665 14.7335 42.9912 15.1301 43.2758 15.55C43.2758 15.5502 43.2759 15.5503 43.276 15.5504C43.3615 15.6764 43.4422 15.8051 43.52 15.9355C43.5289 15.9503 43.538 15.9651 43.5468 15.98C43.6196 16.1037 43.6887 16.2293 43.755 16.3563C43.7671 16.3795 43.779 16.4028 43.7909 16.4262C43.8541 16.5501 43.9148 16.6754 43.9721 16.8021C43.983 16.8262 43.9933 16.8505 44.004 16.8747C44.0621 17.0058 44.1182 17.1378 44.1703 17.2715C44.1703 17.2716 44.1703 17.2717 44.1703 17.2718C44.2895 17.5775 44.3961 17.888 44.4871 18.2025C44.7689 19.1771 44.9743 20.2004 45.042 21.2236C45.042 21.2238 45.0421 21.2241 45.0421 21.2243C45.056 21.4346 45.0626 21.6449 45.0646 21.8548C45.0652 21.9421 45.0658 22.0294 45.0641 22.1166C45.0629 22.184 45.0611 22.2514 45.0585 22.3187C45.0518 22.4837 45.0431 22.6484 45.0274 22.8122C44.9874 23.2311 44.9071 23.6455 44.779 24.0455L45.0995 23.9846L45.3631 23.9344L45.9429 23.8241C45.9701 23.7046 45.9937 23.5844 46.0147 23.4637C46.0227 23.4179 46.0285 23.3718 46.0356 23.3259C46.0471 23.2514 46.0588 23.177 46.0681 23.1021C46.0755 23.0432 46.0809 22.984 46.0871 22.9249C46.0933 22.8637 46.0999 22.8026 46.1048 22.7413C46.1103 22.6731 46.1142 22.6048 46.1181 22.5365C46.121 22.4851 46.1241 22.4339 46.1262 22.3824C46.1293 22.3058 46.1311 22.2291 46.1324 22.1523C46.133 22.1108 46.1337 22.0692 46.1339 22.0277C46.1342 21.9426 46.1336 21.8574 46.1319 21.7722C46.1313 21.7412 46.1305 21.7102 46.1296 21.6792Z" fill="#F9B233"/>
<path d="M66.822 17.6097C66.8131 17.4351 66.8042 17.2606 66.7913 17.0863L66.7871 17.0871C66.6965 15.8644 66.5066 14.6488 66.2142 13.455L66.2164 13.4546C66.183 13.3182 66.1437 13.1832 66.1077 13.0473C66.0653 12.8873 66.0257 12.7267 65.9796 12.5676C65.8925 12.2658 65.799 11.9657 65.6986 11.6676L65.6979 11.6677C65.6925 11.6516 65.6882 11.6351 65.6827 11.619C65.4839 11.0335 65.2591 10.4563 65.0138 9.88672L64.7692 9.93329L63.9395 10.0912C64.1952 10.6692 64.4239 11.2574 64.6273 11.8532C64.6274 11.8534 64.6275 11.8537 64.6275 11.854C64.7275 12.1469 64.8209 12.4417 64.9079 12.7381C64.9084 12.7396 64.9089 12.7412 64.9093 12.7427C64.9964 13.0398 65.0772 13.3385 65.1514 13.6386C65.1515 13.6387 65.1515 13.6389 65.1515 13.639C65.4484 14.8384 65.6407 16.0601 65.7255 17.2891C65.7255 17.2894 65.7255 17.2897 65.7256 17.29C65.7366 17.4497 65.7457 17.6097 65.7532 17.7696C65.7542 17.7907 65.755 17.8118 65.7559 17.8329C65.7622 17.9758 65.7672 18.1188 65.7706 18.2619C65.772 18.3235 65.7725 18.3851 65.7733 18.4467C65.7749 18.5556 65.7767 18.6645 65.7766 18.7734C65.7762 18.9519 65.7743 19.1305 65.7693 19.309C65.7623 19.5593 65.7508 19.8094 65.7349 20.0592L65.8511 20.0371L66.0886 19.9919L66.8243 19.852C66.8399 19.5481 66.8466 19.2438 66.8494 18.9396C66.8503 18.8511 66.8505 18.7627 66.8503 18.6742C66.8495 18.4094 66.8449 18.1448 66.8346 17.8802C66.8313 17.7898 66.8266 17.6998 66.822 17.6097Z" fill="#F9B233"/>
<path d="M70.1193 17.1392C70.1167 17.0741 70.1117 17.0092 70.1085 16.9442C70.1006 16.7828 70.0932 16.6216 70.0818 16.4604L70.0769 16.4613C69.992 15.2567 69.8132 14.0581 69.5324 12.8805L69.5331 12.8804C69.4607 12.5765 69.3813 12.274 69.2957 11.9732C69.2509 11.8154 69.1996 11.6595 69.1512 11.5027C69.1089 11.3658 69.07 11.2279 69.025 11.0917L69.0227 11.0921C69.0034 11.0335 68.9874 10.974 68.9675 10.9155C68.7772 10.3549 68.5632 9.80186 68.3302 9.25586L67.9972 9.31918L67.2563 9.46014C67.5173 10.056 67.7491 10.6627 67.9547 11.277C68.1518 11.8661 68.3227 12.4627 68.4678 13.0647V13.0648C68.7528 14.2479 68.9368 15.4521 69.0158 16.6632V16.6633C69.0362 16.9753 69.0493 17.2877 69.0561 17.6003C69.0567 17.6292 69.0569 17.6581 69.0574 17.6869C69.0628 17.9931 69.0627 18.2993 69.0542 18.6055C69.0464 18.8825 69.032 19.1591 69.0133 19.4354L69.6657 19.3113C69.7335 19.298 69.8043 19.2818 69.8773 19.2628C69.8782 19.2626 69.879 19.2624 69.8799 19.2621C69.9534 19.2429 70.0292 19.2208 70.1065 19.1954C70.1228 18.8889 70.1302 18.5821 70.1336 18.2752C70.1346 18.1913 70.1352 18.1074 70.1352 18.0234C70.1351 17.7287 70.1312 17.4339 70.1193 17.1392Z" fill="#F9B233"/>
<path d="M42.1599 24.1756C42.1705 24.1295 42.1794 24.0831 42.1891 24.0369C42.2066 23.9536 42.2231 23.8702 42.2375 23.7864C42.2475 23.7287 42.2566 23.6709 42.2652 23.6129C42.2756 23.5425 42.2848 23.4719 42.2933 23.4012C42.3014 23.3344 42.3095 23.2676 42.3159 23.2006C42.3208 23.1479 42.3244 23.0951 42.3284 23.0423C42.3521 22.7291 42.3605 22.4139 42.3539 22.0985C42.3539 22.0972 42.3539 22.0959 42.3538 22.0947C42.3514 21.9758 42.3469 21.8572 42.3407 21.7384C42.3407 21.7381 42.3407 21.7378 42.3407 21.7375L41.285 21.9383C41.291 22.1342 41.2913 22.3297 41.2862 22.5248C41.286 22.531 41.2864 22.5373 41.2862 22.5435C41.2805 22.7439 41.2687 22.9437 41.2497 23.1425C41.1955 23.7097 41.0663 24.2679 40.845 24.7939L40.9085 24.7818L42.0591 24.5629C42.0971 24.4348 42.1299 24.3055 42.1599 24.1756Z" fill="#F07E31"/>
<path d="M45.0421 21.2237C45.0421 21.2239 45.0422 21.2242 45.0422 21.2244C45.0561 21.4348 45.0627 21.6451 45.0647 21.855C45.0653 21.9423 45.0659 22.0296 45.0642 22.1167C45.063 22.1842 45.0612 22.2516 45.0586 22.3189C45.0519 22.4838 45.0431 22.6486 45.0275 22.8123C44.9874 23.2313 44.9072 23.6456 44.7791 24.0457L45.0996 23.9847L45.3632 23.9346L45.943 23.8243C45.9702 23.7048 45.9938 23.5846 46.0148 23.4639C46.0227 23.4181 46.0286 23.372 46.0357 23.326C46.0472 23.2515 46.0589 23.1772 46.0682 23.1023C46.0756 23.0434 46.081 22.9842 46.0871 22.9251C46.0934 22.8639 46.1 22.8028 46.1049 22.7414C46.1104 22.6732 46.1143 22.6049 46.1182 22.5366C46.1211 22.4853 46.1242 22.434 46.1263 22.3826C46.1294 22.3059 46.1312 22.2292 46.1325 22.1525C46.1331 22.1109 46.1338 22.0694 46.134 22.0278C46.1343 21.9427 46.1337 21.8576 46.132 21.7724C46.1313 21.7413 46.1306 21.7103 46.1297 21.6792C46.127 21.5846 46.1234 21.4901 46.1185 21.3956C46.1175 21.3776 46.1164 21.3597 46.1154 21.3417C46.1093 21.2356 46.1023 21.1295 46.0937 21.0237L45.0421 21.2237Z" fill="#F07E31"/>
<path d="M66.8504 18.6742C66.8496 18.4095 66.845 18.1448 66.8347 17.8802C66.8313 17.79 66.8266 17.7 66.822 17.6098C66.8131 17.4353 66.8042 17.2608 66.7913 17.0864L66.7871 17.0873L65.7256 17.2892C65.7256 17.2895 65.7256 17.2898 65.7257 17.2901C65.7367 17.4498 65.7457 17.6097 65.7533 17.7697C65.7542 17.7908 65.7551 17.8119 65.756 17.833C65.7623 17.9759 65.7673 18.1189 65.7707 18.262C65.7721 18.3236 65.7725 18.3852 65.7734 18.4468C65.775 18.5557 65.7767 18.6646 65.7767 18.7735C65.7763 18.952 65.7744 19.1306 65.7694 19.3091C65.7624 19.5594 65.7509 19.8095 65.735 20.0593L65.8512 20.0372L66.0887 19.992L66.8244 19.852C66.84 19.5481 66.8467 19.2439 66.8495 18.9397C66.8504 18.8511 66.8506 18.7627 66.8504 18.6742Z" fill="#F07E31"/>
<path d="M70.1337 18.2753C70.1347 18.1914 70.1353 18.1075 70.1353 18.0235C70.1351 17.7287 70.1312 17.4339 70.1194 17.1393C70.1168 17.0742 70.1117 17.0092 70.1086 16.9442C70.1007 16.7829 70.0932 16.6216 70.0818 16.4604L70.077 16.4614L69.016 16.6632V16.6634C69.0363 16.9753 69.0494 17.2878 69.0562 17.6004C69.0568 17.6293 69.057 17.6582 69.0575 17.687C69.0629 17.9931 69.0628 18.2994 69.0543 18.6056C69.0466 18.8826 69.0321 19.1592 69.0134 19.4355L69.6658 19.3114C69.7336 19.2981 69.8044 19.2819 69.8774 19.2629C69.8783 19.2626 69.8791 19.2625 69.88 19.2622C69.9535 19.243 70.0293 19.2208 70.1066 19.1955C70.1229 18.889 70.1303 18.5822 70.1337 18.2753Z" fill="#F07E31"/>
<path d="M41.5769 17.7208L41.5769 17.7207C41.5144 17.539 41.4473 17.359 41.376 17.1804C41.3484 17.1105 41.321 17.0406 41.292 16.9712C41.2643 16.9056 41.2357 16.8403 41.2067 16.7752C41.1374 16.618 41.0656 16.4618 40.9881 16.308C40.9318 16.1963 40.8707 16.0866 40.8094 15.9771L39.6851 16.1717C39.6864 16.1738 39.6875 16.176 39.6888 16.1781C40.0244 16.7228 40.2915 17.3048 40.5049 17.9052C40.5051 17.9056 40.5052 17.906 40.5054 17.9064L41.5769 17.7208Z" fill="#FFD332"/>
<path d="M43.5469 15.9802C43.6197 16.1038 43.6888 16.2294 43.7551 16.3564C43.7672 16.3796 43.7791 16.403 43.791 16.4263C43.8542 16.5503 43.9149 16.6755 43.9722 16.8022C43.9831 16.8263 43.9934 16.8506 44.0041 16.8749C44.0621 17.006 44.1183 17.138 44.1703 17.2716C44.1704 17.2718 44.1704 17.2719 44.1705 17.2719L45.2482 17.0853C45.1777 16.8972 45.1026 16.7106 45.0226 16.5262C44.9423 16.3412 44.8568 16.1583 44.7659 15.9779C44.6968 15.8408 44.6216 15.7064 44.5442 15.5731C44.5015 15.4995 44.4589 15.4258 44.4144 15.353L43.2758 15.5502C43.2759 15.5503 43.276 15.5504 43.276 15.5505C43.3615 15.6766 43.4422 15.8053 43.5201 15.9356C43.529 15.9505 43.5381 15.9653 43.5469 15.9802Z" fill="#FFD332"/>
<path d="M64.9093 12.7427C64.9965 13.0398 65.0772 13.3385 65.1515 13.6386C65.1515 13.6388 65.1516 13.6389 65.1516 13.6391L66.2142 13.4551L66.2164 13.4547C66.183 13.3183 66.1437 13.1833 66.1077 13.0474C66.0653 12.8874 66.0257 12.7268 65.9796 12.5677C65.8924 12.2659 65.799 11.9658 65.6986 11.6677L65.6979 11.6678L64.6273 11.8532C64.6273 11.8535 64.6274 11.8538 64.6275 11.8541C64.7275 12.147 64.8209 12.4418 64.9079 12.7382C64.9084 12.7396 64.9089 12.7411 64.9093 12.7427Z" fill="#FFD332"/>
<path d="M68.4677 13.0649V13.065L69.5324 12.8806L69.5331 12.8805C69.4606 12.5766 69.3813 12.2741 69.2957 11.9733C69.2509 11.8155 69.1996 11.6596 69.1512 11.5028C69.1089 11.3659 69.0699 11.228 69.0249 11.0918L69.0227 11.0922L67.9547 11.2771C68.1518 11.8663 68.3227 12.4628 68.4677 13.0649Z" fill="#FFD332"/>
<path d="M65.9796 12.5677C66.0257 12.7268 66.0652 12.8875 66.1077 13.0475C66.1437 13.1833 66.183 13.3184 66.2164 13.4547L66.2142 13.4551L68.4678 13.0649V13.0648C68.3228 12.4628 68.1518 11.8662 67.9547 11.2771L65.698 11.6678L65.6986 11.6677C65.799 11.9658 65.8925 12.266 65.9796 12.5677Z" fill="#A80F59"/>
<path d="M44.7659 15.9779C44.8569 16.1583 44.9422 16.3412 45.0226 16.5262C45.1029 16.7105 45.1777 16.8971 45.2482 17.0853L65.1516 13.6391C65.1516 13.639 65.1516 13.6389 65.1515 13.6387C65.0772 13.3386 64.9965 13.0399 64.9094 12.7428C64.909 12.7413 64.9085 12.7397 64.908 12.7382C64.821 12.4418 64.7276 12.147 64.6276 11.8541C64.6275 11.8539 64.6274 11.8536 64.6274 11.8533L44.4144 15.353C44.4589 15.4257 44.5015 15.4994 44.5443 15.573C44.6216 15.7064 44.6968 15.8408 44.7659 15.9779Z" fill="#A80F59"/>
<path d="M69.025 11.0918C69.0699 11.2279 69.1089 11.3658 69.1512 11.5028C69.1996 11.6596 69.2509 11.8155 69.2957 11.9733C69.3814 12.2741 69.4607 12.5765 69.5331 12.8805L72.5482 12.3584L72.5486 12.3583C72.5075 12.1864 72.4619 12.0215 72.4128 11.8631C72.4117 11.8594 72.4106 11.8557 72.4095 11.852C72.3609 11.6962 72.3087 11.5471 72.2533 11.4043C72.2513 11.3991 72.2493 11.3939 72.2473 11.3887C72.192 11.247 72.1337 11.1116 72.0726 10.9826C72.0707 10.9785 72.0686 10.9744 72.0666 10.9702C72.0047 10.84 71.9401 10.716 71.8732 10.5988C71.8731 10.5988 71.8731 10.5987 71.8731 10.5986L69.0227 11.0922L69.025 11.0918Z" fill="#A80F59"/>
<path d="M40.5049 17.9054C40.2915 17.3049 40.0244 16.7229 39.6887 16.1782C39.6874 16.1761 39.6864 16.174 39.6851 16.1719L35.6293 16.8741C35.949 17.2971 36.2493 17.8588 36.4721 18.6049L40.5054 17.9066C40.5052 17.9062 40.505 17.9058 40.5049 17.9054Z" fill="#A80F59"/>
<path d="M41.2068 16.7752C41.2358 16.8404 41.2643 16.9057 41.292 16.9713C41.321 17.0407 41.3484 17.1106 41.376 17.1805C41.4473 17.359 41.5144 17.539 41.5769 17.7208C41.5769 17.7208 41.5769 17.7208 41.577 17.7209L44.1705 17.2719C44.1705 17.2717 44.1704 17.2716 44.1704 17.2715C44.1183 17.1379 44.0622 17.0059 44.0041 16.8747C43.9934 16.8505 43.9832 16.8262 43.9723 16.8021C43.9149 16.6754 43.8542 16.5501 43.791 16.4262C43.7791 16.4028 43.7672 16.3795 43.7551 16.3563C43.6888 16.2293 43.6197 16.1037 43.5469 15.9801C43.5382 15.9651 43.529 15.9504 43.5202 15.9355C43.4423 15.8051 43.3615 15.6765 43.2761 15.5504C43.276 15.5503 43.2759 15.5501 43.2759 15.55L40.8094 15.9771C40.8708 16.0867 40.9319 16.1964 40.9882 16.3081C41.0656 16.4618 41.1374 16.6181 41.2068 16.7752Z" fill="#A80F59"/>
<path d="M65.735 20.0592C65.7509 19.8093 65.7624 19.5593 65.7693 19.309C65.7743 19.1305 65.7763 18.9519 65.7766 18.7734C65.7767 18.6644 65.775 18.5555 65.7733 18.4467C65.7725 18.3851 65.772 18.3235 65.7706 18.2619C65.7672 18.1188 65.7623 17.9758 65.756 17.8329C65.7551 17.8118 65.7542 17.7906 65.7532 17.7696C65.7457 17.6096 65.7367 17.4498 65.7256 17.29C65.7256 17.2897 65.7256 17.2894 65.7255 17.2891L46.0936 21.0235C46.1022 21.1294 46.1092 21.2354 46.1153 21.3415C46.1163 21.3595 46.1175 21.3775 46.1184 21.3955C46.1234 21.49 46.1269 21.5845 46.1296 21.6791C46.1305 21.7101 46.1312 21.7412 46.1319 21.7723C46.1336 21.8574 46.1343 21.9426 46.1339 22.0277C46.1337 22.0692 46.1331 22.1108 46.1324 22.1523C46.1312 22.2291 46.1293 22.3058 46.1262 22.3824C46.1242 22.4339 46.1211 22.4851 46.1181 22.5365C46.1142 22.6048 46.1103 22.6731 46.1048 22.7413C46.0999 22.8027 46.0933 22.8638 46.0871 22.925C46.081 22.9841 46.0756 23.0432 46.0682 23.1022C46.0589 23.177 46.0471 23.2514 46.0356 23.3259C46.0285 23.3718 46.0226 23.418 46.0147 23.4637C45.9937 23.5845 45.9701 23.7047 45.9429 23.8241L65.614 20.0822L66.0886 19.9919L65.8512 20.0371L65.735 20.0592Z" fill="#721544"/>
<path d="M70.2442 16.4295L70.0817 16.4604C70.0931 16.6216 70.1006 16.7829 70.1085 16.9442C70.1117 17.0092 70.1167 17.0742 70.1193 17.1393C70.1311 17.4339 70.135 17.7287 70.1352 18.0235C70.1352 18.1075 70.1346 18.1914 70.1336 18.2753C70.1302 18.5822 70.1228 18.889 70.1065 19.1955C70.0291 19.2209 69.9533 19.2431 69.8799 19.2623C69.8858 19.2608 69.8915 19.2595 69.8975 19.2579C69.9146 19.2534 69.9321 19.2481 69.9494 19.2433C69.9727 19.2367 69.9959 19.2304 70.0197 19.2233C70.0387 19.2175 70.0582 19.211 70.0775 19.2049C70.1 19.1977 70.1223 19.1908 70.1451 19.1831C70.1657 19.1761 70.1866 19.1682 70.2075 19.1608C70.2294 19.1528 70.2513 19.1452 70.2735 19.1368C70.2953 19.1284 70.3174 19.1193 70.3393 19.1105C70.3609 19.1018 70.3823 19.0934 70.404 19.0841C70.4268 19.0745 70.4498 19.0639 70.4728 19.0536C70.494 19.0441 70.5151 19.0348 70.5364 19.0248C70.5598 19.0137 70.5834 19.0018 70.6069 18.9901C70.6279 18.9796 70.6489 18.9694 70.6699 18.9584C70.6939 18.9459 70.7179 18.9325 70.7419 18.9193C70.7626 18.9079 70.7833 18.8966 70.8041 18.8847C70.8286 18.8705 70.853 18.8556 70.8775 18.8406C70.8977 18.8283 70.9179 18.8161 70.9381 18.8033C70.963 18.7875 70.9877 18.7708 71.0125 18.7542C71.0323 18.7408 71.0521 18.7276 71.0719 18.7137C71.0969 18.6961 71.1219 18.6777 71.1468 18.6593C71.166 18.645 71.1853 18.6307 71.2045 18.6158C71.2295 18.5964 71.2544 18.5763 71.2792 18.556C71.2982 18.5405 71.317 18.5251 71.3358 18.5091C71.3607 18.4878 71.3853 18.4658 71.4099 18.4436C71.4283 18.4271 71.4465 18.4105 71.4647 18.3934C71.4894 18.37 71.514 18.346 71.5385 18.3215C71.556 18.304 71.5735 18.2864 71.5908 18.2684C71.6153 18.243 71.6394 18.2169 71.6635 18.1903C71.6805 18.1715 71.6973 18.1525 71.7141 18.1333C71.738 18.1057 71.7617 18.0775 71.7852 18.0488C71.8013 18.029 71.8174 18.0089 71.8333 17.9885C71.8567 17.9586 71.8798 17.928 71.9027 17.8968C71.9181 17.8759 71.9332 17.8546 71.9483 17.8331C71.971 17.8008 71.9934 17.768 72.0154 17.7344C72.03 17.7122 72.0444 17.6895 72.0587 17.6666C72.0803 17.6321 72.1018 17.597 72.1228 17.561C72.1365 17.5376 72.1499 17.5136 72.1633 17.4896C72.184 17.4524 72.2045 17.4148 72.2245 17.3761C72.2373 17.3513 72.2498 17.326 72.2623 17.3005C72.2818 17.2609 72.3012 17.2208 72.3199 17.1796C72.3316 17.1537 72.3429 17.1272 72.3543 17.1007C72.3728 17.0578 72.3911 17.0146 72.4086 16.9702C72.4191 16.9436 72.4291 16.9162 72.4393 16.8889C72.4564 16.8431 72.4734 16.7969 72.4896 16.7494C72.499 16.7215 72.5079 16.6926 72.517 16.6641C72.5327 16.6151 72.5482 16.5659 72.5627 16.5152C72.5709 16.4866 72.5785 16.4569 72.5863 16.4277C72.6004 16.3752 72.6144 16.3226 72.6273 16.2682C72.6343 16.2386 72.6405 16.2079 72.6472 16.1777C72.6595 16.1217 72.6718 16.0657 72.6827 16.0078C72.6885 15.9777 72.6933 15.9465 72.6986 15.9159C72.7091 15.8557 72.7196 15.7954 72.7287 15.733C72.733 15.7036 72.7363 15.6728 72.7402 15.6429C72.7488 15.5776 72.7574 15.5123 72.7643 15.4447C72.7673 15.4157 72.7693 15.3854 72.772 15.356C72.7783 15.2854 72.7847 15.2148 72.7893 15.1417C72.7909 15.1153 72.7916 15.0876 72.793 15.0609C72.7971 14.9828 72.801 14.9045 72.8029 14.8237C72.8034 14.8044 72.8031 14.784 72.8034 14.7645C72.8049 14.6746 72.8059 14.5841 72.8047 14.4907C72.8045 14.4911 72.8043 14.4915 72.8041 14.4919C72.1281 15.8006 71.0068 16.2797 70.2442 16.4295Z" fill="#721544"/>
<path d="M69.0542 18.6057C69.0627 18.2995 69.0628 17.9932 69.0574 17.6871C69.0569 17.6582 69.0567 17.6294 69.0561 17.6005C69.0493 17.2879 69.0362 16.9754 69.0159 16.6635V16.6633L66.7913 17.0865C66.8042 17.2608 66.8131 17.4353 66.822 17.6098C66.8266 17.7 66.8313 17.79 66.8347 17.8802C66.8449 18.1449 66.8496 18.4095 66.8504 18.6743C66.8506 18.7628 66.8504 18.8511 66.8495 18.9396C66.8467 19.2439 66.84 19.5481 66.8244 19.852L69.6657 19.3115L69.0133 19.4356C69.032 19.1593 69.0465 18.8827 69.0542 18.6057Z" fill="#721544"/>
<path d="M45.0275 22.8122C45.0431 22.6484 45.0519 22.4837 45.0586 22.3187C45.0611 22.2514 45.063 22.184 45.0641 22.1166C45.0658 22.0294 45.0653 21.9421 45.0647 21.8548C45.0626 21.6449 45.0561 21.4346 45.0421 21.2243C45.0421 21.2241 45.0421 21.2238 45.0421 21.2236L42.3406 21.7375H42.3406C42.3406 21.7378 42.3406 21.7381 42.3406 21.7384C42.3468 21.8571 42.3513 21.9758 42.3537 22.0947C42.3537 22.0959 42.3537 22.0972 42.3538 22.0984C42.3602 22.414 42.3524 22.729 42.3283 23.0423C42.3243 23.0951 42.3207 23.1479 42.3158 23.2006C42.3093 23.2676 42.3012 23.3343 42.2932 23.4012C42.2848 23.4719 42.2755 23.5424 42.2651 23.6129C42.2565 23.6708 42.2474 23.7287 42.2374 23.7864C42.223 23.8702 42.2065 23.9536 42.189 24.0369C42.1793 24.0831 42.1705 24.1295 42.1598 24.1756C42.1298 24.3055 42.0969 24.4348 42.059 24.5629L40.9084 24.7818L45.0994 23.9846L44.779 24.0455C44.9072 23.6455 44.9874 23.2311 45.0275 22.8122Z" fill="#721544"/>
<path d="M41.2496 23.1427C41.2686 22.9438 41.2805 22.744 41.2861 22.5437C41.2863 22.5374 41.286 22.5311 41.2861 22.5249C41.2912 22.3299 41.2909 22.1343 41.2849 21.9385L36.7849 22.7945C36.5033 25.1276 35.3817 25.8333 34.2124 26.0557L37.008 25.524L40.8449 24.7941C41.0662 24.268 41.1954 23.7098 41.2496 23.1427Z" fill="#721544"/>
<path d="M35.5593 20.4556C35.4147 17.345 33.2944 16.1588 32.6107 15.8886L11.5542 8.1106V9.66955L30.6097 16.7085C31.2934 16.9787 33.4137 18.1649 33.5584 21.2755C33.6309 22.8348 33.5088 23.9176 33.2432 24.623L11.5542 16.457L33.9432 24.8865C35.0206 24.8865 35.7102 23.6997 35.5593 20.4556Z" fill="#DBDBDB"/>
<path d="M52.6714 8.81101L53.9582 9.25603L61.8923 7.86503H61.8922L60.4788 7.37622C57.9137 7.87606 55.3026 8.37553 52.6714 8.81101Z" fill="#4C0525"/>
<path d="M47.6805 33.9164C51.9209 32.5011 64.7188 27.9264 70.262 27.0438C72.4103 26.7017 72.2559 32.209 72.4278 32.0978C73.8918 29.2794 73.728 24.84 71.5714 24.1025C70.5571 24.4099 45.9832 32.5484 45.9832 32.5484V32.57V41.0238C45.9832 41.0238 46.6072 34.2747 47.6805 33.9164Z" fill="#BDC7C7"/>
<path d="M43.9864 34.9733L45.9831 41.024V32.5701L44.6643 32.2412L1.75922 21.5408V29.2619L3.03991 23.3496L43.9864 34.9733Z" fill="#DBDBDB"/>
<path d="M45.9484 55.9142C45.9484 55.9142 44.6338 55.5741 44.3529 51.9961C44.0589 48.2517 46.2359 47.7423 46.2359 47.7423L80.6995 38.7294L81.2308 38.5905V37.5037L58.8107 42.96L44.6643 46.4028C44.5821 46.4335 44.5033 46.4719 44.4261 46.5135C44.4093 46.5226 44.3922 46.5312 44.3755 46.5408C44.3078 46.5798 44.2423 46.6237 44.1784 46.6707C44.1521 46.6902 44.1261 46.7106 44.1005 46.7315C44.0579 46.7658 44.0166 46.8026 43.9758 46.8404C43.9277 46.8851 43.8809 46.9321 43.8353 46.9815C43.8165 47.0017 43.7979 47.0224 43.7795 47.0434C43.7056 47.1284 43.6346 47.2185 43.5673 47.315C42.5554 48.7657 42.3057 51.4846 42.7256 53.7883C42.7823 54.0989 42.8511 54.4019 42.9317 54.6931C42.9329 54.6974 42.9341 54.7017 42.9352 54.7059C42.9606 54.7969 42.9873 54.8866 43.0149 54.9752C43.0205 54.993 43.0263 55.0106 43.032 55.0283C43.0871 55.2009 43.1465 55.3688 43.2105 55.5304C43.2124 55.5352 43.2141 55.5403 43.2161 55.5451C43.2419 55.6099 43.2692 55.6726 43.2964 55.7353C43.315 55.7781 43.3338 55.8206 43.3531 55.8624C43.3785 55.9177 43.4042 55.9727 43.4308 56.0262C43.4617 56.0883 43.4938 56.1484 43.5262 56.2078C43.557 56.2646 43.5885 56.3198 43.6208 56.3741C43.6568 56.4346 43.6934 56.4943 43.7311 56.5517C43.7536 56.5859 43.7765 56.6191 43.7996 56.6521C43.8404 56.7103 43.8822 56.7665 43.9249 56.8209C43.9433 56.8445 43.9613 56.869 43.9801 56.8918C44.0408 56.9653 44.1035 57.0348 44.1679 57.1003C44.1855 57.1181 44.2037 57.1343 44.2216 57.1515C44.2736 57.2017 44.3268 57.2493 44.3811 57.2939C44.4017 57.3108 44.4223 57.3278 44.4432 57.344C44.5151 57.3992 44.5883 57.4513 44.664 57.4964C44.6641 57.4964 44.6641 57.4965 44.6643 57.4966L81.2308 49.3253V48.2396L80.6038 48.376L47.7832 55.515L45.9484 55.9142Z" fill="#3F6837"/>
<path d="M43.5674 47.3151C43.6347 47.2186 43.7057 47.1285 43.7796 47.0435C43.798 47.0225 43.8165 47.0018 43.8353 46.9815C43.8809 46.9321 43.9278 46.8852 43.9758 46.8404C44.0166 46.8027 44.0579 46.7658 44.1005 46.7315C44.1262 46.7107 44.1521 46.6903 44.1785 46.6707C44.2424 46.6237 44.3078 46.5798 44.3756 46.5409C44.3922 46.5312 44.4093 46.5227 44.4261 46.5136C44.5034 46.472 44.5821 46.4337 44.6643 46.4028L3.03991 31.6111C2.97989 31.6205 2.9215 31.6332 2.864 31.648C2.8466 31.6525 2.82972 31.658 2.81257 31.663C2.77213 31.6747 2.73213 31.6873 2.69288 31.7016C2.6749 31.7082 2.65713 31.7151 2.63941 31.7223C2.60012 31.7381 2.56149 31.7552 2.52353 31.7736C2.50891 31.7807 2.49421 31.7875 2.47981 31.7949C2.43117 31.82 2.38351 31.847 2.33713 31.8764C2.3346 31.878 2.33194 31.8794 2.32942 31.881C2.2767 31.9147 2.22536 31.9511 2.17539 31.9901C2.17495 31.9904 2.17451 31.9909 2.17402 31.9913C2.12662 32.0284 2.08064 32.0681 2.03577 32.1098C2.02917 32.1159 2.02274 32.1222 2.01619 32.1284C1.97623 32.1663 1.93721 32.2059 1.89929 32.2474C1.89362 32.2535 1.8879 32.2597 1.88228 32.2659C1.8401 32.3129 1.79895 32.3616 1.75922 32.4126C1.76125 32.4134 1.76334 32.4141 1.76537 32.4149C15.6289 37.4616 29.6814 41.9844 43.5674 47.3151Z" fill="#B3BE11"/>
<path d="M81.2308 37.5036L69.8151 34.7061C69.6493 34.7613 69.4798 34.8179 69.3055 34.8761L81.2308 37.5036Z" fill="#B7CD00"/>
<path d="M48.2217 41.9115C51.7253 42.4049 55.2619 42.7487 58.8108 42.96L81.2308 37.5037L69.3055 34.8762C63.4088 36.8438 52.8229 40.3761 48.2217 41.9115Z" fill="#95C11F"/>
<path d="M44.6641 57.4964C44.5883 57.4513 44.5152 57.3993 44.4433 57.344C44.4224 57.3279 44.4018 57.3109 44.3812 57.294C44.3269 57.2493 44.2737 57.2018 44.2216 57.1516C44.2038 57.1344 44.1856 57.1182 44.168 57.1003C44.1036 57.0349 44.0409 56.9654 43.9801 56.8918C43.9614 56.8691 43.9434 56.8445 43.925 56.8209C43.8823 56.7666 43.8405 56.7104 43.7997 56.6521C43.7766 56.6191 43.7536 56.5859 43.7312 56.5517C43.6934 56.4944 43.6569 56.4347 43.6209 56.3741C43.5887 56.3199 43.5571 56.2646 43.5263 56.2079C43.4938 56.1484 43.4618 56.0883 43.4309 56.0263C43.4043 55.9728 43.3786 55.9178 43.3531 55.8624C43.3339 55.8206 43.3151 55.7782 43.2965 55.7354C43.2692 55.6726 43.242 55.61 43.2162 55.5452C43.2142 55.5403 43.2125 55.5353 43.2105 55.5304C43.1466 55.3688 43.0872 55.201 43.0321 55.0283C43.0264 55.0106 43.0206 54.9931 43.015 54.9752C42.9873 54.8867 42.9607 54.797 42.9353 54.706C42.9341 54.7017 42.933 54.6974 42.9318 54.6931C42.8512 54.4019 42.7823 54.099 42.7257 53.7884C34.4012 50.5827 3.55859 40.6004 0.831346 37.9892C0.830947 37.9888 0.830371 37.9884 0.830017 37.988C0.831036 37.9969 0.832896 38.0055 0.833959 38.0144C0.862398 38.2507 0.898368 38.4843 0.939255 38.7151C0.948513 38.7674 0.958347 38.8189 0.96827 38.8709C1.0127 39.1042 1.06121 39.335 1.11804 39.5581C1.11933 39.5632 1.12066 39.5683 1.12194 39.5734C1.21616 39.9411 1.32699 40.292 1.45333 40.6188C1.45714 40.6286 1.46091 40.6384 1.46472 40.6482C1.50498 40.7511 1.54676 40.8516 1.59012 40.9493C1.59415 40.9585 1.59832 40.9673 1.60239 40.9764C1.69068 41.1731 1.7853 41.3583 1.88581 41.5302C1.89175 41.5403 1.89759 41.5508 1.90358 41.5608C1.95164 41.6417 2.00112 41.7191 2.0518 41.7936C2.06017 41.8059 2.06863 41.818 2.07709 41.8301C2.12847 41.9039 2.18092 41.9748 2.23492 42.0416C2.24037 42.0484 2.24595 42.0546 2.25145 42.0613C2.30434 42.1257 2.35843 42.1866 2.41375 42.244C2.41951 42.2499 2.42505 42.2563 2.43085 42.2622C2.48715 42.3195 2.54492 42.3722 2.60361 42.4218C2.6146 42.431 2.62554 42.4403 2.63662 42.4493C2.69482 42.4966 2.75414 42.5403 2.81465 42.5795C2.82493 42.5862 2.83534 42.5922 2.84566 42.5986C2.90936 42.6382 2.9739 42.6747 3.03999 42.705C3.08646 42.721 3.24979 42.7785 3.51721 42.8731C3.59363 42.9001 3.6785 42.9302 3.77161 42.9631C3.86468 42.9961 3.96599 43.032 4.07519 43.0707C4.18443 43.1094 4.30151 43.1509 4.42625 43.1951C4.55095 43.2393 4.68326 43.2862 4.82285 43.3358C4.89266 43.3606 4.96429 43.386 5.03774 43.412C5.33143 43.5162 5.65374 43.6306 6.00228 43.7543C6.17654 43.8162 6.35737 43.8804 6.54448 43.9468C6.63804 43.98 6.73315 44.0138 6.82976 44.0481C7.02303 44.1167 7.22246 44.1875 7.42765 44.2604C7.53024 44.2968 7.6343 44.3338 7.73977 44.3713C7.95072 44.4462 8.16733 44.5231 8.38931 44.6019C8.50028 44.6413 8.61261 44.6813 8.72628 44.7216C9.29445 44.9234 9.89526 45.1368 10.524 45.3602C10.9641 45.5166 11.4179 45.6778 11.8838 45.8433C12.3497 46.0089 12.8277 46.1787 13.3162 46.3523C14.712 46.8483 16.1934 47.3748 17.7233 47.9185C18.6412 48.2448 19.5766 48.5772 20.5214 48.9131C20.6789 48.969 20.8366 49.0251 20.9945 49.0812C21.6263 49.3058 22.2617 49.5316 22.8982 49.7579C23.2165 49.8711 23.535 49.9843 23.8536 50.0975C27.8357 51.5131 31.8178 52.9289 35.2174 54.1376C35.5725 54.2638 35.9206 54.3876 36.2623 54.5091C36.6125 54.6336 36.9547 54.7553 37.2895 54.8744C37.4536 54.9328 37.6157 54.9904 37.776 55.0473C37.9576 55.1119 38.1366 55.1756 38.3129 55.2382C38.3761 55.2607 38.4398 55.2834 38.5023 55.3056C38.738 55.3894 38.9679 55.4711 39.1932 55.5512C39.2966 55.588 39.3985 55.6242 39.4995 55.6602C39.6554 55.7156 39.8085 55.7701 39.9587 55.8234C40.0449 55.8541 40.1302 55.8844 40.2145 55.9144C40.3249 55.9536 40.4339 55.9924 40.5409 56.0304C40.849 56.14 41.1426 56.2444 41.4215 56.3435C41.4741 56.3623 41.5265 56.3809 41.578 56.3992C41.7099 56.4461 41.8375 56.4915 41.962 56.5358C42.005 56.5511 42.0484 56.5664 42.0904 56.5814C43.6053 57.1201 44.5422 57.4532 44.6644 57.4967C44.6642 57.4965 44.6641 57.4965 44.6641 57.4964Z" fill="#578B35"/>
</svg>
