<svg width="115" height="107" viewBox="0 0 115 107" fill="none" xmlns="http://www.w3.org/2000/svg">
<path d="M70.2904 55.75C70.6238 54.35 70.9071 52.8 71.1404 51.1C71.3738 49.4 71.5238 47.8333 71.5904 46.4C71.5238 47 71.4571 47.6833 71.3904 48.45C71.3238 49.2167 71.2238 50 71.0904 50.8C70.9904 51.5667 70.8571 52.3167 70.6904 53.05C70.5571 53.7833 70.3738 54.4333 70.1404 55C69.9738 54.6333 69.8738 54.25 69.8404 53.85C69.8404 53.4167 69.8404 53 69.8404 52.6C69.8404 52.1 69.8738 51.5167 69.9404 50.85C70.0071 50.15 70.0738 49.45 70.1404 48.75C70.2404 48.0167 70.3238 47.3 70.3904 46.6C70.4904 45.9 70.5571 45.3 70.5904 44.8L70.9904 44.35C70.9904 44.25 70.9738 44.1667 70.9404 44.1C70.9404 44.0333 70.9404 43.9667 70.9404 43.9C70.9404 43.8 70.9404 43.7 70.9404 43.6C70.9738 43.4667 70.9904 43.3 70.9904 43.1C70.9904 42.0667 71.0404 41 71.1404 39.9C71.2738 38.7667 71.4071 37.65 71.5404 36.55C71.7071 35.4167 71.8404 34.3 71.9404 33.2C72.0738 32.1 72.1404 31.0167 72.1404 29.95L71.6404 30.35C71.4738 31.95 71.3071 33.6167 71.1404 35.35C71.0071 36.9833 70.8904 38.5833 70.7904 40.15L70.8904 35.5C70.9238 34.8 71.0071 33.9833 71.1404 33.05C71.3071 32.0833 71.4238 31.2333 71.4904 30.5C71.2238 30.6667 70.8404 30.9 70.3404 31.2C69.8738 31.5 69.3238 31.85 68.6904 32.25C68.0904 32.65 67.4571 33.0667 66.7904 33.5C66.1571 33.9 65.5571 34.2833 64.9904 34.65C64.4571 35.0167 63.9904 35.35 63.5904 35.65C63.1904 35.95 62.9404 36.1667 62.8404 36.3C62.7071 36.0333 62.4738 35.8667 62.1404 35.8C61.8404 35.7 61.6738 35.5 61.6404 35.2C61.7404 34.9333 61.8904 34.6833 62.0904 34.45C62.2904 34.1833 62.4904 33.95 62.6904 33.75L62.3904 33.45C62.1904 33.55 61.9404 33.7 61.6404 33.9C61.3404 34.0667 61.0238 34.2333 60.6904 34.4C60.3904 34.5333 60.0738 34.6667 59.7404 34.8C59.4404 34.9 59.1738 34.95 58.9404 34.95C58.6071 34.8167 58.4404 34.6167 58.4404 34.35C58.4404 33.5167 58.8738 32.7 59.7404 31.9C60.6071 31.0667 61.7238 30.2167 63.0904 29.35C64.4571 28.45 65.9738 27.5 67.6404 26.5C69.3071 25.4667 70.9404 24.3167 72.5404 23.05L76.9404 24.85C77.1071 25.2833 77.2404 25.85 77.3404 26.55C77.4404 27.25 77.4904 27.8333 77.4904 28.3V29.55C77.4904 30.2833 77.4738 31 77.4404 31.7C77.4404 32.4 77.3571 33.1167 77.1904 33.85C76.9904 34.8833 76.8238 36.1333 76.6904 37.6C76.5571 39.0667 76.4404 40.6167 76.3404 42.25C76.2404 43.85 76.1404 45.45 76.0404 47.05C75.9738 48.6167 75.8738 50.0333 75.7404 51.3C75.6071 52.5667 75.4404 53.6 75.2404 54.4C75.0404 55.1667 74.7904 55.55 74.4904 55.55C74.4238 55.55 74.3238 55.5167 74.1904 55.45C74.3571 54.7833 74.5238 54.0833 74.6904 53.35C74.8571 52.6167 74.9404 51.9167 74.9404 51.25V50.05C74.8404 50.9167 74.7238 51.7833 74.5904 52.65C74.4571 53.55 74.2738 54.4333 74.0404 55.3C73.9071 55.2333 73.7404 55.2 73.5404 55.2C73.2738 55.2 73.0904 55.3167 72.9904 55.55C72.9238 55.7833 72.8404 56.0333 72.7404 56.3C72.6738 56.6 72.5738 56.8667 72.4404 57.1C72.3071 57.3333 72.0738 57.45 71.7404 57.45C71.3071 57.45 70.9904 57.25 70.7904 56.85C70.6238 56.45 70.4571 56.0833 70.2904 55.75ZM75.2904 40.7C75.2238 42.2667 75.1571 43.8833 75.0904 45.55C75.2571 43.8833 75.3904 42.2333 75.4904 40.6C75.5904 39 75.7404 37.4 75.9404 35.8C75.5738 37.5 75.3571 39.1333 75.2904 40.7ZM71.7404 44.2C71.8738 43.2333 71.9571 42.2833 71.9904 41.35C72.0571 40.4167 72.1071 39.5 72.1404 38.6C72.1738 37.7 72.2071 36.8167 72.2404 35.95C72.2404 35.4167 72.2738 34.8833 72.3404 34.35C72.1404 35.8167 72.0071 37.2833 71.9404 38.75C71.8738 40.55 71.8071 42.3667 71.7404 44.2Z" fill="#30CF00"/>
<path d="M31.773 83.45C31.773 83.65 31.6897 83.8333 31.523 84C31.3564 84.1667 31.1564 84.3167 30.923 84.45C30.723 84.5833 30.4897 84.7 30.223 84.8L29.623 85.05C29.323 84.9167 28.973 84.8 28.573 84.7C28.173 84.6333 27.7397 84.5833 27.273 84.55C26.8397 84.5167 26.4064 84.4833 25.973 84.45C25.5397 84.45 25.1564 84.45 24.823 84.45C23.2564 84.45 21.6897 84.4833 20.123 84.55C18.5897 84.65 17.0397 84.7333 15.473 84.8C15.8397 84.8333 16.1897 84.85 16.523 84.85H17.623C18.5897 84.85 19.5564 84.8333 20.523 84.8C21.4897 84.7667 22.4564 84.75 23.423 84.75C24.2897 84.75 25.1397 84.7833 25.973 84.85C26.8397 84.9167 27.7064 85.0333 28.573 85.2C28.073 85.3667 27.2897 85.4833 26.223 85.55C25.1897 85.65 24.0897 85.7167 22.923 85.75C21.7897 85.8167 20.6897 85.85 19.623 85.85C18.5564 85.8833 17.723 85.9 17.123 85.9L16.723 85.35C16.6564 85.35 16.5897 85.35 16.523 85.35C16.4897 85.3833 16.4397 85.4 16.373 85.4C16.2397 85.4 16.1064 85.3833 15.973 85.35C15.8397 85.35 15.6897 85.35 15.523 85.35H15.173C15.073 85.35 14.973 85.3833 14.873 85.45C14.573 85.45 14.273 85.4333 13.973 85.4C13.7064 85.3667 13.423 85.35 13.123 85.35L12.123 80.4L13.273 79.8C14.573 78.9333 15.8397 78.05 17.073 77.15C18.3397 76.2167 19.5064 75.2167 20.573 74.15C21.673 73.05 22.6564 71.8833 23.523 70.65C24.423 69.3833 25.1564 67.9833 25.723 66.45L25.573 66.15C25.973 65.35 26.2564 64.6167 26.423 63.95C26.5897 63.25 26.673 62.55 26.673 61.85C26.673 60.6833 26.4064 59.9 25.873 59.5C25.3397 59.1 24.6564 58.9 23.823 58.9C22.6897 58.9 21.7064 59.2167 20.873 59.85C20.0397 60.45 19.3397 61.1667 18.773 62C18.6064 61.7333 18.3564 61.5667 18.023 61.5C17.723 61.4 17.573 61.2167 17.573 60.95C17.573 60.5833 17.7564 60.2167 18.123 59.85C18.523 59.4833 18.8397 59.2 19.073 59L18.773 58.55C18.6397 58.65 18.373 58.8333 17.973 59.1C17.573 59.3333 17.1564 59.6 16.723 59.9C16.2897 60.1667 15.873 60.4167 15.473 60.65C15.1064 60.85 14.8564 60.95 14.723 60.95C14.323 60.95 14.123 60.7333 14.123 60.3C14.123 59.4 14.4397 58.5333 15.073 57.7C15.7064 56.8333 16.473 56.0833 17.373 55.45C18.3064 54.7833 19.3064 54.25 20.373 53.85C21.4397 53.45 22.423 53.25 23.323 53.25C24.6564 53.25 25.8897 53.4 27.023 53.7C28.1897 54 29.2064 54.4833 30.073 55.15C30.9397 55.8167 31.623 56.6833 32.123 57.75C32.623 58.7833 32.873 60.0333 32.873 61.5C32.873 63.3333 32.5064 65.1667 31.773 67C31.073 68.8333 30.1397 70.5667 28.973 72.2C27.8064 73.8333 26.473 75.35 24.973 76.75C23.5064 78.1167 22.0064 79.2667 20.473 80.2C20.8064 80.1667 21.2064 80.1333 21.673 80.1C22.173 80.0667 22.6897 80.0333 23.223 80C23.7564 79.9667 24.2564 79.95 24.723 79.95C25.223 79.9167 25.6397 79.9 25.973 79.9C26.4397 79.9 26.9397 79.9667 27.473 80.1C28.0064 80.2 28.4564 80.4 28.823 80.7L28.723 81C27.7564 80.9 26.8064 80.85 25.873 80.85C25.4397 80.85 24.923 80.8667 24.323 80.9C23.7564 80.9 23.173 80.9167 22.573 80.95C21.973 80.9833 21.373 81.0167 20.773 81.05C20.2064 81.0833 19.7064 81.1167 19.273 81.15V81.2C19.6064 81.2 20.023 81.2 20.523 81.2C21.0564 81.1667 21.5897 81.15 22.123 81.15C22.6897 81.1167 23.223 81.1 23.723 81.1C24.223 81.0667 24.6564 81.05 25.023 81.05C25.623 81.05 26.2064 81.0833 26.773 81.15C27.373 81.1833 27.973 81.2333 28.573 81.3C28.473 81.4667 28.423 81.6 28.423 81.7C28.423 81.9667 28.5897 82.1333 28.923 82.2C29.2897 82.2667 29.673 82.35 30.073 82.45C30.5064 82.5167 30.8897 82.6167 31.223 82.75C31.5897 82.8833 31.773 83.1167 31.773 83.45ZM13.523 79.3C14.3897 78.7667 15.3564 78.05 16.423 77.15C17.523 76.2167 18.6064 75.2 19.673 74.1C20.773 72.9667 21.8064 71.7667 22.773 70.5C23.7397 69.2333 24.5564 67.9667 25.223 66.7C24.723 67.8 24.023 68.9833 23.123 70.25C22.2564 71.5167 21.273 72.75 20.173 73.95C19.1064 75.1167 17.9897 76.1833 16.823 77.15C15.6564 78.1167 14.5564 78.8333 13.523 79.3ZM21.823 73.8C20.6564 74.9667 19.4564 76.0833 18.223 77.15C16.9897 78.2167 15.673 79.2 14.273 80.1L14.523 80.15C15.923 79.2833 17.2064 78.3 18.373 77.2C19.573 76.1 20.723 74.9667 21.823 73.8ZM20.073 79.55C20.7064 79.25 21.3397 78.7333 21.973 78L19.023 80.05C19.2897 79.9167 19.6397 79.75 20.073 79.55ZM13.123 85.65C13.1897 85.65 13.373 85.65 13.673 85.65C13.973 85.6833 14.2897 85.7167 14.623 85.75C14.9564 85.7833 15.2564 85.8167 15.523 85.85C15.823 85.9167 16.0064 85.9667 16.073 86L13.173 85.8L13.123 85.65ZM12.673 81.15L13.873 80.55L13.823 80.4C13.623 80.5667 13.4064 80.6833 13.173 80.75C12.9397 80.8167 12.723 80.9 12.523 81V81.15H12.673Z" fill="#FF4D00"/>
<path d="M80.9895 100.75C81.2228 100.75 81.4561 100.767 81.6895 100.8C81.9228 100.8 82.1561 100.8 82.3895 100.8C83.0895 101.3 83.8728 101.65 84.7395 101.85C85.6061 102.017 86.4728 102.1 87.3395 102.1C87.9395 102.1 88.7728 102.017 89.8395 101.85C90.9395 101.65 92.0061 101.367 93.0395 101C94.0728 100.6 94.9728 100.1 95.7395 99.5C96.5061 98.9 96.8895 98.2 96.8895 97.4C96.8895 96.8 96.6728 96.1833 96.2395 95.55C95.8395 94.9167 95.3395 94.3 94.7395 93.7C94.1728 93.1 93.5728 92.55 92.9395 92.05C92.3728 91.6167 91.8895 91.2167 91.4895 90.85C91.8561 91.2167 92.3228 91.6333 92.8895 92.1C93.5228 92.6 94.1061 93.15 94.6395 93.75C95.2061 94.35 95.6895 94.9833 96.0895 95.65C96.4895 96.2833 96.6895 96.9 96.6895 97.5C96.6895 98.2667 96.3228 98.9333 95.5895 99.5C94.8895 100.033 94.0561 100.483 93.0895 100.85C92.1228 101.183 91.1395 101.433 90.1395 101.6C89.1395 101.767 88.3561 101.85 87.7895 101.85C86.9561 101.85 86.1228 101.783 85.2895 101.65C84.4895 101.483 83.7228 101.2 82.9895 100.8C83.1895 100.767 83.3895 100.75 83.5895 100.75C83.8228 100.717 84.0395 100.7 84.2395 100.7C85.0061 100.7 85.7061 100.733 86.3395 100.8C87.0061 100.833 87.6561 100.85 88.2895 100.85C88.9895 100.85 89.6895 100.783 90.3895 100.65C91.0895 100.517 91.8561 100.25 92.6895 99.85L93.4895 100.05C94.0561 99.7167 94.5895 99.3333 95.0895 98.9C95.6228 98.4667 95.8895 97.9 95.8895 97.2C95.8895 96.6333 95.5728 95.9667 94.9395 95.2C94.3061 94.4 93.5728 93.6167 92.7395 92.85C91.9061 92.0833 91.0561 91.3667 90.1895 90.7C89.3561 90.0333 88.7228 89.55 88.2895 89.25L88.6895 86.5C89.0228 86.3333 89.4228 86.2 89.8895 86.1C90.3561 86 90.8395 85.9 91.3395 85.8C91.8395 85.6667 92.3061 85.5 92.7395 85.3C93.1728 85.1 93.5228 84.8 93.7895 84.4L93.4895 84.25C93.4561 84.35 93.2061 84.4833 92.7395 84.65C92.3061 84.7833 91.8061 84.95 91.2395 85.15C90.6728 85.3167 90.1228 85.4833 89.5895 85.65C89.0895 85.8167 88.7395 85.95 88.5395 86.05L88.5895 86.15C88.5895 86.2167 88.5395 86.25 88.4395 86.25L88.3895 86.2L87.9395 89.6C88.4395 90.0667 89.1228 90.6333 89.9895 91.3C90.8561 91.9333 91.7061 92.6 92.5395 93.3C93.4061 94 94.1561 94.7167 94.7895 95.45C95.4228 96.15 95.7395 96.7833 95.7395 97.35C95.7395 97.5833 95.6561 97.8167 95.4895 98.05C95.3228 98.25 95.1061 98.45 94.8395 98.65C94.6061 98.8167 94.3561 98.9833 94.0895 99.15C93.8895 99.2833 93.7061 99.3833 93.5395 99.45C93.6728 99.3833 93.8395 99.2833 94.0395 99.15C94.3061 98.9833 94.5561 98.8167 94.7895 98.65C95.0228 98.45 95.2228 98.25 95.3895 98.05C95.5561 97.8167 95.6395 97.6 95.6395 97.4C95.6395 96.7667 95.2895 96.0833 94.5895 95.35C93.9228 94.6167 93.1395 93.9 92.2395 93.2C91.3728 92.5 90.5061 91.85 89.6395 91.25C88.7728 90.6167 88.1561 90.1 87.7895 89.7C87.8895 89.0667 87.9395 88.6 87.9395 88.3C87.9395 88 87.9561 87.5833 87.9895 87.05C88.0895 87.0167 88.1395 86.85 88.1395 86.55V85.95C89.0728 85.55 89.9395 85.2333 90.7395 85C91.5395 84.7667 92.2728 84.4833 92.9395 84.15C93.6061 83.7833 94.2061 83.3 94.7395 82.7C95.3061 82.1 95.8395 81.2333 96.3395 80.1C96.3395 79.1 95.8728 78.3167 94.9395 77.75C94.0061 77.15 92.7895 76.85 91.2895 76.85C90.8228 76.85 90.3228 76.9167 89.7895 77.05C89.2895 77.1833 88.7728 77.35 88.2395 77.55C87.7061 77.7167 87.1728 77.9 86.6395 78.1C86.1395 78.3 85.6728 78.4667 85.2395 78.6C85.2061 78.3667 85.1061 78.1667 84.9395 78C84.8061 77.8 84.7395 77.5833 84.7395 77.35C84.7395 77.15 84.8561 76.9833 85.0895 76.85C85.3228 76.6833 85.5895 76.55 85.8895 76.45C86.2228 76.35 86.5395 76.2667 86.8395 76.2C87.1395 76.1333 87.3561 76.0833 87.4895 76.05L87.3395 75.45C87.1395 75.5167 86.7561 75.5833 86.1895 75.65C85.6561 75.6833 85.1061 75.7 84.5395 75.7C83.9728 75.7 83.4561 75.65 82.9895 75.55C82.5228 75.4167 82.2895 75.1833 82.2895 74.85C82.2895 74.3833 82.7228 73.95 83.5895 73.55C84.4561 73.1167 85.4395 72.75 86.5395 72.45C87.6395 72.1167 88.7061 71.8667 89.7395 71.7C90.7728 71.5 91.4561 71.4 91.7895 71.4C92.9561 71.4 94.1728 71.6167 95.4395 72.05C96.7061 72.45 97.8561 73.0333 98.8895 73.8C99.9561 74.5667 100.823 75.4833 101.489 76.55C102.156 77.5833 102.489 78.75 102.489 80.05V80.25C102.456 81.2167 102.173 82.1167 101.639 82.95C101.139 83.75 100.523 84.4833 99.7895 85.15C99.0561 85.8167 98.2561 86.4 97.3895 86.9C96.5561 87.4 95.8061 87.8 95.1395 88.1C96.0395 88.5667 96.8728 89.15 97.6395 89.85C98.4061 90.5167 99.0561 91.25 99.5895 92.05C100.156 92.85 100.589 93.7 100.889 94.6C101.223 95.4667 101.389 96.3333 101.389 97.2C101.389 99.1 100.873 100.65 99.8395 101.85C98.8395 103.05 97.5728 103.983 96.0395 104.65C94.5395 105.35 92.9061 105.833 91.1395 106.1C89.4061 106.367 87.7895 106.5 86.2895 106.5C86.0895 106.5 85.7228 106.467 85.1895 106.4C84.6895 106.367 84.1561 106.283 83.5895 106.15C83.0561 106.05 82.5728 105.9 82.1395 105.7C81.7395 105.5 81.5395 105.25 81.5395 104.95L81.6395 104.7C83.4061 105.333 85.2561 105.65 87.1895 105.65C88.4228 105.65 89.6395 105.517 90.8395 105.25C92.0395 105.017 93.2228 104.683 94.3895 104.25C93.2561 104.617 92.0895 104.917 90.8895 105.15C89.7228 105.383 88.5395 105.5 87.3395 105.5C85.4061 105.5 83.6061 105.183 81.9395 104.55L82.2895 104C82.0895 103.9 81.8561 103.75 81.5895 103.55C81.3228 103.383 81.0561 103.183 80.7895 102.95C80.5561 102.717 80.3561 102.483 80.1895 102.25C80.0228 102.017 79.9395 101.767 79.9395 101.5C79.9395 101.233 80.0561 101.05 80.2895 100.95C80.5228 100.817 80.7561 100.75 80.9895 100.75ZM99.0395 101C99.8728 100.033 100.289 98.75 100.289 97.15C100.289 95.9167 99.9895 94.7833 99.3895 93.75C98.7895 92.75 98.0728 91.8333 97.2395 91C98.1061 91.9333 98.7895 92.9833 99.2895 94.15C99.8228 95.3167 100.089 96.5833 100.089 97.95C100.089 98.5167 99.9395 99.0833 99.6395 99.65C99.3728 100.183 99.0228 100.7 98.5895 101.2C98.1895 101.667 97.7395 102.1 97.2395 102.5C96.8395 102.833 96.4728 103.1 96.1395 103.3C97.3061 102.633 98.2728 101.867 99.0395 101ZM95.9895 103.4C95.9561 103.433 95.9228 103.45 95.8895 103.45C95.9228 103.417 95.9561 103.4 95.9895 103.4Z" fill="#1C03FD"/>
</svg>
